<svg width="800" height="800" viewBox="0 0 800 800" fill="none" xmlns="http://www.w3.org/2000/svg">
<path d="M705.275 670.85L605.55 503.825C652.475 453.7 681.275 386.125 681.275 311.825C681.275 156.5 555.35 30.5498 400 30.5498C244.65 30.5498 118.725 156.475 118.725 311.825C118.725 385.45 147.025 452.475 193.325 502.6L193.15 502.4L92.5748 670.875C90.9248 673.625 89.9248 676.925 89.9248 680.475C89.9248 684.425 91.1498 688.075 93.2248 691.1L93.1748 691.025C96.6498 696 102.35 699.2 108.8 699.2C109.825 699.2 110.825 699.125 111.8 698.975L111.7 699L186.7 686.75L214.075 756.825C216.7 763.425 222.8 768.125 230.05 768.675H230.125L231.55 768.725C238.45 768.725 244.475 765 247.725 759.45L247.775 759.35L346.425 588.475C362.45 591.825 380.875 593.725 399.75 593.725C418.075 593.725 435.975 591.925 453.3 588.475L451.55 588.775L550.025 759.3C553.35 764.925 559.375 768.65 566.275 768.675L567.7 768.625C575.025 768.05 581.125 763.35 583.725 756.875L583.775 756.75L611.125 686.675L686.125 698.925C687.05 699.075 688.1 699.175 689.175 699.175C699.525 699.175 707.925 690.775 707.925 680.425C707.925 676.875 706.925 673.55 705.225 670.725L705.275 670.8V670.85ZM234.85 706.825L216.15 658.975C213.3 651.95 206.55 647.075 198.625 647.075C197.575 647.075 196.55 647.15 195.55 647.325L195.65 647.3L145.475 655.5L220.875 529.15C245.875 549.9 275.15 566.6 307.025 577.75L309 578.35L234.85 706.825ZM156.25 312.5C156.25 177.875 265.375 68.7498 400 68.7498C534.625 68.7498 643.75 177.875 643.75 312.5C643.75 447.125 534.625 556.25 400 556.25C265.45 556.1 156.4 447.05 156.25 312.525V312.5ZM602.2 647.275C601.275 647.125 600.2 647.025 599.125 647.025C591.225 647.025 584.475 651.9 581.75 658.825L581.7 658.95L563.05 706.8L489.25 579C523.2 567.45 552.55 550.9 578.15 529.9L577.65 530.3L652.4 655.475L602.2 647.275ZM400 131.25C299.9 131.25 218.75 212.4 218.75 312.5C218.75 412.6 299.9 493.75 400 493.75C500.1 493.75 581.25 412.6 581.25 312.5C581.15 212.45 500.05 131.35 400 131.25ZM400 456.25C320.6 456.25 256.25 391.9 256.25 312.5C256.25 233.1 320.6 168.75 400 168.75C479.4 168.75 543.75 233.1 543.75 312.5C543.675 391.85 479.35 456.175 400 456.25ZM466.65 278.775H429.35L417.825 243.35C414.725 236.45 407.925 231.75 400 231.75C392.075 231.75 385.275 236.475 382.225 243.225L382.175 243.35L370.65 278.775H333.375C323.025 278.775 314.625 287.175 314.625 297.525C314.625 303.725 317.625 309.225 322.275 312.65L322.325 312.675L352.5 334.6L340.975 370.025C340.375 371.75 340.05 373.775 340.05 375.85C340.05 386.2 348.45 394.575 358.775 394.575C362.925 394.575 366.75 393.225 369.85 390.95L369.8 390.975L399.975 369.075L430.15 390.975C433.2 393.2 437.025 394.55 441.15 394.55C451.5 394.55 459.9 386.15 459.9 375.8C459.9 373.725 459.575 371.75 458.95 369.875L459 370L447.45 334.575L477.65 312.65C482.35 309.2 485.35 303.7 485.35 297.5C485.35 287.15 476.975 278.75 466.6 278.75L466.65 278.775ZM406.725 328.45C404.725 327.65 402.425 327.2 400 327.2C397.575 327.2 395.275 327.65 393.15 328.5L393.275 328.45C393.3 328.15 393.3 327.8 393.3 327.45C393.3 322.95 391.725 318.825 389.075 315.625L389.1 315.65C393.675 314.4 397.475 311.6 399.95 307.825L400 307.75C402.525 311.575 406.3 314.4 410.75 315.6L410.875 315.625C408.25 318.825 406.675 322.925 406.675 327.425C406.675 327.775 406.7 328.125 406.725 328.45Z" fill="#D6111E"/>
</svg>
