<svg width="24" height="24" viewBox="0 0 24 24" fill="none" xmlns="http://www.w3.org/2000/svg">
<rect x="6" y="2" width="15" height="12" rx="3" fill="#EFA834"/>
<path d="M15.0024 9.87734C14.6103 9.87734 14.298 9.80177 14.047 9.68534C13.6714 9.51143 13.4281 9.24345 13.275 8.97588C13.1987 8.84285 13.1459 8.71057 13.1127 8.59413C13.0795 8.47807 13.0664 8.37588 13.0668 8.31495C13.0668 8.19851 12.9727 8.10443 12.8567 8.10443C12.7406 8.10443 12.6465 8.19851 12.6465 8.31495C12.6465 8.39056 12.6558 8.47385 12.6743 8.56559C12.7066 8.72637 12.7668 8.91143 12.8659 9.10306C13.0136 9.38881 13.2488 9.68913 13.6004 9.91667C13.6888 9.97488 13.7832 10.0269 13.8858 10.0732C13.9019 10.143 13.9247 10.2652 13.9243 10.4137C13.9243 10.5212 13.9124 10.6408 13.88 10.7638C13.8476 10.8868 13.7948 11.0117 13.7099 11.1339C13.6448 11.2299 13.6679 11.3602 13.7635 11.4262C13.8588 11.4921 13.9895 11.4687 14.0554 11.373C14.1703 11.2076 14.2432 11.0352 14.2864 10.8714C14.3292 10.7071 14.3442 10.5506 14.3442 10.4137C14.3442 10.3454 14.3404 10.281 14.335 10.2232C14.537 10.2699 14.7583 10.2976 15.0024 10.2976C15.1184 10.2976 15.2126 10.2036 15.2126 10.0875C15.2126 9.97146 15.1185 9.87734 15.0024 9.87734Z" fill="#212529"/>
<path d="M15.9336 7.1739C15.8326 7.11761 15.705 7.15229 15.6476 7.25373C15.5905 7.35437 15.6264 7.48239 15.7274 7.53981C15.8824 7.6285 15.9765 7.72642 16.0397 7.82785C15.7806 7.91879 15.5516 7.95662 15.3484 7.95662C15.0518 7.95625 14.8093 7.87796 14.6042 7.75768C14.4002 7.63778 14.2355 7.47315 14.1103 7.30309C13.904 7.02161 13.636 6.77139 13.3198 6.58862C13.0037 6.40665 12.6385 6.29251 12.246 6.29251C11.9025 6.29251 11.5404 6.3812 11.1811 6.57821C11.0345 6.65846 10.907 6.7525 10.7963 6.85548C10.3594 7.02357 9.98347 7.08451 9.66463 7.08451C9.21083 7.08371 8.87225 6.96264 8.64556 6.8431C8.53259 6.78296 8.44813 6.72357 8.39342 6.6804C8.36605 6.65846 8.34561 6.6415 8.33324 6.62992L8.32091 6.61796L8.31856 6.61567C8.23799 6.53317 8.1057 6.53082 8.02203 6.61098C7.93878 6.69156 7.93644 6.82421 8.01664 6.90789C8.02897 6.91989 8.17283 7.06712 8.44925 7.21407C8.57028 7.27806 8.71836 7.34092 8.8896 7.3922C8.84413 7.45618 8.78197 7.55026 8.71419 7.669C8.58425 7.89845 8.435 8.22076 8.35944 8.59984C8.33591 8.71431 8.40997 8.82461 8.52369 8.84734C8.63745 8.8705 8.7477 8.79606 8.77044 8.68229C8.83409 8.3627 8.96516 8.07812 9.07967 7.87646C9.13714 7.77465 9.18992 7.69487 9.22813 7.64012C9.24739 7.6135 9.26244 7.59231 9.27285 7.57918C9.27786 7.57262 9.28175 7.56803 9.284 7.56493L9.2871 7.56184L9.28747 7.56109C9.30641 7.53756 9.31911 7.51093 9.32642 7.48243C9.4332 7.49631 9.54542 7.50404 9.66458 7.50404C9.88513 7.50404 10.1273 7.47784 10.3879 7.41882C10.258 7.69684 10.2051 7.98756 10.2047 8.25362C10.2055 8.52118 10.2564 8.76489 10.3478 8.95848C10.3975 9.06296 10.5229 9.1081 10.6273 9.05832C10.7318 9.00854 10.777 8.88367 10.7272 8.77876C10.669 8.65764 10.6242 8.46564 10.625 8.25357C10.6246 8.02454 10.6747 7.77315 10.7931 7.54295C10.9123 7.31317 11.0966 7.10378 11.3831 6.94646C11.685 6.78062 11.9742 6.71279 12.246 6.712C12.5564 6.71279 12.8486 6.80218 13.11 6.9526C13.3707 7.1026 13.5982 7.31467 13.7717 7.55101C13.9243 7.75961 14.1287 7.96473 14.3913 8.11975C14.6535 8.27476 14.9758 8.37695 15.3483 8.37615C15.5947 8.37615 15.8623 8.33223 16.1507 8.23431L16.151 8.24898C16.151 8.35192 16.1349 8.44557 16.119 8.51195C16.1113 8.54434 16.1032 8.57092 16.0975 8.58751C16.0948 8.596 16.0928 8.60218 16.0913 8.60603L16.0902 8.60912V8.6095C16.0478 8.71703 16.0994 8.83853 16.207 8.8817C16.3149 8.9245 16.4372 8.87209 16.4803 8.76489C16.4861 8.74984 16.5698 8.5397 16.571 8.24903C16.571 8.08243 16.542 7.88659 16.4445 7.69342C16.3482 7.49931 16.1819 7.31387 15.9336 7.1739Z" fill="#212529"/>
<path d="M10.5437 5.60463C10.6883 5.43419 10.8938 5.30003 11.1278 5.21017C11.3619 5.11914 11.6225 5.07405 11.867 5.07405C12.1045 5.07405 12.3262 5.11759 12.4882 5.19358C12.5942 5.24214 12.7187 5.19592 12.7669 5.09102C12.8155 4.98573 12.7696 4.86044 12.6647 4.81267C12.4303 4.70392 12.1542 4.65536 11.867 4.65494C11.5716 4.65494 11.264 4.70777 10.9767 4.81806C10.6906 4.92831 10.4245 5.09683 10.224 5.33397C10.1485 5.42223 10.1596 5.55452 10.2479 5.62928C10.3366 5.70484 10.4697 5.69331 10.5437 5.60463Z" fill="#212529"/>
<path d="M13.7875 0.0214221C8.6116 -0.297093 4.25307 2.95912 4.35174 8.26425L4.34789 8.74434L2.09921 12.7154C1.97813 12.9294 1.9673 13.1889 2.06991 13.4125C2.17247 13.6362 2.37605 13.797 2.61741 13.8448L4.00707 14.228L4.44352 18.4385C4.4551 18.8445 4.63557 19.227 4.94171 19.4935C5.24785 19.7603 5.65196 19.8864 6.05527 19.8412L7.16494 19.9296C7.3816 19.9057 7.59835 19.9747 7.76063 20.1204C7.92296 20.2654 8.01591 20.4732 8.01591 20.6911V24H17.4051C17.4051 24 17.4051 22.3957 17.4051 21.7556C17.4051 21.1151 17.6264 19.6515 18.0451 18.9813C19.5674 16.5476 22.0451 15.2528 22.4631 10.2619C22.8814 5.27025 19.9024 0.398157 13.7875 0.0214221ZM20.0343 8.58042C19.8238 8.92823 19.4833 9.14489 19.1116 9.20892C18.9975 9.22898 18.9203 9.33694 18.9397 9.45145C18.9601 9.56555 19.0684 9.64308 19.1826 9.62264C19.2678 9.60797 19.3518 9.58678 19.4348 9.56016C19.5242 9.74559 19.5689 9.94495 19.5689 10.1435C19.5689 10.3556 19.5184 10.5661 19.4216 10.7565C19.3252 10.9467 19.1826 11.1159 18.9952 11.2478C18.7596 11.4132 18.4916 11.4918 18.2256 11.4922C18.2044 11.4922 18.1835 11.49 18.1627 11.4895C18.1581 11.4544 18.1538 11.4197 18.1477 11.3854V11.385C18.1018 11.1417 18.0066 10.9189 17.8766 10.7253L17.8608 10.7018L17.8392 10.6833C17.6804 10.5468 17.4694 10.3231 17.3067 10.0953C17.2246 9.98156 17.1548 9.86625 17.1078 9.76369C17.0603 9.66075 17.0384 9.57127 17.0392 9.51844C17.0392 9.49491 17.0426 9.47869 17.0473 9.46791C17.0511 9.4575 17.055 9.45131 17.0631 9.44283C17.1448 9.36145 17.1448 9.22805 17.0631 9.14555C16.9809 9.06417 16.8483 9.06417 16.7666 9.14555C16.7149 9.19645 16.6763 9.25809 16.6528 9.3233C16.6285 9.38733 16.6196 9.45398 16.6196 9.51839C16.6204 9.66375 16.6643 9.8018 16.726 9.9383C16.8197 10.1423 16.9593 10.3447 17.1108 10.5298C17.2531 10.7033 17.4039 10.8594 17.5396 10.979C17.6333 11.122 17.7016 11.284 17.7351 11.4625C17.749 11.5377 17.7563 11.6125 17.7578 11.6838V11.6854C17.7578 11.6946 17.7582 11.7039 17.7582 11.7139C17.7582 12.0308 17.6453 12.3312 17.4513 12.5676C17.257 12.8035 16.9836 12.9751 16.6593 13.036C16.5749 13.0522 16.4908 13.0599 16.4083 13.0599C15.963 13.0603 15.5511 12.8363 15.3036 12.4808C15.437 12.3455 15.5508 12.187 15.6371 12.0069V12.0073C15.7447 11.7848 15.8014 11.5488 15.8114 11.3152C15.8164 11.1995 15.727 11.1016 15.6113 11.0966C15.4949 11.0912 15.3973 11.1814 15.3919 11.2971C15.3846 11.4752 15.3414 11.6537 15.2593 11.8241L15.2589 11.8249C15.1706 12.0073 15.048 12.16 14.9014 12.2807L14.9007 12.2811C14.6593 12.4781 14.3551 12.5868 14.0439 12.5868C13.8481 12.5868 13.6491 12.544 13.4602 12.4526C13.1105 12.2845 12.8676 11.985 12.76 11.6422H12.7596C12.7187 11.5122 12.6976 11.3753 12.6976 11.2381C12.6976 11.0418 12.7403 10.8428 12.8317 10.6536C12.8822 10.5491 12.8379 10.4234 12.7334 10.3736C12.6293 10.3231 12.504 10.3667 12.4535 10.4712C12.3347 10.718 12.2773 10.9806 12.2773 11.2381C12.2773 11.3631 12.2919 11.4864 12.3174 11.6071C12.1535 11.6966 11.9688 11.754 11.7691 11.7682H11.7687C11.736 11.7706 11.7039 11.7721 11.6716 11.7721C11.3561 11.7721 11.0643 11.6626 10.8329 11.4771C10.6305 11.3152 10.4755 11.0973 10.393 10.8436C10.5403 10.6983 10.6629 10.5275 10.7527 10.3381C10.8021 10.2332 10.7573 10.1083 10.6525 10.059C10.548 10.0092 10.4219 10.0539 10.3729 10.1592C10.29 10.335 10.1689 10.4912 10.0213 10.6157C9.81075 10.7935 9.54544 10.9076 9.25013 10.9289H9.24975C9.21699 10.9312 9.18497 10.9327 9.153 10.9327C8.48672 10.9327 7.91761 10.4403 7.82119 9.78178L7.82082 9.77986V9.77873C7.81543 9.74709 7.81196 9.71433 7.80966 9.68039C7.80736 9.64837 7.80619 9.61523 7.80619 9.58284C7.80619 9.49838 7.8143 9.41475 7.82935 9.33413C7.84978 9.21998 7.77464 9.11048 7.6605 9.0893C7.54716 9.06886 7.43728 9.1433 7.41567 9.25739C7.39674 9.363 7.38638 9.47175 7.38638 9.5828L7.38675 9.5955C7.19785 9.57431 7.01466 9.51375 6.85078 9.41775C6.64332 9.29672 6.46711 9.11934 6.34528 8.89181C6.23696 8.68861 6.18563 8.47233 6.18563 8.25792C6.18563 7.98108 6.27164 7.7093 6.43013 7.48214C6.49144 7.56848 6.56044 7.64986 6.63792 7.72617C6.8153 7.90008 7.02042 8.02884 7.2375 8.11289C7.34583 8.15536 7.46696 8.10131 7.50896 7.99261C7.55138 7.88466 7.497 7.7632 7.38942 7.72116C7.22325 7.65713 7.06744 7.55925 6.93249 7.42659V7.42622C6.81296 7.30978 6.72042 7.17712 6.65447 7.03486C6.56967 6.85439 6.52725 6.65817 6.52725 6.46345C6.52758 6.12183 6.65485 5.7833 6.91163 5.52113C7.13025 5.29823 7.40555 5.16788 7.69125 5.12822H7.69163H7.69238C7.75332 5.12048 7.81421 5.11627 7.87514 5.11627C8.21602 5.11664 8.55493 5.24508 8.81789 5.50148C8.90082 5.58206 9.03343 5.58127 9.1148 5.49802C9.1958 5.41552 9.19425 5.28286 9.11171 5.20148C8.77702 4.87373 8.34366 4.70602 7.90983 4.69833C7.95877 4.49742 8.05289 4.31048 8.18475 4.15313C8.36789 3.93492 8.61816 3.77372 8.91736 3.70472C9.01918 3.68198 9.11939 3.67041 9.21924 3.67041C9.39507 3.67041 9.56625 3.70584 9.72436 3.76988C9.67964 3.92644 9.65494 4.09069 9.65494 4.26113C9.65494 4.37677 9.74869 4.47047 9.86471 4.47047C9.98072 4.47047 10.0744 4.37677 10.0744 4.26113C10.0744 4.07756 10.1119 3.90216 10.1774 3.74292C10.2788 3.49922 10.4504 3.2918 10.6659 3.14527C10.8822 2.99873 11.141 2.91356 11.422 2.91356C11.8269 2.91356 12.1882 3.09052 12.4357 3.37313C12.6443 3.61027 12.7696 3.92025 12.7696 4.26113C12.7696 4.37677 12.8641 4.47047 12.9798 4.47047C13.0958 4.47047 13.1903 4.37677 13.1903 4.26113C13.1903 3.87319 13.0646 3.51347 12.8521 3.22238C12.9609 3.072 13.0993 2.94398 13.2597 2.84916C13.4602 2.73117 13.6935 2.66292 13.9437 2.66292C14.2321 2.66292 14.497 2.75278 14.7156 2.9062C14.935 3.05967 15.1062 3.27717 15.203 3.52969H15.2026C15.2597 3.67969 15.291 3.84084 15.291 4.01091C15.291 4.12659 15.3854 4.22063 15.5011 4.22063C15.6168 4.22063 15.7116 4.12659 15.7116 4.01091C15.7116 3.83738 15.685 3.67045 15.6383 3.51197C15.8874 3.28064 16.2171 3.14953 16.5576 3.14953C16.7353 3.14953 16.9158 3.18464 17.09 3.25903C17.3329 3.36431 17.5281 3.53048 17.6672 3.73331C17.8065 3.93652 17.8882 4.17478 17.9025 4.42153C17.904 4.44698 17.9052 4.47206 17.9052 4.49747C17.9044 4.67564 17.8693 4.85531 17.7945 5.02997C17.7487 5.13642 17.798 5.2598 17.9044 5.30527C18.0112 5.35116 18.1342 5.30217 18.1804 5.19577C18.2583 5.01455 18.3031 4.82752 18.3181 4.63978C18.524 4.65441 18.7245 4.71689 18.9019 4.82175C19.1043 4.94128 19.2774 5.11631 19.3954 5.3407C19.4987 5.53697 19.5473 5.74556 19.5477 5.95223C19.5477 6.04669 19.5361 6.14039 19.5158 6.23217C19.39 6.18281 19.259 6.14967 19.1282 6.13036C19.0141 6.11456 18.9073 6.19477 18.8919 6.30966C18.8753 6.42459 18.9555 6.53058 19.0696 6.54642C19.2019 6.56527 19.3318 6.60309 19.456 6.66169C19.4776 6.69759 19.5107 6.72727 19.5524 6.74541C19.5778 6.75656 19.6052 6.762 19.6318 6.762C19.7093 6.81366 19.7798 6.87188 19.8428 6.93548L19.8431 6.93586C20.0953 7.18992 20.2306 7.53272 20.2306 7.8832C20.2306 8.12119 20.1677 8.3618 20.0343 8.58042Z" fill="black"/>
<path d="M17.8539 6.7244C17.7497 6.63454 17.6379 6.5609 17.5195 6.50924C17.4008 6.45679 17.2758 6.42557 17.1482 6.42557C17.0322 6.42557 16.9385 6.51965 16.9385 6.63571C16.9385 6.75177 17.0322 6.84547 17.1482 6.84547C17.2254 6.84547 17.3225 6.8721 17.4258 6.93149C17.5797 7.01976 17.7397 7.17861 17.8554 7.3768C17.9726 7.57536 18.0474 7.81096 18.0466 8.05504C18.0459 8.32302 17.9614 8.60296 17.7324 8.88093C17.6591 8.96999 17.6715 9.10265 17.7609 9.17629C17.8504 9.25072 17.983 9.2376 18.0567 9.14891C18.3447 8.80072 18.4677 8.41518 18.4673 8.05504C18.4673 7.83604 18.4226 7.62627 18.3493 7.43502C18.2383 7.14852 18.0617 6.90402 17.8539 6.7244Z" fill="#212529"/>
<path d="M16.4016 5.77243C15.8243 5.77243 15.3613 5.55962 15.0405 5.28161C14.8801 5.14276 14.7574 4.98779 14.6768 4.83896C14.5951 4.69051 14.5581 4.549 14.5589 4.44296C14.5589 4.32732 14.4648 4.23325 14.3491 4.23325C14.233 4.23325 14.139 4.32732 14.139 4.44296C14.1397 4.64003 14.2014 4.84281 14.3078 5.0395C14.4201 5.24462 14.5836 5.44393 14.7906 5.61896C14.7489 5.67681 14.6915 5.75237 14.6175 5.8322C14.4578 6.00686 14.2273 6.20003 13.9516 6.29837C13.8432 6.3369 13.7858 6.45681 13.8247 6.56631C13.8636 6.67581 13.9832 6.73211 14.0931 6.69353C14.4667 6.55937 14.7458 6.31454 14.9359 6.1059C15.0204 6.01337 15.0859 5.9282 15.1349 5.86032C15.4819 6.06043 15.9111 6.19271 16.4015 6.19271C16.5176 6.19271 16.6112 6.09864 16.6112 5.98295C16.6113 5.86693 16.5176 5.77243 16.4016 5.77243Z" fill="#212529"/>
</svg>
