<svg width="18" height="18" viewBox="0 0 18 18" fill="none" xmlns="http://www.w3.org/2000/svg">
<path fill-rule="evenodd" clip-rule="evenodd" d="M8.23059 4.69099C8.67006 5.17813 8.53072 5.73001 8.14214 6.25368C8.05 6.37783 7.94383 6.50014 7.81555 6.63494C7.75399 6.69965 7.706 6.7483 7.60558 6.8488C7.37757 7.07707 7.18587 7.26886 7.03051 7.42422C6.95518 7.49955 7.46955 8.52739 8.46778 9.52662C9.4655 10.5253 10.4933 11.04 10.569 10.9643L11.1437 10.3893C11.4601 10.0725 11.6277 9.91967 11.858 9.76858C12.3368 9.45448 12.859 9.36912 13.2995 9.76294C14.7375 10.7916 15.5513 11.4228 15.9499 11.8371C16.7275 12.645 16.6256 13.8887 15.9544 14.5982C15.7216 14.8443 15.4264 15.1396 15.0778 15.4756C12.9692 17.5854 8.51893 16.3015 5.10829 12.8875C1.69689 9.47275 0.413616 5.02207 2.51786 2.9167C2.89564 2.53299 3.02017 2.4085 3.38809 2.04598C4.07308 1.37103 5.37417 1.26535 6.16509 2.04665C6.58111 2.45761 7.24437 3.31099 8.23059 4.69099ZM12.2039 11.4498L11.6291 12.025C10.652 13.0025 8.98812 12.1692 7.40749 10.587C5.82577 9.00379 4.9934 7.3405 5.97078 6.36321C6.12592 6.20807 6.31744 6.01646 6.54529 5.78838C6.63723 5.69635 6.67928 5.65372 6.72975 5.60068C6.79853 5.52839 6.85503 5.46492 6.90028 5.40874C6.02626 4.19124 5.43211 3.43047 5.11182 3.11407C4.9464 2.95066 4.576 2.98074 4.44001 3.11473C4.07736 3.47207 3.95815 3.59123 3.58191 3.97335C2.22867 5.32733 3.26461 8.92022 6.1686 11.8271C9.07168 14.733 12.664 15.7694 14.0276 14.4053C14.3707 14.0743 14.6504 13.7945 14.8656 13.567C15.0212 13.4026 15.049 13.0634 14.87 12.8775C14.5721 12.5679 13.8425 11.999 12.5827 11.0944C12.4909 11.1683 12.378 11.2755 12.2039 11.4498ZM10.241 1.55233C13.4835 1.94535 16.0545 4.51639 16.4476 7.75888L14.966 8.0058C14.6799 5.39402 12.6059 3.31997 9.99409 3.03391L10.241 1.55233ZM9.74695 4.51677C11.7281 4.69396 13.3059 6.27181 13.4831 8.25296L11.9968 8.50066C11.9337 7.15001 10.8499 6.06616 9.49923 6.0031L9.74695 4.51677Z" fill="#EFA834"/>
</svg>
