<svg width="800" height="800" viewBox="0 0 800 800" fill="none" xmlns="http://www.w3.org/2000/svg">
<path fill-rule="evenodd" clip-rule="evenodd" d="M365.817 208.48C385.349 230.131 379.156 254.659 361.886 277.933C357.791 283.451 353.072 288.887 347.371 294.878C344.635 297.754 342.502 299.916 338.039 304.383C327.905 314.528 319.385 323.052 312.48 329.957C309.132 333.305 331.993 378.987 376.359 423.397C420.702 467.783 466.381 490.659 469.746 487.293L495.287 461.738C509.352 447.659 516.801 440.866 527.037 434.151C548.316 420.191 571.525 416.397 591.1 433.9C655.013 479.618 691.181 507.673 708.899 526.083C743.459 561.993 738.93 617.268 709.096 648.802C698.75 659.737 685.632 672.862 670.139 687.798C576.421 781.567 378.632 724.502 227.048 572.77C75.4304 421.003 18.396 223.195 111.918 129.623C128.708 112.569 134.243 107.036 150.595 90.9242C181.039 60.9264 238.865 56.2294 274.017 90.9538C292.507 109.219 321.985 147.147 365.817 208.48ZM542.407 508.873L516.86 534.434C473.436 577.881 399.485 540.847 329.235 470.527C258.936 400.16 221.942 326.236 265.381 282.801C272.276 275.906 280.788 267.39 290.915 257.253C295.001 253.163 296.87 251.268 299.113 248.911C302.17 245.698 304.681 242.877 306.692 240.38C267.847 186.269 241.44 152.457 227.205 138.395C219.853 131.132 203.391 132.469 197.347 138.424C181.229 154.306 175.931 159.602 159.209 176.585C99.0649 236.762 145.107 396.446 274.173 525.639C403.199 654.792 562.859 700.856 623.46 640.229C638.712 625.518 651.141 613.082 660.708 602.971C667.621 595.664 668.856 580.588 660.904 572.326C647.66 558.564 615.234 533.282 559.245 493.076C555.164 496.36 550.147 501.125 542.407 508.873ZM455.169 68.984C599.28 86.4519 713.548 200.72 731.016 344.831L665.168 355.805C652.454 239.726 560.274 147.546 444.195 134.832L455.169 68.984ZM433.211 200.737C521.261 208.612 591.388 278.739 599.264 366.79L533.204 377.799C530.401 317.77 482.23 269.599 422.201 266.796L433.211 200.737Z" fill="#D6111E"/>
</svg>
