<svg width="800" height="800" viewBox="0 0 800 800" fill="none" xmlns="http://www.w3.org/2000/svg">
<path fill-rule="evenodd" clip-rule="evenodd" d="M600 425.342C593.37 425.342 587.011 427.975 582.323 432.664C577.634 437.352 575 443.711 575 450.342C575 456.972 577.634 463.331 582.323 468.019C587.011 472.708 593.37 475.342 600 475.342C606.63 475.342 612.989 472.708 617.677 468.019C622.366 463.331 625 456.972 625 450.342C625 443.711 622.366 437.352 617.677 432.664C612.989 427.975 606.63 425.342 600 425.342Z" fill="#D6111E"/>
<path fill-rule="evenodd" clip-rule="evenodd" d="M525 425.342C518.37 425.342 512.011 427.975 507.323 432.664C502.634 437.352 500 443.711 500 450.342C500 456.972 502.634 463.331 507.323 468.019C512.011 472.708 518.37 475.342 525 475.342C531.63 475.342 537.989 472.708 542.677 468.019C547.366 463.331 550 456.972 550 450.342C550 443.711 547.366 437.352 542.677 432.664C537.989 427.975 531.63 425.342 525 425.342Z" fill="#D6111E"/>
<path fill-rule="evenodd" clip-rule="evenodd" d="M450 425.342C443.37 425.342 437.011 427.975 432.323 432.664C427.634 437.352 425 443.711 425 450.342C425 456.972 427.634 463.331 432.323 468.019C437.011 472.708 443.37 475.342 450 475.342C456.63 475.342 462.989 472.708 467.677 468.019C472.366 463.331 475 456.972 475 450.342C475 443.711 472.366 437.352 467.677 432.664C462.989 427.975 456.63 425.342 450 425.342Z" fill="#D6111E"/>
<path fill-rule="evenodd" clip-rule="evenodd" d="M350 200.342C343.37 200.342 337.011 202.975 332.323 207.664C327.634 212.352 325 218.711 325 225.342C325 231.972 327.634 238.331 332.323 243.019C337.011 247.708 343.37 250.342 350 250.342C356.63 250.342 362.989 247.708 367.677 243.019C372.366 238.331 375 231.972 375 225.342C375 218.711 372.366 212.352 367.677 207.664C362.989 202.975 356.63 200.342 350 200.342Z" fill="#D6111E"/>
<path fill-rule="evenodd" clip-rule="evenodd" d="M275 200.342C268.37 200.342 262.011 202.975 257.323 207.664C252.634 212.352 250 218.711 250 225.342C250 231.972 252.634 238.331 257.323 243.019C262.011 247.708 268.37 250.342 275 250.342C281.63 250.342 287.989 247.708 292.677 243.019C297.366 238.331 300 231.972 300 225.342C300 218.711 297.366 212.352 292.677 207.664C287.989 202.975 281.63 200.342 275 200.342Z" fill="#D6111E"/>
<path fill-rule="evenodd" clip-rule="evenodd" d="M200 200.342C193.37 200.342 187.011 202.975 182.323 207.664C177.634 212.352 175 218.711 175 225.342C175 231.972 177.634 238.331 182.323 243.019C187.011 247.708 193.37 250.342 200 250.342C206.63 250.342 212.989 247.708 217.677 243.019C222.366 238.331 225 231.972 225 225.342C225 218.711 222.366 212.352 217.677 207.664C212.989 202.975 206.63 200.342 200 200.342Z" fill="#D6111E"/>
<path fill-rule="evenodd" clip-rule="evenodd" d="M101.465 50.3418C74.1281 50.3418 50 72.2853 50 100.342V350.342C50 378.399 74.1281 400.342 101.465 400.342H150V475.342C150.002 480.285 151.469 485.117 154.217 489.227C156.964 493.336 160.868 496.54 165.435 498.431C170.002 500.323 175.027 500.819 179.876 499.855C184.725 498.891 189.179 496.512 192.676 493.018L285.352 400.342H300V575.342C300 603.392 324.128 625.342 351.465 625.342H473.486L566.162 718.018C569.659 721.512 574.113 723.891 578.962 724.855C583.811 725.819 588.836 725.323 593.403 723.431C597.97 721.54 601.874 718.337 604.621 714.227C607.368 710.117 608.836 705.285 608.838 700.342V625.342H698.535C725.872 625.342 750 603.391 750 575.342V325.342C750 297.292 725.872 275.342 698.535 275.342H500V100.342C500 72.2853 475.872 50.3418 448.535 50.3418H101.465ZM101.465 100.342H448.535C449.533 100.342 449.883 100.442 450 100.492V350.199C449.875 350.249 449.533 350.349 448.535 350.349H275C268.37 350.35 262.012 352.984 257.324 357.673L200 414.99V375.342C199.999 368.712 197.366 362.353 192.677 357.664C187.989 352.976 181.63 350.342 175 350.342H101.465C100.467 350.342 100.117 350.241 100 350.191V100.484C100.125 100.434 100.467 100.342 101.465 100.342ZM500 325.342H698.535C699.533 325.342 699.883 325.442 700 325.492V575.199C699.875 575.249 699.533 575.349 698.535 575.349H583.838C577.208 575.349 570.85 577.984 566.161 582.672C561.473 587.36 558.839 593.718 558.838 600.349V639.997L501.514 582.673C496.826 577.984 490.468 575.35 483.838 575.349H351.465C350.467 575.349 350.117 575.249 350 575.199V400.346H448.535C475.872 400.346 500 378.402 500 350.346V325.342Z" fill="#D6111E"/>
</svg>
