<svg width="800" height="800" viewBox="0 0 800 800" fill="none" xmlns="http://www.w3.org/2000/svg">
<g clip-path="url(#clip0_136_2)">
<path d="M244.269 300.088C235.014 312.688 236.381 329.447 247.344 337.489L379.556 439.488C380.127 439.914 380.781 440.172 381.406 440.541C381.692 440.697 381.949 440.867 382.233 440.995C393.652 447.361 408.802 443.986 418.881 432.88C419.166 432.567 419.48 432.353 419.764 432.041L581.817 240.331C591.044 229.98 591.186 215.102 582.217 207.114C573.219 199.113 558.469 201.034 549.27 211.37L397.809 373.183L280.863 291.742C269.925 283.7 253.524 287.43 244.269 300.088Z" fill="#D6111E"/>
<path d="M82.7563 399.992C82.7563 393.001 82.8906 385.998 83.6312 379.12H0.640625C0.135937 385.997 0 393.001 0 399.992C0 407.126 0.135937 414.003 0.640625 420.878H83.6328C82.8906 414.003 82.7563 406.997 82.7563 399.992Z" fill="#D6111E"/>
<path d="M799.373 379.12H716.383H715.5V420.878H716.383H799.373C799.88 414.003 800 406.997 800 399.992C800 393.001 799.88 385.997 799.373 379.12Z" fill="#D6111E"/>
<path d="M229.539 132.395C237.377 127.442 245.388 122.758 253.517 118.614C254.641 118.058 255.595 117.505 256.691 117.091L215.331 45.2188C204.989 50.4734 194.894 56.2688 185.105 62.6031L226.488 134.475C227.469 133.778 228.564 133.094 229.539 132.395Z" fill="#D6111E"/>
<path d="M45.2688 215.315L117.113 256.676L134.497 226.48L62.6251 185.089C56.2751 194.884 50.4875 204.95 45.2688 215.315Z" fill="#D6111E"/>
<path d="M681.4 546.469C677.1 554.599 672.559 562.6 667.461 570.316C666.778 571.299 666.059 572.394 665.383 573.363L737.255 614.722C743.605 604.941 749.392 595.019 754.758 584.681L683.052 543.178C682.497 544.263 681.934 545.374 681.4 546.469Z" fill="#D6111E"/>
<path d="M118.628 546.341L116.977 543.18L45.2688 584.541C50.3657 594.906 56.2751 604.942 62.6251 614.723L134.497 573.364C133.82 572.395 133.102 571.3 132.417 570.317C127.47 562.6 122.778 554.598 118.628 546.341Z" fill="#D6111E"/>
<path d="M754.759 215.316C749.514 204.952 743.605 194.886 737.256 185.091L665.384 226.48L682.903 256.677L754.759 215.316Z" fill="#D6111E"/>
<path d="M229.539 667.433C228.564 666.748 227.469 666.051 226.486 665.354L185.103 737.226C194.892 743.576 204.987 749.5 215.33 754.767L256.689 682.879C255.592 682.483 254.639 681.912 253.516 681.37C245.387 677.214 237.376 672.544 229.539 667.433Z" fill="#D6111E"/>
<path d="M543.188 116.934L573.394 134.475L614.775 62.6031C604.987 56.2688 595.042 50.4734 584.712 45.2188L543.188 116.934Z" fill="#D6111E"/>
<path d="M379.12 716.367V799.245C386.013 799.872 393.003 800 400 800C407.006 800 414.003 799.872 420.888 799.245V716.367V715.5H379.12V716.367Z" fill="#D6111E"/>
<path d="M420.888 83.6312V0.753125C414.003 0.128125 407.005 0 400 0C393.003 0 386.013 0.128125 379.12 0.753125V83.6312V84.5H420.888V83.6312Z" fill="#D6111E"/>
<path d="M543.188 683.037L584.712 754.767C595.042 749.37 604.987 743.576 614.775 737.226L573.394 665.354L543.188 683.037Z" fill="#D6111E"/>
</g>
<defs>
<clipPath id="clip0_136_2">
<rect width="800" height="800" fill="white"/>
</clipPath>
</defs>
</svg>
