<svg width="24" height="24" viewBox="0 0 24 24" fill="none" xmlns="http://www.w3.org/2000/svg">
<path d="M5.46147 7.15116C6.95899 7.15116 7.25892 5.98722 7.25892 5.35239V4.73838C7.25892 4.10355 6.95899 2.93994 5.46147 2.93994C3.96395 2.93994 3.66406 4.10355 3.66406 4.73838V5.35239C3.66406 5.98722 3.96395 7.15116 5.46147 7.15116Z" fill="#EFA834"/>
<path d="M9.9732 11.363L8.59521 9.11736C8.19162 8.45876 7.66909 7.94482 6.92794 7.94482H5.79834H4.18985C2.98033 7.94482 2 8.9836 2 10.2648V16.936H3.48041V23.999H4.91319L5.79838 17.5642L6.68349 23.999H8.11627V13.7943V12.1138L9.32842 13.5142L11.6273 11.911V10.5564L9.9732 11.363Z" fill="#EFA834"/>
<path d="M10.1524 5.47245C11.7993 5.47245 12.1291 4.19244 12.1291 3.49432V2.81908C12.1291 2.12095 11.7993 0.841309 10.1524 0.841309C8.50557 0.841309 8.17578 2.12095 8.17578 2.81908V3.49432C8.17578 4.19244 8.50557 5.47245 10.1524 5.47245Z" fill="#212529"/>
<path d="M15.1139 10.1043L13.5986 7.63467C13.1547 6.9104 12.5801 6.34521 11.765 6.34521H10.5228H8.75391C7.42379 6.34521 6.3457 7.48758 6.3457 8.89654V16.233H7.97373V24.0002H9.54938L10.5228 16.9238L11.4962 24.0002H13.0719V12.7779V10.9299L14.4049 12.47L16.933 10.7069V9.21724L15.1139 10.1043Z" fill="#212529"/>
<path d="M14.8511 4.79911C16.5576 4.79911 16.8994 3.47268 16.8994 2.74923V2.0495C16.8994 1.32605 16.5576 0 14.8511 0C13.1445 0 12.8027 1.32605 12.8027 2.0495V2.74923C12.8027 3.47268 13.1445 4.79911 14.8511 4.79911Z" fill="black"/>
<path d="M19.9964 9.599L18.4261 7.03984C17.9661 6.2893 17.3707 5.70361 16.526 5.70361H15.2387H13.4057C12.0273 5.70361 10.9102 6.88741 10.9102 8.34747V15.95H12.5972V23.999H14.23L15.2388 16.6659L16.2475 23.999H17.8803V12.3697V10.4545L19.2616 12.0505L21.8814 10.2234V8.67981L19.9964 9.599Z" fill="black"/>
</svg>
