<svg width="800" height="800" viewBox="0 0 800 800" fill="none" xmlns="http://www.w3.org/2000/svg">
<path d="M797.934 175.43C794.328 157.264 786.273 140.641 775.025 126.908C772.653 123.916 770.175 121.236 767.489 118.556C747.559 98.5282 719.588 86.0344 689.03 86.0344H110.97C80.4125 86.0344 52.5406 98.5282 32.5172 118.556C29.8375 121.236 27.3594 123.916 24.9812 126.908C13.7266 140.639 5.67187 157.264 2.16563 175.43C0.725 182.441 0 189.686 0 197.011V603C0 618.575 3.30312 633.547 9.19375 647.067C14.6578 659.973 22.7141 671.652 32.5156 681.444C35 683.922 37.4672 686.2 40.1594 688.466C59.3562 704.364 84.1359 713.966 110.97 713.966H689.03C715.873 713.966 740.761 704.364 759.847 688.366C762.531 686.2 765.011 683.922 767.489 681.444C777.286 671.652 785.341 659.973 790.917 647.067V646.967C796.806 633.447 799.998 618.575 799.998 603.002V197.011C800 189.686 799.286 182.441 797.934 175.43ZM72.6703 158.705C82.5844 148.802 95.8984 142.806 110.97 142.806H689.03C704.102 142.806 717.533 148.802 727.33 158.705C729.083 160.469 730.734 162.434 732.192 164.388L429.213 428.442C420.856 435.766 410.534 439.383 400 439.383C389.572 439.383 379.256 435.766 370.789 428.442L67.925 164.275C69.2656 162.322 70.9172 160.469 72.6703 158.705ZM56.7719 603V223.023L276.028 414.297L56.8828 605.367C56.7719 604.642 56.7719 603.827 56.7719 603ZM689.03 657.183H110.97C101.156 657.183 91.9734 654.603 84.1359 650.07L315.352 448.572L336.937 467.35C355.002 483.047 377.606 490.997 400 490.997C422.509 490.997 445.113 483.047 463.175 467.35L484.75 448.572L715.875 650.07C708.027 654.603 698.844 657.183 689.03 657.183ZM743.228 603C743.228 603.827 743.228 604.642 743.122 605.367L523.978 414.408L743.228 223.125V603Z" fill="#D6111E"/>
</svg>
