<svg width="18" height="16" viewBox="0 0 18 16" fill="none" xmlns="http://www.w3.org/2000/svg">
<path d="M14.905 9.91761C16.615 9.91761 18 11.2793 18 12.9593C18 14.6383 16.615 16 14.905 16C13.196 16 11.81 14.6383 11.81 12.9593C11.81 11.2793 13.196 9.91761 14.905 9.91761ZM7.27496 11.6622C8.02395 11.6622 8.63195 12.2595 8.63195 12.9954C8.63195 13.7302 8.02395 14.3285 7.27496 14.3285H1.35699C0.607997 14.3285 0 13.7302 0 12.9954C0 12.2595 0.607997 11.6622 1.35699 11.6622H7.27496ZM3.09498 0C4.80497 0 6.18997 1.36169 6.18997 3.0407C6.18997 4.72071 4.80497 6.08239 3.09498 6.08239C1.38599 6.08239 0 4.72071 0 3.0407C0 1.36169 1.38599 0 3.09498 0ZM16.644 1.70849C17.392 1.70849 18 2.30583 18 3.0407C18 3.77656 17.392 4.3739 16.644 4.3739H10.726C9.97704 4.3739 9.36905 3.77656 9.36905 3.0407C9.36905 2.30583 9.97704 1.70849 10.726 1.70849H16.644Z" fill="white"/>
</svg>
