<svg width="42" height="42" viewBox="0 0 42 42" fill="none" xmlns="http://www.w3.org/2000/svg">
<path d="M10.5 28.5L9 30L8.5 31.5L6.5 33.5L5.5 35V36L6.5 37.5L8 38L10 38.5H29.5L32.5 37.5L34.5 35.5L36 33L36.5 31V29L35.5 26.5L33 24L31.5 23L30.5 22.5L29 22L28 22.5L27 23L26 24L25 26L23.5 28L22.5 29L21.5 30L20.5 30.5H19H18L16.5 29.5L15.5 29L14.5 28.5L13 28H11.5L10.5 28.5Z" fill="white"/>
<path fill-rule="evenodd" clip-rule="evenodd" d="M26 2H11.3324C4.55379 2 0 6.75623 0 13.8334V30.1666C0 37.2438 4.55379 42 11.3324 42H28.6656C35.4462 42 40 37.2438 40 30.1666V16H39V30.1666C39 33.4886 37.9345 36.1858 36.1533 38.0456C34.3758 39.9016 31.8133 41 28.6656 41H11.3324C8.18573 41 5.62378 39.9016 3.84647 38.0456C2.06554 36.1858 1 33.4887 1 30.1666V13.8334C1 10.5113 2.06554 7.81419 3.84647 5.95439C5.62378 4.09838 8.18573 3 11.3324 3H26V2ZM30.8732 23.1001C28.7293 21.7626 27.0741 23.6409 26.6276 24.2415C26.2715 24.7214 25.9566 25.2424 25.6375 25.7704L25.6373 25.7707C25.5709 25.8807 25.5043 25.9909 25.437 26.1011L25.4212 26.1274C24.4716 27.7003 23.3812 29.5064 21.5012 30.5593C18.754 32.0805 16.6684 30.6791 15.1681 29.6594C14.605 29.2797 14.0579 28.9205 13.5129 28.6811C12.1695 28.1011 10.9608 28.7616 9.16681 31.0402C8.22559 32.2312 7.29241 33.4118 6.34717 34.5882C5.78203 35.2921 5.91678 36.3777 6.67901 36.8483C7.89576 37.5975 9.37999 38 11.0573 38H27.9128C28.864 38 29.8173 37.87 30.7264 37.5728C32.7737 36.904 34.3987 35.3726 35.2474 33.3498C35.9634 31.6491 36.3113 29.5851 35.6416 27.8679C35.4184 27.2982 35.0845 26.7678 34.6159 26.3013C33.3871 25.0815 32.2388 23.9422 30.8732 23.1001ZM24.581 25.5843C23.6062 27.1988 22.6372 28.7761 21.0146 29.6857C19.8823 30.312 18.9448 30.3201 18.1307 30.0976C17.2622 29.8601 16.4958 29.3527 15.7302 28.8324L15.7272 28.8304C15.1722 28.4561 14.5545 28.0464 13.9151 27.7656L13.9151 27.7655L13.9093 27.763C12.9514 27.3495 11.9913 27.3882 11.0312 27.9101C10.1506 28.3888 9.29673 29.2587 8.38151 30.4211C7.44016 31.6122 6.50969 32.7894 5.56761 33.9619L5.56742 33.9621C4.66685 35.0837 4.82589 36.8794 6.15368 37.6992L6.15468 37.6998C7.54834 38.558 9.21883 39 11.0573 39H27.9128C28.954 39 30.0138 38.8578 31.0369 38.5233C33.371 37.7609 35.2127 36.0168 36.1693 33.7373C36.9339 31.921 37.377 29.5654 36.5733 27.5046L36.5727 27.503C36.3016 26.8113 35.8934 26.1619 35.3214 25.5926L35.3204 25.5916L35.2835 25.5549C34.0831 24.3633 32.8648 23.1539 31.4003 22.2503C29.9848 21.3683 28.6565 21.543 27.6583 22.0538C26.7212 22.5334 26.0856 23.2945 25.8251 23.6449L25.8246 23.6456C25.4374 24.1674 25.0931 24.7373 24.7739 25.2658C24.7094 25.3727 24.6459 25.4778 24.5832 25.5805L24.581 25.5843ZM12.9977 9C9.68745 9 7 11.6919 7 15C7 18.3081 9.68745 21 12.9977 21C16.3057 21 18.9954 18.3084 18.9954 15C18.9954 11.6916 16.3057 9 12.9977 9ZM12.9977 10C10.2404 10 8 12.2435 8 15C8 17.7565 10.2404 20 12.9977 20C15.753 20 17.9954 17.7565 17.9954 15C17.9954 12.2435 15.753 10 12.9977 10Z" fill="white"/>
<rect x="24" y="2" width="6" height="1" rx="0.5" fill="white"/>
<rect x="39" y="18" width="6" height="1" rx="0.5" transform="rotate(-90 39 18)" fill="white"/>
<rect x="31" y="5" width="11" height="1" rx="0.5" fill="white"/>
<rect x="36" y="11" width="11" height="1" rx="0.5" transform="rotate(-90 36 11)" fill="white"/>
</svg>
