<svg width="18" height="18" viewBox="0 0 18 18" fill="none" xmlns="http://www.w3.org/2000/svg">
<path d="M9 15.1875C7.67325 15.1875 6.7185 15.1868 5.97412 15.1147C5.23828 15.0433 4.76756 14.9062 4.39191 14.6702C3.96256 14.4004 3.5995 14.0374 3.32972 13.6081C3.09375 13.2324 2.95659 12.7617 2.88534 12.0259C2.81316 11.2815 2.8125 10.3268 2.8125 9C2.8125 7.67325 2.81316 6.7185 2.88534 5.97412C2.95659 5.23828 3.09375 4.76756 3.32972 4.39191C3.59949 3.96255 3.96255 3.59949 4.39191 3.32972C4.76756 3.09375 5.23828 2.95659 5.97412 2.88534C6.71841 2.81316 7.67316 2.8125 9 2.8125C10.3268 2.8125 11.2815 2.81316 12.0259 2.88534C12.7617 2.95659 13.2324 3.09375 13.6081 3.32972C14.0374 3.5995 14.4004 3.96256 14.6702 4.39191C14.9062 4.76756 15.0433 5.23828 15.1147 5.97412C15.1868 6.7185 15.1875 7.67325 15.1875 9C15.1875 10.3268 15.1868 11.2815 15.1147 12.0259C15.0433 12.7617 14.9062 13.2324 14.6702 13.6081C14.4004 14.0374 14.0374 14.4004 13.6081 14.6702C13.2324 14.9062 12.7617 15.0433 12.0259 15.1147C11.2815 15.1868 10.3268 15.1875 9 15.1875Z" stroke="white"/>
<path d="M9 11.8125C10.5533 11.8125 11.8125 10.5533 11.8125 9C11.8125 7.4467 10.5533 6.1875 9 6.1875C7.4467 6.1875 6.1875 7.4467 6.1875 9C6.1875 10.5533 7.4467 11.8125 9 11.8125Z" stroke="white"/>
<path d="M12.6562 6.1875C13.1222 6.1875 13.5 5.80974 13.5 5.34375C13.5 4.87776 13.1222 4.5 12.6562 4.5C12.1903 4.5 11.8125 4.87776 11.8125 5.34375C11.8125 5.80974 12.1903 6.1875 12.6562 6.1875Z" fill="white"/>
</svg>
