<svg width="18" height="18" viewBox="0 0 18 18" fill="none" xmlns="http://www.w3.org/2000/svg">
<path fill-rule="evenodd" clip-rule="evenodd" d="M5.98898 6.3805V16.0001H3.00023V6.3805H5.98898ZM10.4943 6.36272V6.92956C10.9306 6.60102 11.4338 6.41003 12.1967 6.41003C14.6816 6.41003 15 8.66073 15 10.6214V15.9998H11.9962V10.8895C11.9962 10.0301 11.7326 9.86712 11.2453 9.86712C10.7819 9.86712 10.4943 10.0388 10.4943 10.8895V15.9998H7.49057V6.36272H10.4943ZM4.49438 2C5.31891 2 5.98876 2.78236 5.98876 3.74344C5.98876 4.70453 5.31891 5.48688 4.49437 5.48688C3.6706 5.48688 3 4.70453 3 3.74343C3 2.78236 3.67059 2 4.49438 2Z" fill="white"/>
</svg>
