<svg width="800" height="800" viewBox="0 0 800 800" fill="none" xmlns="http://www.w3.org/2000/svg">
<path d="M551.304 391.264L550.92 392.272C551.04 391.968 551.136 391.656 551.256 391.352L551.304 391.264Z" fill="#D6111E"/>
<path d="M400.016 0C268.192 0 160 107.84 160 239.376C160 290.352 176.32 337.856 203.84 376.768L202.856 375.232L356.504 640.816L357.28 641.832C363.472 649.912 369.6 656.424 377.016 661.328C384.432 666.232 393.928 669.328 403.256 668.392C421.896 666.52 432.728 653.64 442.736 640.072L443.36 639.232L612.752 350.96L612.888 350.72C616.944 343.4 619.88 336.016 622.392 328.864C634.009 300.459 639.989 270.065 640 239.376C640 107.84 531.84 0 400.016 0ZM400.016 40C510.048 40 600 129.744 600 239.376C600.007 264.983 595.007 290.344 585.28 314.032L585.08 314.528L584.904 315.048C582.8 321.104 580.512 326.6 577.872 331.368L410.2 616.696C402.784 626.464 397.6 628.776 399.264 628.6C400.12 628.52 400.912 629.192 399.08 627.976C397.328 626.816 393.752 623.416 389.512 618.008L237.04 354.4L236.504 353.656C213.52 321.176 200 281.84 200 239.376C200 129.752 289.984 40 400.016 40ZM400.016 102.8C324.32 102.8 263.096 163.808 263.096 239.376C263.096 314.944 324.328 375.952 400.016 375.952C475.704 375.952 536.904 314.936 536.904 239.376C536.904 163.808 475.704 102.8 400.016 102.8ZM400.016 142.8C454.552 142.8 496.904 185.08 496.904 239.376C496.904 293.672 454.56 335.952 400.016 335.952C345.472 335.952 303.096 293.664 303.096 239.376C303.096 185.08 345.48 142.8 400.016 142.8Z" fill="#D6111E"/>
<path d="M272.048 552.456C159.04 568.424 80 606.624 80 662.856C80 738.6 212.064 800 400 800C587.936 800 720 738.6 720 662.856C720 606.624 640.968 568.424 527.968 552.456L512.312 579.112C597.48 590.928 656 615.76 656 644.576C656 684.976 541.384 717.72 400 717.72C258.616 717.72 144 684.976 144 644.576C143.992 615.856 202.128 591.048 287.56 579.184C282.4 570.272 277.216 561.376 272.048 552.456Z" fill="#D6111E"/>
</svg>
