<svg width="18" height="18" viewBox="0 0 18 18" fill="none" xmlns="http://www.w3.org/2000/svg">
<path d="M8.99997 0C6.03393 0 3.59961 2.4264 3.59961 5.38596C3.59961 6.53292 3.96681 7.60176 4.58601 8.47728L4.56387 8.44272L8.02095 14.4184L8.03841 14.4412C8.17773 14.623 8.31561 14.7695 8.48247 14.8799C8.64933 14.9902 8.86299 15.0599 9.07287 15.0388C9.49227 14.9967 9.73599 14.7069 9.96117 14.4016L9.97521 14.3827L13.7865 7.8966L13.7896 7.8912C13.8808 7.7265 13.9469 7.56036 14.0034 7.39944C14.2648 6.76033 14.3994 6.07646 14.3996 5.38596C14.3996 2.4264 11.966 0 8.99997 0ZM8.99997 0.9C11.4757 0.9 13.4996 2.91924 13.4996 5.38596C13.4998 5.96212 13.3873 6.53274 13.1684 7.06572L13.1639 7.07688L13.1599 7.08858C13.1126 7.22484 13.0611 7.3485 13.0017 7.45578L9.22911 13.8757C9.06225 14.0954 8.94561 14.1475 8.98305 14.1435C9.00231 14.1417 9.02013 14.1568 8.97891 14.1295C8.93949 14.1034 8.85903 14.0269 8.76363 13.9052L5.33301 7.974L5.32095 7.95726C4.80381 7.22646 4.49961 6.3414 4.49961 5.38596C4.49961 2.91942 6.52425 0.9 8.99997 0.9ZM8.99997 2.313C7.29681 2.313 5.91927 3.68568 5.91927 5.38596C5.91927 7.08624 7.29699 8.45892 8.99997 8.45892C10.7029 8.45892 12.0799 7.08606 12.0799 5.38596C12.0799 3.68568 10.7029 2.313 8.99997 2.313ZM8.99997 3.213C10.227 3.213 11.1799 4.1643 11.1799 5.38596C11.1799 6.60762 10.2272 7.55892 8.99997 7.55892C7.77273 7.55892 6.81927 6.60744 6.81927 5.38596C6.81927 4.1643 7.77291 3.213 8.99997 3.213Z" fill="#EFA834"/>
<path d="M6.12088 12.4302C3.5782 12.7895 1.7998 13.649 1.7998 14.9142C1.7998 16.6184 4.77124 17.9999 8.9998 17.9999C13.2284 17.9999 16.1998 16.6184 16.1998 14.9142C16.1998 13.649 14.4216 12.7895 11.8791 12.4302L11.5268 13.0299C13.4431 13.2958 14.7598 13.8545 14.7598 14.5029C14.7598 15.4119 12.1809 16.1486 8.9998 16.1486C5.81866 16.1486 3.2398 15.4119 3.2398 14.5029C3.23962 13.8567 4.54768 13.2985 6.4699 13.0316C6.3538 12.831 6.23716 12.6309 6.12088 12.4302Z" fill="#EFA834"/>
</svg>
