<svg width="18" height="18" viewBox="0 0 18 18" fill="none" xmlns="http://www.w3.org/2000/svg">
<g clip-path="url(#clip0_120_2)">
<path d="M8.52398 0.47475C8.32598 0.47475 8.13023 0.4815 7.93561 0.493875L8.00761 1.61663C8.3515 1.5944 8.69647 1.5944 9.04036 1.61663L9.11236 0.493875C8.91649 0.481175 8.72026 0.474797 8.52398 0.47475ZM6.76898 0.64575C6.37973 0.723375 5.99948 0.82575 5.63048 0.9495L5.99161 2.016C6.31448 1.90575 6.64636 1.81688 6.98611 1.74938L6.76898 0.646875V0.64575ZM11.4175 0.950625C11.0454 0.824494 10.6655 0.723024 10.2801 0.646875L10.0619 1.74938C10.4016 1.81688 10.7335 1.90688 11.0564 2.016L11.4175 0.950625ZM13.5246 1.99125C13.1981 1.77271 12.8576 1.57579 12.5054 1.40175L12.007 2.40975C12.3164 2.56275 12.6145 2.736 12.8991 2.92613L13.5246 1.99125ZM4.54148 1.40175C4.18823 1.57613 3.84848 1.773 3.52336 1.99125L4.14886 2.925C4.43479 2.73415 4.73279 2.56204 5.04098 2.40975L4.54148 1.40175ZM2.58961 2.70788C2.29486 2.96663 2.01586 3.24563 1.75711 3.54038L2.60311 4.28288C2.83036 4.02413 3.07336 3.78113 3.33211 3.55388L2.58961 2.70788ZM15.2909 3.54038C15.0317 3.24513 14.7536 2.96704 14.4584 2.70788L13.7159 3.55388C13.9746 3.78113 14.2187 4.02413 14.4449 4.28288L15.2909 3.54038ZM16.597 5.49225C16.423 5.14035 16.226 4.80025 16.0075 4.47413L15.0737 5.09963C15.2639 5.38425 15.436 5.68237 15.589 5.99175L16.597 5.49225ZM1.04048 4.47413C0.822234 4.79925 0.624234 5.139 0.450984 5.49338L1.45898 5.99175C1.61198 5.68237 1.78523 5.38425 1.97536 5.09963L1.04048 4.47413ZM-0.000141137 6.58125C-0.126275 6.95329 -0.227746 7.33324 -0.303891 7.71863L0.798609 7.93688C0.866109 7.59713 0.956109 7.26525 1.06523 6.94238L-0.000141137 6.58125ZM17.353 7.71975C17.2769 7.33398 17.1754 6.95365 17.0492 6.58125L15.9827 6.94238C16.093 7.26525 16.1819 7.59713 16.2494 7.93688L17.3519 7.71863L17.353 7.71975ZM-0.456891 8.88638C-0.482204 9.27822 -0.482204 9.67128 -0.456891 10.0631L0.665859 9.99112C0.643634 9.64723 0.643634 9.30227 0.665859 8.95838L-0.456891 8.88638ZM17.524 9.47475C17.5239 9.27847 17.5176 9.08224 17.5049 8.88638L16.3821 8.95838C16.4044 9.30227 16.4044 9.64723 16.3821 9.99112L17.5049 10.0631C17.5176 9.86726 17.5239 9.67103 17.524 9.47475ZM-0.305016 11.2298C-0.227391 11.619 -0.125016 11.9993 -0.00126616 12.3683L1.06523 12.0071C0.954586 11.6819 0.865518 11.3496 0.798609 11.0126L-0.303891 11.2309L-0.305016 11.2298ZM17.0481 12.3683C17.1741 11.9993 17.2754 11.619 17.3519 11.2309L16.2494 11.0126C16.1819 11.3524 16.0919 11.6843 15.9827 12.0071L17.0481 12.3683ZM0.450984 13.4573C0.625068 13.8091 0.821989 14.1492 1.04048 14.4754L1.97423 13.8499C1.78319 13.5641 1.61107 13.2661 1.45898 12.9578L0.450984 13.4561V13.4573ZM16.0075 14.4754C16.2257 14.1503 16.4237 13.8105 16.597 13.4561L15.589 12.9578C15.436 13.2671 15.2627 13.5653 15.0726 13.8499L16.0075 14.4754ZM1.75711 15.4091C2.01586 15.7039 2.29486 15.9829 2.58961 16.2416L3.33211 15.3956C3.07355 15.1687 2.83003 14.9252 2.60311 14.6666L1.75711 15.4091ZM14.4584 16.2416C14.7531 15.9829 15.0321 15.7039 15.2909 15.4091L14.4449 14.6666C14.2187 14.9254 13.9746 15.1695 13.7159 15.3956L14.4584 16.2416ZM12.5065 17.5478C12.8597 17.3734 13.1995 17.1765 13.5246 16.9583L12.8991 16.0245C12.6132 16.2153 12.3152 16.3875 12.007 16.5398L12.5054 17.5478H12.5065ZM3.52336 16.9583C3.84848 17.1765 4.18823 17.3745 4.54261 17.5478L5.04098 16.5398C4.73265 16.3873 4.43463 16.2148 4.14886 16.0234L3.52336 16.9583ZM5.63048 17.9989C5.99948 18.1249 6.37973 18.2261 6.76786 18.3026L6.98611 17.2001C6.64911 17.1332 6.31689 17.0441 5.99161 16.9335L5.63048 17.9989ZM10.279 18.3037C10.6648 18.2277 11.0451 18.1262 11.4175 18L11.0564 16.9335C10.7311 17.0441 10.3989 17.1332 10.0619 17.2001L10.2801 18.3026L10.279 18.3037ZM7.93561 18.4556C8.32745 18.481 8.72052 18.481 9.11236 18.4556L9.04036 17.3329C8.69647 17.3551 8.3515 17.3551 8.00761 17.3329L7.93561 18.4556ZM9.08648 5.53725C9.08648 5.38807 9.02722 5.24499 8.92173 5.1395C8.81624 5.03401 8.67317 4.97475 8.52398 4.97475C8.3748 4.97475 8.23173 5.03401 8.12624 5.1395C8.02075 5.24499 7.96148 5.38807 7.96148 5.53725V8.91225H4.58648C4.4373 8.91225 4.29423 8.97151 4.18874 9.077C4.08325 9.18249 4.02398 9.32557 4.02398 9.47475C4.02398 9.62393 4.08325 9.76701 4.18874 9.8725C4.29423 9.97799 4.4373 10.0373 4.58648 10.0373H7.96148V13.4123C7.96148 13.5614 8.02075 13.7045 8.12624 13.81C8.23173 13.9155 8.3748 13.9748 8.52398 13.9748C8.67317 13.9748 8.81624 13.9155 8.92173 13.81C9.02722 13.7045 9.08648 13.5614 9.08648 13.4123V10.0373H12.4615C12.6107 10.0373 12.7537 9.97799 12.8592 9.8725C12.9647 9.76701 13.024 9.62393 13.024 9.47475C13.024 9.32557 12.9647 9.18249 12.8592 9.077C12.7537 8.97151 12.6107 8.91225 12.4615 8.91225H9.08648V5.53725Z" fill="white"/>
</g>
<defs>
<clipPath id="clip0_120_2">
<rect width="18" height="18" fill="white"/>
</clipPath>
</defs>
</svg>
