<svg width="21" height="15" viewBox="0 0 21 15" fill="none" xmlns="http://www.w3.org/2000/svg">
<path d="M14.8172 0.912928L20.6271 6.67359L20.6757 6.71867C20.8701 6.91144 20.9832 7.16566 21 7.46604L20.999 7.56701C20.9849 7.80495 20.894 8.03226 20.7148 8.23595L20.647 8.30593L14.8172 14.0874C14.3861 14.515 13.689 14.515 13.2579 14.0874C12.8241 13.6574 12.8241 12.9581 13.2578 12.5281L17.2831 8.53576L1.10497 8.53616C0.495746 8.53616 0 8.04456 0 7.43582C0 6.82707 0.495751 6.33547 1.10496 6.33547L17.1532 6.33507L13.2579 2.47233C12.8241 2.04225 12.8241 1.34301 13.2579 0.912928C13.689 0.485404 14.3861 0.485404 14.8172 0.912928Z" fill="#D6111E"/>
</svg>
