<svg width="800" height="800" viewBox="0 0 800 800" fill="none" xmlns="http://www.w3.org/2000/svg">
<path d="M766.25 457.5L572.5 651.25C550 674.687 516.25 691.25 480.625 691.25H335C316.562 691.25 300 698.437 287.812 710.625L239.375 756.25H18.75L230.938 541.25L230.625 540.938C253.125 518.438 284.687 504.375 319.375 504.062H528.75C550.937 504.062 568.75 521.875 568.75 544.062C568.75 566.25 550.937 584.062 528.75 584.062H360C352.812 583.437 346.875 589.375 346.875 597.188C346.875 605 352.813 610.625 360.313 610.625H528.125C545.937 611.25 562.813 603.75 575.313 591.25C587.813 578.75 594.688 561.562 594.688 544.062C595.313 535.938 593.125 527.187 590.312 519.687L709.375 400.625C725.312 384.687 750.313 384.688 765.938 400C782.188 415.938 781.875 441.875 766.25 457.5ZM215.625 256.25C215.625 140 308.75 45.625 425 45.625C541.25 45.625 635 139.375 635 255.625C635 371.875 540.938 465.625 425.313 465.625C309.688 465.625 215.625 371.875 215.625 256.25ZM452.812 304.688C452.812 319.063 440.937 329.688 416.875 329.688C394.375 329.688 373.437 321.875 360 315.313L349.375 357.813C361.563 364.688 386.875 371.25 411.875 371.25V403.125H440.938V370.313C483.438 360.938 503.438 335.625 503.438 302.813C503.438 270 485 249.688 445.312 235.313C416.563 223.438 403.125 217.813 403.125 203.125C403.125 192.5 414.687 181.875 435.938 181.875C457.188 181.875 472.812 188.438 482.5 192.5L494.375 150.938C481.562 144.063 464.063 139.062 440 139.062V106.562H410.938V141.25C372.188 149.063 350.938 174.063 350.938 206.25C350.938 240.938 375 260.312 413.438 273.75C441.25 284.375 452.812 290.313 452.812 304.688Z" fill="#D6111E"/>
</svg>
