<svg width="600" height="600" viewBox="0 0 600 600" fill="none" xmlns="http://www.w3.org/2000/svg">
<g clip-path="url(#clip0_141_2)">
<path d="M210.001 0.000663757C94.4791 0.000663757 0.000976562 94.5104 0.000976562 210C0.000976562 325.49 94.4791 420 210.001 420C325.523 420 420.001 325.49 420.001 210C420.001 94.5104 325.523 0.000663757 210.001 0.000663757ZM210.001 79.9759C282.242 79.976 339.976 137.7 339.976 210C339.976 282.3 282.242 340.025 210.001 340.025C137.76 340.025 80.0245 282.3 80.0245 210C80.0245 137.7 137.76 79.9759 210.001 79.9759Z" fill="#D6111E"/>
<path d="M330.025 290.046C324.77 290.045 319.567 291.077 314.711 293.085C309.856 295.093 305.444 298.038 301.727 301.75C294.222 309.247 290.003 319.417 290 330.022C289.997 340.627 294.209 350.8 301.711 358.301L531.686 588.279C539.188 595.78 549.363 599.996 559.975 599.999C570.587 600.002 580.765 595.792 588.271 588.296C595.777 580.799 599.996 570.629 600 560.024C600.003 549.418 595.791 539.246 588.29 531.744L358.313 301.769C350.812 294.267 340.636 290.05 330.025 290.046Z" fill="#D6111E"/>
<path d="M299.875 224.992C298.561 224.992 297.26 224.734 296.046 224.232C294.833 223.729 293.73 222.993 292.801 222.065C291.872 221.137 291.135 220.035 290.632 218.822C290.129 217.609 289.87 216.309 289.87 214.996C289.87 188.533 277.562 163.601 256.556 147.512C235.55 131.423 208.278 126.035 182.734 132.927C180.172 133.618 177.441 133.264 175.141 131.943C172.841 130.622 171.161 128.442 170.469 125.882C170.126 124.615 170.037 123.292 170.206 121.99C170.375 120.688 170.799 119.432 171.454 118.294C172.109 117.156 172.981 116.158 174.022 115.357C175.063 114.556 176.251 113.967 177.519 113.625C209.061 105.114 242.791 111.779 268.726 131.643C294.66 151.508 309.877 182.331 309.877 214.996C309.877 217.647 308.823 220.19 306.947 222.064C305.071 223.939 302.527 224.992 299.875 224.992Z" fill="#D6111E"/>
</g>
<defs>
<clipPath id="clip0_141_2">
<rect width="600" height="600" fill="white"/>
</clipPath>
</defs>
</svg>
