<svg width="800" height="800" viewBox="0 0 800 800" fill="none" xmlns="http://www.w3.org/2000/svg">
<path d="M797.6 492.8C794.4 456 786.4 427.733 773.6 408C760.8 386.666 742.133 374.4 717.6 371.2C702.133 329.066 678.533 291.6 646.8 258.8C615.067 226 577.867 200.8 535.2 183.2C533.067 182.133 532 180.4 532 178C532 175.6 533.067 173.866 535.2 172.8C559.2 163.2 578.4 149.6 592.8 132C607.2 114.4 614.4 94.9331 614.4 73.5998C614.4 47.9998 603.733 25.0665 582.4 4.7998C580.8 2.66646 578.8 2.26646 576.4 3.5998C574 4.93313 573.333 6.66646 574.4 8.7998C580.8 21.0665 584 34.3998 584 48.7998C584 66.3998 578.4 82.1331 567.2 95.9998C557.067 108.266 541.867 120 521.6 131.2C493.867 146.133 464.267 152 432.8 148.8C422.133 147.733 411.2 147.2 400 147.2C352.533 147.2 306.933 157.333 263.2 177.6C221.067 196.8 184.267 223.333 152.8 257.2C121.333 291.066 97.8666 329.066 82.3999 371.2C57.8666 374.4 39.1999 386.666 26.3999 408C13.5999 427.733 5.59992 456 2.39992 492.8C-1.33341 534.4 4.53326 565.333 19.9999 585.6C33.8666 603.733 55.7333 613.6 85.5999 615.2C105.867 652.533 135.6 683.333 174.8 707.6C214 731.866 258.133 746.133 307.2 750.4C311.467 750.933 314.4 752.8 316 756C319.2 762.4 323.867 767.333 330 770.8C336.133 774.266 342.667 776 349.6 776H430.4C440.533 776 449.467 772.133 457.2 764.4C464.933 756.666 468.8 747.466 468.8 736.8C468.8 726.133 465.067 716.933 457.6 709.2C450.133 701.466 441.067 697.6 430.4 697.6H349.6C342.667 697.6 336.267 699.333 330.4 702.8C324.533 706.266 320 710.933 316.8 716.8C314.667 720.533 311.2 722.133 306.4 721.6C268 716.266 233.2 704.133 202 685.2C170.8 666.266 146.4 641.866 128.8 612C130.933 611.466 132.8 610.666 134.4 609.6C139.733 608.533 144.4 596.8 148.4 574.4C152.4 552 154.4 525.066 154.4 493.6C154.4 463.733 152.667 437.866 149.2 416C145.733 394.133 141.333 381.6 136 378.4C147.2 338.4 167.2 305.066 196 278.4C224.8 251.733 262.133 232.533 308 220.8C329.867 215.466 350.133 214.133 368.8 216.8C390.667 219.466 407.467 228 419.2 242.4C426.667 251.466 430.4 265.066 430.4 283.2C430.4 295.466 427.733 306.933 422.4 317.6C420.267 322.4 421.067 326.666 424.8 330.4C428.533 334.133 432.8 334.933 437.6 332.8C454.133 323.733 467.333 311.866 477.2 297.2C487.067 282.533 492 267.2 492 251.2C492 244.8 491.067 238.4 489.2 232C487.333 225.6 488.933 220.133 494 215.6C499.067 211.066 504.533 210.133 510.4 212.8C547.733 228.266 579.6 250.266 606 278.8C632.4 307.333 651.467 340.533 663.2 378.4C659.467 383.733 656.533 397.066 654.4 418.4C652.267 439.733 651.2 464.266 651.2 492C651.2 515.466 652 536.666 653.6 555.6C655.2 574.533 657.333 588.8 660 598.4C660 601.6 661.067 604.266 663.2 606.4L664 607.2C666.133 609.866 668.8 611.466 672 612C678.4 614.133 689.6 615.2 705.6 615.2C738.133 615.2 762.133 606.133 777.6 588C794.667 568.266 801.333 536.533 797.6 492.8ZM467.2 606.4H334.4C330.667 606.4 327.867 607.866 326 610.8C324.133 613.733 324 616.8 325.6 620C330.933 631.733 340.4 641.466 354 649.2C367.6 656.933 383.067 660.8 400.4 660.8C417.733 660.8 433.333 656.933 447.2 649.2C461.067 641.466 470.667 631.733 476 620C477.6 616.8 477.333 613.733 475.2 610.8C473.067 607.866 470.4 606.4 467.2 606.4ZM247.2 491.2C247.2 504 251.733 514.933 260.8 524C269.867 533.066 280.8 537.6 293.6 537.6C306.4 537.6 317.2 533.066 326 524C334.8 514.933 339.2 504 339.2 491.2C339.2 478.4 334.8 467.6 326 458.8C317.2 450 306.4 445.6 293.6 445.6C280.8 445.6 269.867 450 260.8 458.8C251.733 467.6 247.2 478.4 247.2 491.2ZM461.6 491.2C461.6 504 466.133 514.933 475.2 524C484.267 533.066 495.067 537.6 507.6 537.6C520.133 537.6 530.933 533.066 540 524C549.067 514.933 553.6 504 553.6 491.2C553.6 478.4 549.067 467.6 540 458.8C530.933 450 520.133 445.6 507.6 445.6C495.067 445.6 484.267 450 475.2 458.8C466.133 467.6 461.6 478.4 461.6 491.2Z" fill="#D6111E"/>
</svg>
