<svg width="800" height="800" viewBox="0 0 800 800" fill="none" xmlns="http://www.w3.org/2000/svg">
<g clip-path="url(#clip0_108_46)">
<path d="M800 461.639C800 416.374 774.219 376.761 735.484 357.639V154.839C735.484 69.4581 666.026 0 580.645 0C495.265 0 425.806 69.4581 425.806 154.839V170.09C409.484 167.303 392.516 167.006 375.458 169.652C374.542 169.794 373.639 170.039 372.723 170.194C373.613 165.135 374.194 160.026 374.194 154.839V103.226C374.194 82.8129 358.323 66.0387 338.258 64.6194C312.168 24.5677 267.277 0 219.355 0C141.097 0 77.4194 63.6774 77.4194 141.935V154.839C77.4194 184.323 92.1419 211.858 116.129 228.658V229.394C116.129 261.91 131.277 290.916 154.839 309.845V337.471L97.0452 347.097C40.8129 356.452 0 404.632 0 461.639V567.742H228.232C184.297 584.994 154.839 627.174 154.839 675.665V800H645.161V675.665C645.161 627.174 615.703 584.994 571.768 567.742H800V461.639ZM451.613 154.839C451.613 83.6903 509.497 25.8065 580.645 25.8065C651.794 25.8065 709.677 83.6903 709.677 154.839V348.516C707.445 348.013 705.239 347.471 702.955 347.084L645.161 337.458V309.832C668.723 290.89 683.871 261.897 683.871 229.381L683.781 147.626L665.484 156.052C665.226 156.181 639.445 167.742 580.645 167.742C521.845 167.742 496.065 156.181 495.91 156.116L477.419 147.252V188.632C469.226 183.897 460.555 180.013 451.613 176.839V154.839ZM534.426 245.961C526.039 231.239 515.419 218.348 503.226 207.419V185.419C518.568 189.277 543.871 193.548 580.645 193.548C617.419 193.548 642.723 189.277 658.065 185.419V229.381C658.065 272.077 623.342 306.8 580.645 306.8C576.323 306.8 572.026 306.323 567.742 305.587V286.581C567.742 266.516 553.406 249.755 534.426 245.961ZM556.516 390.039C563.69 372.89 567.742 354.413 567.742 335.484V331.677C572.026 332.219 576.335 332.619 580.645 332.619C594.335 332.619 607.394 329.884 619.355 325.019V346.31L580.645 462.439L556.516 390.039ZM557.574 474.826L522.232 439.484C528.594 433.574 534.232 427.058 539.355 420.155L557.574 474.826ZM641.019 362.916L661.406 366.31L669.858 408.658L603.716 474.813L641.019 362.916ZM379.381 195.148C435.006 186.529 489.368 214.232 514.813 263.935L518.426 270.968H526.31C534.929 270.968 541.935 277.974 541.935 286.581V335.484C541.935 362.116 532.542 387.819 516.116 408.284L516.052 329.123L498.219 336.49C497.935 336.619 468.632 348.387 400 348.387C331.368 348.387 302.065 336.619 301.858 336.529L283.871 328.826V378.335C273.432 356.645 269.058 332.245 271.806 307.677C278.129 251.11 323.368 203.794 379.381 195.148ZM255.858 378.271C258.774 385.806 262.155 393.161 266.232 400.181L243.471 386.516L255.858 378.271ZM219.806 371.29L180.645 341.935V325.006C192.606 329.871 205.665 332.606 219.355 332.606C228.284 332.606 237.032 331.329 245.561 329.058C245.91 336.903 246.748 344.684 248.258 352.323L219.806 371.29ZM272.426 433.974L285.071 441.561C288.877 469.458 302.594 494.168 322.581 512.116V541.935H269.458L258.555 454.774L272.426 433.974ZM332.297 568.826L377.445 604.942L339.394 627.781L304.387 575.265L332.297 568.826ZM348.387 548.632V529.677C363.961 537.445 381.445 541.935 400 541.935C418.555 541.935 436.039 537.458 451.613 529.677V548.632L400 589.923L348.387 548.632ZM467.703 568.813L495.613 575.252L460.606 627.768L422.555 604.929L467.703 568.813ZM400 516.129C350.206 516.129 309.677 475.6 309.677 425.806V365.6C326.542 369.535 355.832 374.194 400 374.194C444.168 374.194 473.458 369.535 490.323 365.6V425.806C490.323 475.6 449.794 516.129 400 516.129ZM116.129 147.252V193.355C107.923 182.374 103.226 168.903 103.226 154.839V141.935C103.226 77.8968 155.316 25.8065 219.355 25.8065C260.568 25.8065 299.071 48.0645 319.819 83.8839L323.548 90.3226H335.484C342.606 90.3226 348.387 96.1032 348.387 103.226V154.839C348.387 162.929 346.761 170.813 343.742 178.4C336.4 181.303 329.329 184.774 322.555 188.748L322.503 147.639L304.206 156.065C303.935 156.181 278.155 167.742 219.355 167.742C160.555 167.742 134.774 156.181 134.619 156.116L116.129 147.252ZM141.935 229.381V185.419C157.277 189.277 182.581 193.548 219.355 193.548C256.129 193.548 281.432 189.277 296.774 185.419V207.548C270 231.716 251.548 264.994 246.645 301.69C237.871 305.032 228.735 306.813 219.355 306.813C176.658 306.8 141.935 272.077 141.935 229.381ZM164.413 362.013L196.258 385.897L159.265 408.103L134.594 366.994L164.413 362.013ZM169.252 541.935H103.226V503.226H77.4194V541.935H25.8065V461.639C25.8065 417.29 57.5484 379.819 101.277 372.542L107.239 371.548L150.413 443.51L166.284 433.987L180.142 454.774L169.252 541.935ZM195.252 541.935L206.929 448.452L188.426 420.697L219.355 402.142L250.271 420.684L231.768 448.439L243.445 541.935H195.252ZM349.742 774.194H258.065V709.677H232.258V774.194H180.645V675.665C180.645 633.355 209.432 597.161 250.658 587.665L277.51 581.471L331.574 662.555L346.929 653.342L360.852 674.219L349.742 774.194ZM424.297 774.194H375.716L387.548 667.716L369.097 640.039L400 621.497L430.916 640.039L412.465 667.716L424.297 774.194ZM619.355 675.665V774.194H567.742V709.677H541.935V774.194H450.258L439.148 674.219L453.071 653.342L468.426 662.555L522.49 581.471L549.342 587.665C590.568 597.161 619.355 633.355 619.355 675.665ZM774.194 541.935H722.581V503.226H696.774V541.935H477.419V512.116C491.987 499.032 503.226 482.361 509.742 463.458L580.645 534.374L697.884 417.148L688.619 370.852L698.723 372.542C742.452 379.832 774.194 417.303 774.194 461.639V541.935Z" fill="#D6111E"/>
</g>
<defs>
<clipPath id="clip0_108_46">
<rect width="800" height="800" fill="white"/>
</clipPath>
</defs>
</svg>
