<svg width="512" height="512" viewBox="0 0 512 512" fill="none" xmlns="http://www.w3.org/2000/svg">
<g clip-path="url(#clip0_129_2)">
<path d="M334.222 177.778H177.778V334.222H334.222V177.778Z" fill="#D6111E"/>
<path d="M512 177.778V135.111H462.222V113.778C462.222 78.488 433.512 49.778 398.222 49.778H376.889V0H334.222V49.778H277.333V0H234.666V49.778H177.777V0H135.11V49.778H113.777C78.487 49.778 49.777 78.488 49.777 113.778V135.111H0V177.778H49.778V234.667H0V277.334H49.778V334.223H0V376.89H49.778V398.223C49.778 433.513 78.488 462.223 113.778 462.223H135.111V512H177.778V462.222H234.667V512H277.334V462.222H334.223V512H376.89V462.222H398.223C433.513 462.222 462.223 433.512 462.223 398.222V376.889H512V334.222H462.222V277.333H512V234.666H462.222V177.777H512V177.778ZM376.889 376.889H135.111V135.111H376.889V376.889Z" fill="#D6111E"/>
</g>
<defs>
<clipPath id="clip0_129_2">
<rect width="512" height="512" fill="white"/>
</clipPath>
</defs>
</svg>
