<svg width="18" height="18" viewBox="0 0 18 18" fill="none" xmlns="http://www.w3.org/2000/svg">
<path d="M6.70444 14.0289C5.27119 14.0289 3.93637 13.6087 2.8125 12.8859C3.47719 12.9666 4.15129 12.9154 4.79616 12.7352C5.44103 12.555 6.04402 12.2493 6.57056 11.8357C6.04059 11.826 5.52696 11.6506 5.10175 11.3341C4.67653 11.0177 4.36107 10.576 4.19962 10.0711C4.35487 10.1015 4.51406 10.1173 4.67662 10.1173C4.90837 10.1173 5.13337 10.0858 5.34769 10.0295C4.77317 9.91315 4.25652 9.60181 3.88523 9.14821C3.51395 8.69461 3.31084 8.12662 3.31031 7.54044V7.50725C3.6623 7.70335 4.0562 7.81214 4.45894 7.8245C4.11093 7.59264 3.82569 7.27829 3.62861 6.90947C3.43154 6.54065 3.32876 6.1288 3.32944 5.71063C3.32944 5.24713 3.456 4.8095 3.67369 4.43488C4.31116 5.21921 5.1065 5.86068 6.00804 6.3176C6.90958 6.77452 7.89716 7.03669 8.90662 7.08707C8.78015 6.54274 8.83665 5.97189 9.06739 5.46292C9.29812 4.95395 9.69022 4.53525 10.183 4.27164C10.6757 4.00803 11.2416 3.91423 11.7931 4.00475C12.3445 4.09527 12.8508 4.36508 13.2334 4.77238C13.8017 4.65989 14.3468 4.45181 14.8455 4.157C14.6558 4.74481 14.2595 5.24399 13.7301 5.56213C14.2332 5.50206 14.7246 5.36746 15.1881 5.16275C14.8463 5.67193 14.4175 6.11691 13.9213 6.47732C13.9258 6.58588 13.9292 6.69557 13.9292 6.80525C13.9286 10.1589 11.3743 14.0294 6.70444 14.0289Z" fill="white"/>
</svg>
