<svg width="800" height="800" viewBox="0 0 800 800" fill="none" xmlns="http://www.w3.org/2000/svg">
<path d="M703.75 146.172H102.109C77.8125 146.172 64.5312 158.281 64.5312 183.75V622.422C64.5312 647.891 77.8125 660 102.109 660H703.75C729.219 660 741.328 646.719 741.328 622.422V183.828C741.328 159.453 729.219 146.172 703.75 146.172ZM152.266 622.5H127.188C106.953 622.5 102.109 610.234 102.109 597.422V547.266H152.266V622.5ZM152.266 509.687H102.109V421.953H152.266V509.687ZM152.266 384.375H102.109V296.641H152.266V384.375ZM152.266 258.984H102.109V208.828C102.109 188.594 114.375 183.75 127.188 183.75H152.266V258.984ZM616.016 622.5H189.844V183.828H616.016V622.5ZM703.75 597.422C703.75 610.234 698.906 622.5 678.672 622.5H653.594V547.266H703.75V597.422ZM703.75 509.687H653.594V421.953H703.75V509.687ZM703.75 384.375H653.594V296.641H703.75V384.375ZM703.75 258.984H653.594V183.75H678.672C691.484 183.75 703.75 188.594 703.75 208.828V258.984ZM309.687 530.625C312.891 533.203 316.875 534.687 321.25 534.766H321.562C324.922 534.766 328.281 533.984 331.406 532.266L527.578 421.016C536.797 415.859 539.922 404.297 534.609 395.312V395.234C533.047 391.875 530.469 388.906 526.953 386.875L331.484 274.062C328.359 272.266 325 271.484 321.641 271.562H321.484C311.094 271.562 302.656 280 302.656 290.391V513.594C302.109 517.578 302.891 521.719 305.078 525.391C306.25 527.422 307.891 529.219 309.687 530.625ZM340.234 322.578L481.016 403.828L340.234 483.75V322.578Z" fill="#D6111E"/>
</svg>
