<svg width="800" height="800" viewBox="0 0 800 800" fill="none" xmlns="http://www.w3.org/2000/svg">
<g clip-path="url(#clip0_109_52)">
<path d="M199.394 744.09C201.933 744.09 204.472 746.652 204.472 746.652C204.472 746.652 201.922 744.09 199.394 744.09C199.394 741.562 199.394 741.562 199.394 744.09Z" fill="#D6111E"/>
<path d="M791.056 320.045C793.618 327.663 793.618 335.281 793.618 342.899C793.595 332.731 793.595 327.663 791.056 320.045Z" fill="#D6111E"/>
<path d="M760.584 256.539C765.652 264.157 773.269 269.236 775.831 276.854C778.382 276.854 775.831 274.303 778.382 274.303C775.831 269.236 775.831 264.146 773.326 259.067C768.202 251.472 752.966 241.315 760.584 256.539Z" fill="#D6111E"/>
<path d="M778.37 276.854C778.37 279.416 778.37 281.922 780.909 284.472C780.887 281.944 780.887 279.416 778.37 276.854Z" fill="#D6111E"/>
<path d="M742.808 193.068C755.494 213.394 765.673 233.697 773.28 256.562C747.887 190.551 707.258 132.136 651.393 88.967C659.011 96.5963 664.101 101.664 671.719 106.742C697.112 132.124 722.505 162.585 742.808 193.068Z" fill="#D6111E"/>
<path d="M19.1016 281.944C24.1802 269.259 26.7195 256.562 31.7982 243.866C26.7082 256.54 21.6409 269.248 19.1016 281.944Z" fill="#D6111E"/>
<path d="M16.5625 287.034C16.5625 284.472 16.5625 284.472 19.1018 281.944C19.1018 281.944 19.1018 284.472 16.5625 287.034Z" fill="#D6111E"/>
<path d="M422.843 457.169V439.393C422.843 431.776 422.843 421.641 425.427 414.023C425.427 414.023 425.427 414.023 422.843 411.461C415.225 401.304 412.697 391.146 405.101 380.989C400.023 375.922 394.944 370.832 392.405 365.742C392.405 358.124 387.326 353.057 392.405 345.427C394.944 340.36 397.472 332.742 397.472 325.113C397.472 314.955 392.405 302.259 394.933 292.113C397.472 284.483 400.011 279.428 405.09 271.798C410.157 264.169 412.697 251.484 422.843 248.933C427.933 246.394 435.551 241.304 435.551 236.236C438.079 231.169 435.551 223.54 440.607 218.472C445.696 210.854 453.314 203.225 458.382 195.607C466 187.989 473.618 195.607 486.326 190.54C496.483 185.461 506.629 180.383 516.798 180.383C524.415 180.383 529.483 180.383 537.101 180.383C539.651 180.383 544.719 172.765 547.258 177.832C549.797 180.383 549.797 180.383 552.291 177.832C552.291 182.899 549.763 187.989 549.763 195.596C549.763 208.292 562.449 203.214 567.539 205.753C575.157 208.292 600.527 236.225 598.01 213.371C598.01 195.596 623.381 210.809 630.999 213.371C641.156 215.91 648.774 218.438 656.392 213.371C664.01 210.809 669.1 215.91 676.718 213.371C681.763 223.528 681.763 226.056 679.269 238.764C674.179 238.764 671.628 228.607 666.561 223.506C666.561 236.202 679.269 248.899 684.336 259.068C686.887 266.686 689.403 274.304 691.954 279.394C694.505 281.921 694.505 287.011 694.505 289.551C719.898 307.315 742.763 332.731 755.437 363.18C755.437 363.18 755.437 363.18 757.999 363.18C765.617 360.652 773.246 358.113 780.864 355.562C785.954 368.27 778.325 388.573 768.179 406.337C770.73 413.966 770.73 424.112 770.73 431.73V449.505C778.348 449.505 785.966 452.045 791.056 454.561C793.606 434.247 796.1 411.382 796.1 388.539C796.1 368.236 793.572 350.461 791.056 330.146C773.28 335.225 760.572 350.461 750.426 330.146C745.336 319.989 742.786 312.382 735.168 302.213C730.101 294.595 722.483 289.517 719.932 279.359C717.37 264.101 689.46 253.966 689.46 236.168C689.46 233.618 681.819 220.932 684.404 220.932C686.955 218.382 684.404 213.314 684.404 210.775C684.404 203.157 686.955 198.101 684.404 193.011C669.157 198.101 659.011 190.461 643.764 190.461C638.708 187.921 636.146 182.843 631.067 180.303C636.146 175.225 631.067 177.753 631.067 172.685C631.067 167.607 643.764 170.123 646.326 170.123L643.764 167.584C638.708 167.584 638.708 172.663 633.606 167.584C628.539 165.045 628.539 165.045 623.449 167.584C623.449 170.123 623.449 170.123 623.449 170.123C623.449 170.123 615.831 165.056 615.831 170.123C620.898 175.202 623.449 177.753 628.539 182.82C625.966 185.371 623.449 182.82 620.898 180.281L623.449 187.899C618.382 187.899 613.292 185.348 615.831 180.281C610.764 180.281 600.572 170.123 600.572 165.045C598.045 157.427 587.91 154.887 587.91 149.797C585.337 149.797 562.517 134.561 562.517 137.112C562.517 144.73 575.202 154.876 582.82 154.876C582.82 159.955 595.528 159.955 595.528 165.033C585.371 162.483 587.91 159.955 590.438 170.101C590.438 170.101 585.371 177.73 582.82 172.663C595.528 172.663 557.449 144.73 559.943 147.269C552.325 139.651 549.797 134.573 539.64 142.191C534.573 144.741 516.786 134.573 521.887 147.269C521.887 147.269 496.494 157.427 509.18 162.505C506.652 167.584 501.562 170.123 496.494 172.663C491.427 170.101 481.258 177.73 478.73 172.663C473.663 167.584 471.101 167.584 466.045 167.584C458.427 167.584 466.045 144.73 466.045 142.191C466.045 137.123 463.483 132.033 471.101 132.033C478.73 132.033 486.371 134.573 491.427 134.573C499.056 134.573 501.584 137.123 501.584 124.415C506.652 116.798 483.809 114.258 483.809 109.168C483.809 106.629 496.494 109.168 499.056 109.168C499.056 106.629 499.056 106.629 499.056 104.101C509.214 104.101 511.73 101.55 519.359 99.0222C527 96.4829 527 88.865 534.618 91.4043C537.18 91.4043 547.326 91.4043 544.775 88.8536C539.719 78.6963 539.719 78.6963 549.843 76.1683C549.843 78.7077 552.405 78.7077 552.405 81.2357C552.405 81.2357 552.405 83.7863 549.843 83.7863C552.405 83.7863 552.405 83.7863 552.405 86.3256C552.405 83.7863 549.843 86.3256 549.843 83.7863C549.843 86.3256 549.843 88.8536 549.843 86.3256C554.933 86.3256 560 86.3256 565.101 86.3256C565.101 91.4043 582.854 86.3256 587.967 86.3256C590.529 86.3256 590.529 86.3256 593.034 86.3256C590.472 76.1683 608.292 73.629 610.798 76.1683C610.798 73.6177 603.18 71.0897 605.73 68.539C613.36 65.9997 620.978 71.0897 628.596 68.539C626.034 65.9997 590.529 65.9997 595.585 60.9211C593.034 60.9211 593.034 58.3817 590.529 55.8538L605.765 50.7751C603.214 43.1571 590.529 50.7751 590.529 50.7751C590.529 53.3144 575.281 53.3144 575.281 58.3931C575.281 63.4717 582.911 60.9324 582.911 66.0111C582.911 66.0111 567.663 73.629 577.821 76.1683C577.821 81.2357 565.135 83.7863 562.585 83.7863C560.023 83.7863 554.955 73.629 554.955 73.629C552.405 68.5504 549.899 66.0111 544.798 68.5504C542.27 68.5504 527.046 73.629 527.046 68.5504C527.046 66.0111 529.596 68.5504 529.596 66.0111C527.045 66.0111 527.046 66.0111 527.046 66.0111C527.046 66.0111 527.045 63.4717 529.596 63.4717C519.439 55.8538 539.753 53.3144 544.832 53.3144C542.281 53.3144 542.281 53.3144 542.281 53.3144C544.832 53.3144 567.675 43.1571 570.225 40.6178C567.675 40.6178 565.169 40.6178 562.607 40.6178C562.607 40.6178 567.675 40.6178 572.765 40.6178C575.315 40.6178 575.315 40.6178 577.821 40.6178C582.911 38.0785 587.978 40.6178 593.068 40.6178C590.529 40.6178 603.225 38.0785 600.709 40.6178C605.765 40.6178 610.866 43.1685 615.956 45.6965C552.405 22.8539 478.753 0 400.068 0C234.989 0 95.338 99.0336 34.3942 243.775C47.0908 218.393 59.7761 193 77.5627 167.595C95.338 144.741 113.113 121.887 135.967 104.112C143.585 96.4943 151.203 91.4156 161.349 93.9549C163.9 93.9549 168.978 93.9549 171.506 91.4156C179.124 91.4156 194.36 93.9549 199.439 91.4156C201.99 88.865 209.596 88.865 209.596 86.337H207.045C207.045 86.337 209.596 86.337 209.596 83.7976L204.517 81.247C207.057 78.7077 222.293 78.7077 217.214 81.247C214.663 81.247 214.663 81.247 212.135 83.7976C212.135 83.7976 214.675 83.7976 217.214 83.7976C212.135 83.7976 217.214 83.7976 214.663 86.337C214.663 86.337 224.821 83.7976 222.293 86.337C219.742 86.337 217.214 86.337 219.742 88.8763C222.293 91.427 232.439 83.809 234.978 83.809C234.978 83.809 214.663 83.809 217.214 81.2583C219.753 81.2583 222.293 81.2583 224.832 81.2583H217.214C214.663 78.719 224.832 78.719 224.832 76.191C222.293 76.191 217.214 76.191 214.675 78.7303C214.675 78.7303 214.675 78.7303 217.225 78.7303C214.675 78.7303 212.147 81.2697 209.607 81.2697C217.225 76.2024 219.765 76.2024 229.922 76.2024C227.371 76.2024 227.371 76.2024 224.843 78.7417C229.922 78.7417 232.461 78.7417 237.54 78.7417C234.989 78.7417 227.383 81.281 229.922 81.281C224.843 83.8317 245.158 76.2137 247.686 78.7417C247.686 78.7417 247.686 81.281 245.147 81.281C255.304 81.281 262.922 83.8317 270.54 83.8317C270.54 83.8317 280.697 86.371 280.697 88.899C280.697 93.9776 273.079 91.4496 268.001 91.4496C268.001 91.4496 268.001 91.4496 265.461 93.989C268.001 93.989 268.001 96.5396 270.54 96.5396C267.989 104.158 267.989 99.0789 260.383 101.607C260.383 101.607 270.54 106.686 265.461 106.686C260.383 109.225 252.765 104.146 247.686 101.607C245.147 101.607 229.922 101.607 229.922 101.607C232.461 96.5396 242.619 99.0676 247.686 96.5396C242.619 96.5396 257.843 93.9889 252.765 88.9103C252.765 91.461 245.147 88.9103 245.147 88.9103C247.686 86.371 250.225 86.371 252.765 86.371H245.147C242.607 83.8317 232.45 86.371 234.989 86.371C232.45 86.371 232.45 86.371 227.371 86.371C229.922 86.371 232.45 86.371 232.45 86.371C229.911 88.9103 222.293 93.9889 214.675 96.5283C212.135 96.5283 212.135 96.5283 214.675 96.5283C212.135 96.5283 212.135 96.5283 209.607 96.5283C209.607 96.5283 217.225 96.5283 217.225 99.0676C217.225 99.0676 219.765 99.0676 222.304 99.0676C217.225 101.607 207.057 101.607 201.99 101.607C199.439 101.607 201.99 101.607 201.99 99.0676C199.439 99.0676 196.911 99.0676 196.911 99.0676C199.45 96.5283 204.529 93.989 207.068 93.989C202.001 93.989 199.45 93.989 194.372 93.989C194.372 96.5396 196.922 96.5396 202.001 96.5396C196.922 101.607 186.754 101.607 179.136 101.607C179.136 101.607 179.136 101.607 181.675 101.607C176.608 106.686 161.36 111.764 153.742 116.854C158.821 116.854 158.821 119.394 156.293 121.921C171.529 121.921 168.99 129.539 181.675 129.539C184.226 132.09 179.136 134.618 179.136 137.169C181.675 137.169 184.214 137.169 181.675 139.708H179.136C179.136 139.708 181.675 142.247 186.754 139.708C191.832 134.629 186.754 132.09 196.911 127.011C209.607 121.933 199.45 121.933 199.45 114.315C214.686 111.776 207.068 99.0789 227.383 106.697C232.461 109.236 250.248 114.315 252.776 106.697C250.237 111.776 252.776 111.776 255.315 111.776C255.315 111.776 252.776 111.776 252.776 109.225C257.855 101.607 268.012 116.854 260.394 119.382C262.945 119.382 262.945 121.921 265.473 121.921C262.933 127 275.63 124.472 275.63 127C273.091 129.539 265.473 129.539 260.394 132.079C260.394 134.618 278.169 129.528 278.169 129.528C283.248 147.303 232.461 144.775 222.304 152.393C222.304 152.393 247.686 147.315 247.686 149.843C245.147 152.393 240.068 152.393 237.529 154.921C240.068 154.921 240.068 154.921 242.607 154.921C232.45 165.079 252.765 165.079 252.765 167.618C250.225 170.157 234.989 172.697 229.911 175.236C222.293 177.787 229.911 167.618 240.068 167.618C237.529 167.618 237.529 167.618 237.529 165.079C229.911 165.079 219.753 172.697 214.663 172.697C209.596 172.697 191.81 185.382 201.978 185.382C196.9 187.933 189.282 187.933 181.652 190.449H186.731C184.192 190.449 168.967 195.528 168.967 198.09C166.416 200.618 166.416 208.247 158.81 208.247L161.349 200.618L156.282 210.775C156.282 213.337 153.731 213.337 151.203 213.337C151.203 213.337 151.203 215.876 153.742 215.876C151.203 218.427 148.675 218.427 151.203 220.955C148.664 223.494 143.585 223.494 138.506 226.022C123.271 233.64 110.574 238.73 108.035 256.494C108.035 261.573 102.956 281.876 95.338 281.876C90.2593 281.876 100.405 251.404 100.405 248.876C100.405 248.876 82.6413 246.337 85.1693 243.798C82.63 243.798 80.0907 243.798 77.5514 243.798C77.5514 243.798 77.5514 243.798 80.0907 243.798C77.5514 246.36 75.0234 248.876 77.5514 248.876C72.4727 251.416 67.3941 241.247 62.3154 243.798C52.1581 248.876 44.5402 253.955 39.4502 264.112C36.9109 266.663 8.97832 317.438 21.6863 320C39.4502 325.056 42.0009 297.123 62.3154 302.225C59.7648 307.292 54.6975 312.382 52.1581 317.461C49.6075 320.023 49.6075 322.539 47.0682 325.079C44.5175 330.157 24.2029 345.393 41.9895 347.944C64.8434 350.495 47.0682 370.809 44.5288 380.955C41.9895 391.112 31.8322 424.135 52.1468 416.517C62.3041 411.438 62.3041 426.674 62.3041 431.753L54.6861 439.371C54.6861 436.82 57.2254 426.674 54.6861 424.135C47.0682 421.584 44.5288 441.91 41.9895 439.371C34.3715 436.82 36.9109 406.36 31.8322 403.82V406.36C31.8322 406.36 31.8322 406.36 29.2929 406.36C26.7536 401.304 34.3715 393.674 31.8322 388.596C31.8322 383.528 29.2929 378.438 31.8322 370.832C26.7649 368.292 21.6749 365.753 19.1356 358.135C19.1356 355.585 19.1356 342.899 16.5963 342.899C14.057 335.281 11.5176 345.439 8.97832 342.899C3.89967 342.899 3.89967 330.203 1.36035 330.203C3.89967 350.517 1.36035 373.382 1.36035 398.764C1.36035 543.528 80.068 670.483 194.338 741.573C191.798 739.022 194.338 733.955 191.798 731.416C189.259 726.348 184.18 726.348 184.18 718.73C184.18 703.472 184.18 695.854 176.562 680.652C168.944 673.011 171.484 652.708 168.944 642.562C166.394 632.405 163.866 622.247 158.787 612.09C153.708 601.933 141.012 594.326 130.854 591.764C115.619 589.225 113.079 576.528 105.461 566.394C97.8433 558.764 90.2253 548.641 85.1467 541C82.6073 535.933 74.9894 535.933 74.9894 530.843C72.4387 523.225 80.0567 520.686 80.0567 515.607C72.4387 510.517 74.9894 510.517 74.9894 500.349C74.9894 492.731 85.1467 482.596 85.1467 474.978C82.6073 474.978 82.6073 472.416 82.6073 472.416C80.0567 464.798 69.9107 452.101 80.0567 447.023C77.5174 436.866 90.214 429.259 100.371 424.169C102.922 424.169 102.922 416.54 105.45 421.607C108.001 421.607 105.45 424.169 105.45 424.169C105.45 426.708 102.911 439.405 110.529 439.405C113.068 439.405 102.911 426.708 115.607 424.169C115.607 421.607 110.529 421.607 110.529 421.607C115.607 421.607 120.686 426.674 123.225 429.225C125.764 431.787 133.382 431.787 135.922 431.787C140.989 434.349 148.618 429.225 153.686 429.225H151.18C153.72 439.382 174.034 439.382 179.113 449.551C184.192 457.169 201.967 457.169 209.585 457.169C217.203 457.169 232.439 477.472 227.349 482.562C222.281 490.18 229.899 500.315 237.506 497.798C245.124 497.798 237.506 482.562 252.742 490.18C257.821 492.731 260.36 492.731 262.899 497.798C270.517 497.798 278.135 495.247 285.753 497.798C293.371 500.349 298.45 505.427 306.068 507.955C323.843 510.506 306.068 543.517 303.528 551.135C300.978 556.225 308.596 576.528 308.596 586.708C303.528 601.944 303.528 607.023 288.281 614.641C285.742 617.191 278.124 624.798 278.124 629.899C278.124 634.955 280.663 637.517 283.202 642.573C280.652 645.135 280.652 647.652 280.652 652.731C278.112 662.888 275.573 670.506 273.034 680.663C273.034 688.292 250.18 690.82 250.18 688.292C255.247 698.45 267.944 693.371 262.877 708.607C260.326 713.663 252.719 716.225 247.629 716.225C242.562 718.787 247.629 723.843 247.629 726.382C250.18 734.012 240.011 728.933 237.472 731.45C229.854 734.012 247.629 741.607 247.629 739.068C250.18 744.135 242.562 741.63 242.562 741.63C245.101 744.169 250.18 754.315 242.562 756.866C232.405 764.483 250.18 767.023 252.719 772.113C288.27 787.349 326.36 794.978 366.989 800.057C361.91 789.899 359.371 779.731 359.371 767.046V530.809C356.832 492.708 387.315 462.236 422.843 457.169ZM684.393 208.304C684.393 210.854 676.775 215.922 674.236 210.854C679.326 210.843 681.854 208.304 684.393 208.304ZM646.314 208.304C643.764 210.854 638.696 208.304 636.168 205.764C638.696 205.776 641.224 205.776 646.314 208.304ZM587.91 185.45C587.91 188.001 587.91 193.068 587.91 193.068C585.348 193.068 575.225 188.001 575.225 185.45C575.225 185.45 585.359 185.45 587.91 185.45ZM554.899 157.529C557.438 160.057 557.438 160.057 554.899 157.529C554.899 160.068 554.899 165.147 554.899 165.147C552.337 165.147 552.337 160.068 552.337 160.068C554.899 160.057 554.899 160.057 554.899 157.529ZM554.899 172.765L552.337 170.203C565.056 167.675 554.899 185.45 554.899 172.765ZM529.494 172.765C529.494 175.304 526.966 172.765 526.966 172.765C526.977 170.203 526.977 170.203 529.494 172.765ZM603.134 91.495C603.134 94.0343 603.134 94.0343 600.584 94.0343C598.056 94.0343 598.056 94.0343 598.056 91.495C600.595 94.0343 600.595 91.495 603.134 91.495ZM587.91 94.0343L585.359 96.585C582.831 96.5736 585.359 94.0343 587.91 94.0343ZM562.528 101.641C559.966 101.641 559.966 106.72 554.899 104.192H557.461C552.348 101.641 559.966 94.0343 562.528 101.641ZM524.427 53.4051C524.427 53.4051 526.989 53.4051 526.989 55.9558C524.427 53.4051 521.888 53.4051 524.427 53.4051ZM529.494 50.8658C529.494 50.8658 534.584 50.8658 534.584 53.4051C529.494 50.8658 539.651 53.4051 539.651 53.4051C542.202 53.4051 544.719 53.4051 547.269 53.4051C549.82 53.4051 549.82 53.4051 552.337 53.4051H547.269H542.202H544.73C544.73 53.4051 544.73 53.4051 547.315 53.4051C554.933 53.4051 565.056 50.8658 570.18 55.9558C567.618 55.9558 557.495 58.4951 552.405 58.4951H554.955C557.506 58.4951 562.573 58.4951 565.113 61.0344C562.562 61.0344 560.023 61.0344 557.495 61.0344C554.933 61.0344 554.933 61.0344 552.405 61.0344C547.337 61.0344 534.641 66.1131 534.641 61.0344C537.18 61.0344 539.708 61.0344 539.708 61.0344H532.09C532.09 61.0344 534.641 61.0344 537.146 61.0344C534.595 61.0344 529.528 61.0344 529.528 61.0344C526.977 53.4051 526.977 53.4051 529.494 50.8658C526.966 53.4051 524.427 53.4051 524.427 50.8658H521.876C524.427 50.8658 526.977 50.8658 529.494 50.8658ZM493.966 86.4163L491.404 88.9556C493.966 91.5063 496.472 91.5063 501.562 91.5063C501.562 94.0456 496.472 96.585 496.472 96.585C501.562 99.1243 511.708 104.203 511.708 111.821C511.708 111.821 511.708 111.821 514.292 111.821C516.854 109.27 516.854 114.36 514.292 119.439H516.854C516.854 119.439 488.91 121.978 486.382 121.978C488.922 119.439 496.54 116.911 496.54 114.36H486.382C486.382 111.821 488.91 111.821 488.91 106.742C491.472 106.742 496.528 106.742 496.528 104.203C494 104.203 491.472 104.203 494 101.652H486.382C486.382 99.1129 491.45 99.1129 486.382 96.585C486.382 96.585 486.382 96.585 486.382 99.1243C486.382 96.585 486.382 96.5849 486.382 94.0456C483.832 94.0456 483.832 94.0456 483.832 91.5063H488.899C481.258 86.4163 493.966 81.3263 493.966 86.4163ZM481.258 83.8883L478.708 86.4277C473.64 86.4163 481.258 83.8883 481.258 83.8883ZM463.472 101.641C463.472 99.1016 468.562 99.1016 471.09 99.1016C468.562 96.5623 476.18 96.5623 478.719 96.5623C488.876 96.5623 481.304 101.63 481.304 101.63C481.304 109.248 476.236 111.787 468.596 111.787C460.966 111.787 468.596 106.708 468.596 104.169C466.022 101.641 466.022 101.641 463.472 101.641ZM207.011 106.731C209.562 104.192 212.09 104.192 214.629 104.192C212.09 104.203 207.011 106.731 207.011 106.731ZM135.91 314.955C135.91 317.506 133.36 317.506 130.832 317.506C128.292 317.483 135.91 314.955 135.91 314.955ZM128.292 271.787C128.292 274.326 125.742 274.326 125.742 274.326C125.753 271.787 125.753 271.787 128.292 271.787ZM120.675 284.472C120.675 284.472 123.225 287.034 120.675 287.034C120.675 292.101 120.675 284.472 120.675 284.472ZM85.124 312.416C85.124 309.865 87.6747 309.865 87.6747 309.865C87.6747 307.315 87.6747 307.315 90.214 307.315C85.124 314.955 85.124 309.877 85.124 312.416ZM100.36 345.416C102.911 345.416 105.439 347.967 105.439 347.967V350.517C92.742 350.506 97.8206 345.416 100.36 345.416ZM105.439 330.191C107.989 322.562 105.439 309.877 95.2813 307.326C92.7306 297.169 90.2026 309.877 80.034 309.877C90.1913 297.18 97.8093 294.641 107.978 304.798C110.517 307.349 118.135 320.057 118.135 322.562C123.214 325.113 120.675 327.652 123.214 330.191C115.596 337.798 110.529 330.191 105.439 330.191ZM138.45 353.045C138.45 347.967 133.371 358.113 130.832 358.113C130.832 358.113 123.214 342.877 118.135 353.045C107.978 347.967 128.292 345.416 128.292 345.416C128.292 342.877 128.292 325.101 133.36 332.731C135.91 335.281 138.438 332.731 140.978 332.731C146.056 332.731 146.056 340.349 148.607 342.888C148.607 340.337 148.607 340.337 148.607 342.888C148.607 345.427 151.146 350.506 151.146 350.506C151.146 353.045 138.45 353.045 138.45 353.045ZM156.225 358.113C158.764 353.045 163.843 360.675 163.843 360.675C163.843 363.202 156.225 360.675 156.225 358.113ZM394.921 88.9443C397.461 86.405 397.461 86.405 397.461 86.405C394.921 86.405 394.921 86.405 392.393 86.405C394.933 86.405 397.461 86.405 397.461 86.405L392.393 83.8657C394.933 83.8657 397.461 83.8657 397.461 83.8657C394.921 86.4163 400.011 86.4163 400.011 86.4163C400.011 88.9556 402.551 86.4163 405.09 86.4163C405.09 83.877 417.787 86.4163 417.787 86.4163C415.236 86.4163 420.337 88.9556 417.787 91.495C412.708 94.0343 405.079 88.9443 394.921 88.9443ZM232.405 61.0118H234.944C234.955 61.0118 234.955 61.0118 232.405 61.0118C229.865 63.5738 234.955 61.0118 232.405 61.0118ZM232.405 66.1017C229.865 63.5624 240.023 63.5624 237.483 66.1017C234.955 66.1017 227.326 66.1017 232.405 66.1017ZM240.023 66.1017H237.483H232.405C234.955 66.1017 237.483 66.1017 240.023 66.1017ZM212.09 63.5738C214.629 63.5738 222.247 61.0231 224.787 63.5738C224.787 63.5738 224.787 63.5738 222.236 63.5738C222.236 63.5738 219.697 63.5738 217.169 66.1131C214.629 66.1017 212.09 66.1017 212.09 63.5738ZM207.011 66.1017C209.562 66.1017 209.562 66.1017 209.562 66.1017C209.551 68.6297 207.011 68.6297 207.011 66.1017C204.472 68.6297 207.011 68.6297 207.011 66.1017ZM189.236 66.1017C191.776 66.1017 194.304 66.1017 199.394 66.1017C199.394 66.1017 199.393 66.1017 196.854 66.1017C191.776 66.1017 191.776 66.1017 194.304 66.1017C194.315 68.6297 189.236 68.6297 189.236 66.1017C186.686 68.6411 189.236 66.1017 191.776 66.1017H189.236ZM179.079 71.1804H181.618C181.618 71.1804 181.618 71.1804 179.079 71.1804ZM179.079 68.6297C176.54 71.1804 176.54 71.1804 174 71.1804C174 68.6297 176.54 68.6297 179.079 68.6297ZM171.461 73.7197H174C174 71.1804 174 71.1804 171.461 73.7197C174 73.7197 176.54 71.1804 176.54 71.1804C181.607 71.1804 186.697 73.7197 191.776 71.1804C186.697 71.1804 196.854 68.6297 196.854 68.6297C191.776 71.1804 201.921 71.1804 201.921 71.1804C194.304 76.259 184.158 71.1804 176.54 73.7197C176.54 76.259 174 76.259 171.461 73.7197C174 76.2704 174 76.2704 176.54 73.7197H173.989C171.45 73.7197 171.45 73.7197 168.922 73.7197H171.461ZM201.921 71.1804C201.921 71.1804 201.921 73.7197 199.382 73.7197C199.382 73.7197 199.382 73.7197 196.843 73.7197C199.394 71.1804 201.921 71.1804 201.921 71.1804ZM163.843 91.495C163.843 91.495 166.382 91.495 171.461 91.495C168.922 88.9443 163.843 91.495 163.843 91.495ZM191.776 83.8883C189.236 83.8883 186.697 83.8883 184.158 86.4277C179.079 88.967 151.146 88.967 151.146 88.967H148.607C153.674 86.4277 153.674 86.4277 158.764 86.4277C156.225 86.4277 153.686 86.4277 151.146 86.4277C151.146 86.4277 156.225 81.349 161.304 78.8097C161.304 78.8097 163.854 78.8097 163.854 76.2704C163.854 76.2704 163.854 76.2704 163.854 78.8097C168.933 78.8097 176.551 81.349 176.551 81.349C181.618 81.349 186.708 73.731 191.787 76.2817C191.787 76.2817 186.708 78.821 186.708 81.349C186.697 86.4163 189.236 81.3263 191.776 83.8883ZM194.315 86.4163C191.776 86.4163 204.472 81.3377 201.933 86.4163C201.921 88.9443 189.236 88.9443 194.315 86.4163ZM209.551 76.259C212.09 76.259 212.09 76.259 214.618 76.259C212.079 78.7984 201.921 81.3263 199.382 76.259C201.921 73.7084 204.461 76.259 207 73.7084C199.382 73.7084 217.157 73.7084 217.157 71.169C212.09 76.259 212.09 76.259 209.551 76.259ZM212.09 71.1804C214.629 71.1804 217.169 71.1804 217.169 68.6297C214.629 71.1804 212.09 71.1804 212.09 71.1804C209.551 68.6297 209.551 68.6297 207.011 71.1804H204.472C207.011 68.6297 209.551 71.1804 212.09 71.1804C214.629 68.6297 214.629 68.6297 217.169 68.6297C214.618 68.6297 214.618 68.6297 214.618 68.6297H224.775C222.236 73.7197 212.09 71.1804 212.09 71.1804ZM222.236 71.1804C227.315 68.6297 227.315 68.6297 229.865 71.1804C232.405 71.1804 222.236 71.1804 222.236 71.1804ZM242.551 71.1804C240.011 71.1804 229.865 71.1804 234.933 68.6297C234.933 66.0904 232.393 66.0904 232.393 66.0904C229.854 66.0904 229.854 66.0904 227.315 66.0904C229.865 66.0904 245.09 66.0904 245.09 66.0904C242.539 66.0904 242.539 66.0904 240.011 66.0904C240.023 71.1804 242.551 68.6297 242.551 71.1804C242.551 71.1804 270.495 68.6297 273.023 68.6297C262.865 73.7197 250.18 68.6297 242.551 71.1804ZM265.427 76.259C265.427 76.259 260.349 76.259 262.877 73.7084C265.427 71.169 273.034 73.7084 275.573 73.7084C273.034 76.259 267.955 76.259 265.427 76.259ZM283.18 63.5738C278.112 68.6411 262.865 63.5738 252.708 66.1131C255.247 66.1131 255.247 66.1131 257.787 66.1131C252.708 63.5738 265.405 66.1131 265.405 66.1131C262.854 63.5738 257.787 63.5738 255.247 66.1131C252.708 66.1131 245.09 66.1131 245.09 66.1131C245.09 66.1131 245.09 66.1131 247.629 66.1131C247.629 66.1131 247.629 66.1131 245.09 66.1131C245.09 66.1131 245.09 66.1131 242.539 66.1131C245.09 66.1131 247.618 66.1131 250.169 66.1131C250.169 66.1131 245.09 66.1131 242.539 66.1131C240 66.1131 237.472 66.1131 240 66.1131C242.528 66.1131 242.539 66.1131 245.079 66.1131H242.539C242.539 66.1131 245.101 66.1131 247.629 66.1131C250.18 66.1131 250.18 66.1131 252.708 66.1131H250.169C252.708 66.1131 260.326 68.6524 262.854 68.6524C265.405 68.6524 265.405 68.6524 262.854 71.2031C265.405 68.6524 267.933 73.7424 273.011 68.6524C273.011 68.6524 270.472 68.6524 270.472 66.1131C273.011 66.1131 273.011 66.1131 273.011 66.1131C270.472 66.1131 267.933 66.1131 267.933 66.1131H270.483C267.933 66.1131 267.933 66.1131 265.405 66.1131C267.944 66.1131 267.933 66.1131 267.933 66.1131C265.393 66.1131 262.865 66.1131 260.326 66.1131C273.023 61.0344 303.494 58.4951 316.191 63.5738C311.124 66.1131 326.348 63.5738 326.348 63.5738C326.348 63.5738 316.191 63.5738 316.191 66.1131C316.191 66.1131 318.742 66.1131 321.27 66.1131C313.652 68.6524 303.494 68.6524 295.876 71.1917H298.427C293.348 71.1917 293.348 73.731 288.27 73.731C288.27 76.2817 283.191 73.731 283.191 76.2817C280.652 63.5738 283.18 63.5738 283.18 63.5738ZM270.495 144.832C267.955 147.36 273.034 144.832 270.495 144.832ZM270.495 149.888C267.944 152.439 262.865 149.888 260.337 147.349C265.427 147.36 267.955 147.36 270.495 149.888ZM252.719 160.057C255.259 162.596 257.798 162.596 260.337 160.057C260.337 167.675 252.719 162.585 252.719 160.057ZM265.427 165.147C267.967 162.596 267.967 162.596 270.506 160.068C270.506 160.068 270.506 160.068 270.506 162.607C270.506 165.158 267.955 165.158 270.506 165.158C270.495 165.147 265.427 167.675 265.427 165.147ZM285.742 160.057C285.742 160.057 278.124 165.135 278.124 162.596L280.663 160.057C278.124 160.057 260.349 157.517 260.349 157.517C260.349 154.967 262.888 154.967 265.427 154.967C273.045 152.427 278.124 142.27 285.742 142.27C288.281 142.27 278.124 149.888 278.124 149.888C280.663 149.888 280.663 147.349 283.191 149.888C283.191 149.888 280.652 149.888 280.652 152.439H283.191H285.742C288.281 152.439 290.82 152.439 290.82 152.439C290.82 152.439 290.82 154.978 288.27 157.517H290.82C288.27 160.057 290.82 160.057 288.27 162.585C290.82 162.585 290.82 162.585 290.82 162.585C290.809 167.675 290.809 162.585 285.742 160.057ZM344.124 94.0343C344.124 91.495 344.124 91.495 344.124 94.0343C339.056 94.0343 331.438 106.731 326.36 106.731C323.809 106.731 308.584 99.1129 313.663 96.5736C313.663 94.023 308.584 94.023 311.124 91.495C311.124 91.495 311.124 91.495 308.573 91.495C308.573 88.9443 313.652 86.4163 316.191 86.4163C313.652 86.4163 308.573 86.4163 311.124 83.877C313.663 83.877 316.191 86.4163 316.191 83.877C316.191 83.877 311.124 81.3263 308.573 81.3263C311.124 81.3263 311.124 78.787 308.573 78.787C311.124 71.169 295.876 71.169 293.337 73.7084H290.798H288.247C290.798 71.169 295.865 73.7084 295.865 71.169H285.708C288.247 68.6184 295.865 71.1691 298.404 66.0904H295.854C298.404 61.0118 318.719 61.0118 321.247 61.0118C321.247 58.4724 323.786 61.0118 326.326 61.0118C326.326 58.4724 336.483 61.0118 336.483 61.0118C356.797 55.9445 379.663 58.4724 399.977 58.4724C397.427 61.0118 397.427 61.0118 392.359 61.0118C394.899 61.0118 397.427 61.0118 394.899 61.0118L387.281 63.5624C389.82 63.5624 427.899 58.4838 427.899 58.4838C427.899 61.0231 417.741 61.0231 415.191 61.0231C415.191 63.5738 397.415 66.1017 394.876 68.6411C397.415 68.6411 399.955 68.6411 402.494 68.6411H399.955C402.494 68.6411 402.494 68.6411 405.033 71.1917C405.033 73.731 394.876 71.1917 394.876 73.731C394.876 73.731 399.955 73.731 399.955 76.2817C399.955 78.821 397.404 76.2817 394.876 78.821C394.876 78.821 397.415 78.821 399.955 78.821C399.955 78.821 397.404 81.3604 394.876 81.3604C392.337 83.911 387.258 81.3604 384.719 81.3604C387.258 81.3604 387.258 81.3604 389.786 83.911C387.247 88.9783 382.168 81.3604 382.168 83.911C384.719 83.911 392.325 86.4503 389.786 88.9783C389.786 91.529 379.629 86.439 377.089 86.439C377.089 88.9783 377.089 88.9783 374.55 88.9783C374.55 91.529 382.168 91.529 384.707 91.529C377.078 94.0683 366.932 96.6076 356.763 96.6076C354.292 88.9443 349.214 94.0343 344.124 94.0343Z" fill="#D6111E"/>
<path d="M6.39355 327.663C8.94421 314.955 11.4722 299.719 16.5508 287.034C14.0229 299.719 8.95555 312.416 6.39355 327.663Z" fill="#D6111E"/>
<path d="M765.651 495.258H735.179V441.944C735.179 365.73 674.224 304.787 598.056 304.787C521.854 304.787 460.899 365.73 460.899 441.944V495.258H430.438C412.697 495.258 397.427 510.494 397.427 528.258V764.404C397.427 782.179 412.674 797.415 430.438 797.415H765.629C783.404 797.415 798.64 782.179 798.64 764.404V528.258C798.674 510.483 783.438 495.258 765.651 495.258ZM519.337 441.933C519.337 398.73 554.899 363.214 598.056 363.214C641.213 363.214 676.764 398.764 676.764 441.933V495.247H519.337V441.933ZM735.202 721.247H460.955V568.899H735.191L735.202 721.247Z" fill="#D6111E"/>
</g>
<defs>
<clipPath id="clip0_109_52">
<rect width="800" height="800" fill="white"/>
</clipPath>
</defs>
</svg>
