<svg width="57" height="57" viewBox="0 0 57 57" fill="none" xmlns="http://www.w3.org/2000/svg">
<g clip-path="url(#clip0_4_3)">
<path d="M52.1763 53.773C52.4955 53.773 52.8074 53.6775 53.0721 53.4986C53.3367 53.3198 53.5421 53.0659 53.6618 52.7693C53.7815 52.4728 53.8101 52.1472 53.7439 51.8343C53.6778 51.5213 53.5199 51.2353 53.2905 51.0129L35.6751 33.9659L37.1199 31.7318C39.5797 27.9237 40.554 23.3412 39.8567 18.8591C39.1594 14.3769 36.8394 10.3091 33.3396 7.43204C29.8397 4.55502 25.4052 3.07034 20.8825 3.26141C16.3598 3.45248 12.0657 5.30592 8.81993 8.46793C5.57415 11.6299 3.60404 15.879 3.28567 20.4041C2.96731 24.9291 4.32299 29.4132 7.09392 33.0003C9.86485 36.5874 13.857 39.0263 18.3082 39.8514C22.7594 40.6766 27.3579 39.8301 31.2259 37.4736L33.3502 36.1764L51.061 53.3202C51.3588 53.6093 51.7574 53.7706 52.172 53.7698M52.172 56.9968C50.9226 56.9984 49.7218 56.5123 48.8241 55.6415L32.9026 40.2295C28.3565 42.999 22.9518 43.9937 17.7203 43.0236C12.4889 42.0535 7.79728 39.1866 4.54117 34.9702C1.28507 30.7539 -0.307389 25.4835 0.0678514 20.1653C0.443091 14.8471 2.75974 9.85362 6.57548 6.13836C10.3912 2.42309 15.4387 0.246258 20.7543 0.0234813C26.0699 -0.199296 31.2812 1.54759 35.3932 4.9306C39.5052 8.31362 42.2298 13.0958 43.0468 18.364C43.8639 23.6322 42.7161 29.0175 39.8227 33.4916L55.5295 48.6906C56.2205 49.3597 56.6963 50.2204 56.8959 51.1623C57.0954 52.1042 57.0097 53.0844 56.6496 53.9771C56.2895 54.8698 55.6715 55.6344 54.8749 56.1728C54.0783 56.7112 53.1393 56.9989 52.1784 56.9989L52.172 56.9968Z" fill="white"/>
<path d="M13.7491 33.6906C12.788 33.6281 11.88 33.2269 11.1858 32.5579C10.2532 31.7297 9.46081 30.7554 8.83939 29.673C7.36856 27.2423 6.5499 24.4717 6.46291 21.6303C6.45909 19.3882 6.93491 17.1713 7.85831 15.1291C8.75714 13.1369 10.0515 11.349 11.6624 9.87451C11.7716 9.76682 11.9181 9.70556 12.0714 9.70348C12.4481 9.70348 12.8925 10.0649 13.3905 10.7791C11.8097 12.1406 10.5442 13.8313 9.68255 15.7333C8.82086 17.6354 8.38366 19.7029 8.40145 21.7917C8.37725 24.1083 8.91594 26.396 9.97102 28.4574C11.0261 30.5188 12.5659 32.292 14.4575 33.6239C14.2239 33.6679 13.9867 33.6902 13.7491 33.6906Z" fill="white"/>
</g>
<defs>
<clipPath id="clip0_4_3">
<rect width="57" height="57" fill="white"/>
</clipPath>
</defs>
</svg>
