<svg width="58" height="54" viewBox="0 0 58 54" fill="none" xmlns="http://www.w3.org/2000/svg">
<path d="M2.99249 8.12993V50.0004H54.0075V8.12993H2.99249ZM0 5.13032H57V53H0V5.13032Z" fill="white"/>
<path d="M9.29068 12.1384C8.89385 12.1384 8.51327 11.9804 8.23267 11.6991C7.95207 11.4178 7.79443 11.0364 7.79443 10.6386V1.4998C7.79443 1.10203 7.95207 0.720549 8.23267 0.439282C8.51327 0.158014 8.89385 0 9.29068 0C9.68751 0 10.0681 0.158014 10.3487 0.439282C10.6293 0.720549 10.7869 1.10203 10.7869 1.4998V10.6386C10.7869 11.0364 10.6293 11.4178 10.3487 11.6991C10.0681 11.9804 9.68751 12.1384 9.29068 12.1384Z" fill="white"/>
<path d="M19.5648 12.1384C19.168 12.1384 18.7874 11.9804 18.5068 11.6991C18.2262 11.4178 18.0686 11.0364 18.0686 10.6386V1.4998C18.0686 1.10203 18.2262 0.720549 18.5068 0.439282C18.7874 0.158014 19.168 0 19.5648 0C19.9617 0 20.3423 0.158014 20.6229 0.439282C20.9035 0.720549 21.0611 1.10203 21.0611 1.4998V10.6386C21.0611 11.0364 20.9035 11.4178 20.6229 11.6991C20.3423 11.9804 19.9617 12.1384 19.5648 12.1384Z" fill="white"/>
<path d="M29.1049 12.1384C28.7081 12.1384 28.3275 11.9804 28.0469 11.6991C27.7663 11.4178 27.6086 11.0364 27.6086 10.6386V1.4998C27.6086 1.10203 27.7663 0.720549 28.0469 0.439282C28.3275 0.158014 28.7081 0 29.1049 0C29.5017 0 29.8823 0.158014 30.1629 0.439282C30.4435 0.720549 30.6011 1.10203 30.6011 1.4998V10.6386C30.6011 11.0364 30.4435 11.4178 30.1629 11.6991C29.8823 11.9804 29.5017 12.1384 29.1049 12.1384Z" fill="white"/>
<path d="M2.68506 20.6533V17.6537L56.1978 17.6367V20.6363L2.68506 20.6533Z" fill="white"/>
<path d="M16.2631 31.6868H9.65762C9.26079 31.6868 8.88022 31.5288 8.59962 31.2475C8.31902 30.9663 8.16138 30.5848 8.16138 30.187C8.16138 29.7892 8.31902 29.4078 8.59962 29.1265C8.88022 28.8452 9.26079 28.6872 9.65762 28.6872H16.2631C16.6599 28.6872 17.0405 28.8452 17.3211 29.1265C17.6017 29.4078 17.7593 29.7892 17.7593 30.187C17.7593 30.5848 17.6017 30.9663 17.3211 31.2475C17.0405 31.5288 16.6599 31.6868 16.2631 31.6868Z" fill="white"/>
<path d="M16.2631 42.7214H9.65762C9.26079 42.7214 8.88022 42.5633 8.59962 42.2821C8.31902 42.0008 8.16138 41.6193 8.16138 41.2216C8.16138 40.8238 8.31902 40.4423 8.59962 40.161C8.88022 39.8798 9.26079 39.7218 9.65762 39.7218H16.2631C16.6599 39.7218 17.0405 39.8798 17.3211 40.161C17.6017 40.4423 17.7593 40.8238 17.7593 41.2216C17.7593 41.6193 17.6017 42.0008 17.3211 42.2821C17.0405 42.5633 16.6599 42.7214 16.2631 42.7214Z" fill="white"/>
<path d="M32.4086 31.6868H25.8031C25.4063 31.6868 25.0257 31.5288 24.7451 31.2475C24.4645 30.9663 24.3069 30.5848 24.3069 30.187C24.3069 29.7892 24.4645 29.4078 24.7451 29.1265C25.0257 28.8452 25.4063 28.6872 25.8031 28.6872H32.4086C32.8054 28.6872 33.186 28.8452 33.4666 29.1265C33.7472 29.4078 33.9048 29.7892 33.9048 30.187C33.9048 30.5848 33.7472 30.9663 33.4666 31.2475C33.186 31.5288 32.8054 31.6868 32.4086 31.6868Z" fill="white"/>
<path d="M48.9203 25.6546C49.1345 25.6545 49.3463 25.7005 49.5413 25.7895C49.7363 25.8785 49.9099 26.0085 50.0504 26.1705C50.2872 26.4433 50.4173 26.7929 50.4165 27.1544C50.4167 27.3692 50.3708 27.5814 50.282 27.7769C50.1932 27.9723 50.0635 28.1464 49.9018 28.2873L44.641 32.8687C44.3615 33.1182 43.9987 33.2537 43.6244 33.2484C43.2501 33.243 42.8914 33.0972 42.6191 32.8397L40.5682 30.9489C40.4159 30.8083 40.2943 30.6375 40.2112 30.4473C40.128 30.2571 40.0852 30.0517 40.0854 29.8441C40.0867 29.4676 40.2291 29.1053 40.4844 28.8292C40.7532 28.5366 41.1268 28.363 41.5231 28.3465C41.9195 28.33 42.3062 28.472 42.5981 28.7412L43.6774 29.7411L47.9397 26.0226C48.2114 25.7851 48.5598 25.6543 48.9203 25.6546Z" fill="white"/>
<path d="M32.4086 42.7214H25.8031C25.4063 42.7214 25.0257 42.5633 24.7451 42.2821C24.4645 42.0008 24.3069 41.6193 24.3069 41.2216C24.3069 40.8238 24.4645 40.4423 24.7451 40.161C25.0257 39.8798 25.4063 39.7218 25.8031 39.7218H32.4086C32.8054 39.7218 33.186 39.8798 33.4666 40.161C33.7472 40.4423 33.9048 40.8238 33.9048 41.2216C33.9048 41.6193 33.7472 42.0008 33.4666 42.2821C33.186 42.5633 32.8054 42.7214 32.4086 42.7214Z" fill="white"/>
<path d="M48.5541 42.7214H41.9486C41.5518 42.7214 41.1712 42.5633 40.8906 42.2821C40.61 42.0008 40.4524 41.6193 40.4524 41.2216C40.4524 40.8238 40.61 40.4423 40.8906 40.161C41.1712 39.8798 41.5518 39.7218 41.9486 39.7218H48.5541C48.9509 39.7218 49.3315 39.8798 49.6121 40.161C49.8927 40.4423 50.0503 40.8238 50.0503 41.2216C50.0503 41.6193 49.8927 42.0008 49.6121 42.2821C49.3315 42.5633 48.9509 42.7214 48.5541 42.7214Z" fill="white"/>
<path d="M48.1859 12.1384C47.7891 12.1384 47.4085 11.9804 47.1279 11.6991C46.8473 11.4178 46.6897 11.0364 46.6897 10.6386V1.4998C46.6897 1.10203 46.8473 0.720549 47.1279 0.439282C47.4085 0.158014 47.7891 0 48.1859 0C48.5828 0 48.9633 0.158014 49.2439 0.439282C49.5245 0.720549 49.6822 1.10203 49.6822 1.4998V10.6386C49.6822 11.0364 49.5245 11.4178 49.2439 11.6991C48.9633 11.9804 48.5828 12.1384 48.1859 12.1384Z" fill="white"/>
<path d="M38.6459 12.1384C38.2491 12.1384 37.8685 11.9804 37.5879 11.6991C37.3073 11.4178 37.1497 11.0364 37.1497 10.6386V1.4998C37.1497 1.10203 37.3073 0.720549 37.5879 0.439282C37.8685 0.158014 38.2491 0 38.6459 0C39.0427 0 39.4233 0.158014 39.7039 0.439282C39.9845 0.720549 40.1422 1.10203 40.1422 1.4998V10.6386C40.1422 11.0364 39.9845 11.4178 39.7039 11.6991C39.4233 11.9804 39.0427 12.1384 38.6459 12.1384Z" fill="white"/>
</svg>
