<svg width="62" height="54" viewBox="0 0 62 54" fill="none" xmlns="http://www.w3.org/2000/svg">
<g clip-path="url(#clip0_5_23)">
<path d="M55.781 53.2489C54.316 53.2489 53.361 53.1939 53.302 53.1899C53.0367 53.1822 52.7854 53.0699 52.6033 52.8769C52.4213 52.6839 52.3233 52.4263 52.331 52.1611C52.3387 51.8958 52.4514 51.6444 52.6444 51.4623C52.8373 51.2802 53.0947 51.1822 53.3599 51.1899H53.42C53.441 51.1899 55.551 51.3099 58.297 51.1899C58.5236 51.199 58.7497 51.1617 58.9613 51.08C59.1728 50.9983 59.3654 50.8743 59.5271 50.7153C59.8132 50.3292 59.9547 49.8547 59.927 49.3749C59.9251 49.3446 59.9251 49.3144 59.927 49.2841C59.927 49.0541 60.051 26.2129 59.927 23.9999C59.9255 23.7447 59.8535 23.495 59.7188 23.2782C59.5842 23.0615 59.3922 22.8862 59.164 22.7719C58.8906 22.6252 58.5933 22.5284 58.286 22.4853H5.82198C5.47757 22.4476 5.12924 22.4991 4.81062 22.6352C4.49201 22.7713 4.21388 22.9872 4.00301 23.2621C3.86241 23.4807 3.77032 23.7271 3.73299 23.9843V48.6591C3.69911 49.178 3.81987 49.6951 4.07991 50.1454C4.33996 50.5958 4.72768 50.9589 5.19405 51.1889H47.056C47.3212 51.1889 47.5756 51.2943 47.7631 51.4819C47.9507 51.6694 48.056 51.9237 48.056 52.1889C48.056 52.4541 47.9507 52.7089 47.7631 52.8964C47.5756 53.0839 47.3212 53.1889 47.056 53.1889H5.00301C4.89808 53.1888 4.79387 53.1724 4.69405 53.1401C4.13157 52.9331 3.6176 52.6129 3.18404 52.1991C2.70723 51.7438 2.3317 51.193 2.08187 50.5829C1.83203 49.9728 1.71343 49.3171 1.73396 48.6581V23.9433C1.73396 23.9263 1.73396 23.909 1.73396 23.892C1.7885 23.276 1.99461 22.683 2.33394 22.1659C2.71826 21.6046 3.24312 21.1539 3.85603 20.8588C4.46895 20.5637 5.14852 20.4348 5.82698 20.4843H58.346H58.423C58.9933 20.5437 59.5472 20.7097 60.056 20.974C60.6007 21.2465 61.0621 21.6606 61.3917 22.1728C61.7212 22.685 61.9068 23.2765 61.929 23.8852C62.054 26.1342 61.938 47.8629 61.929 49.2529C61.9897 50.2532 61.6736 51.2401 61.043 52.019C60.7061 52.3875 60.2958 52.6815 59.8386 52.8822C59.3814 53.083 58.8874 53.1862 58.388 53.185C57.415 53.235 56.532 53.2489 55.781 53.2489Z" fill="white"/>
<path d="M1.76793 23.2129L0.0969099 16.9707C-0.0289263 16.4268 -0.0346953 15.8623 0.0799421 15.3159C0.205744 14.7244 0.479323 14.1744 0.87523 13.7173C1.27114 13.2602 1.7765 12.9111 2.34398 12.7022C4.62098 11.7402 47.1909 0.66887 49.0989 0.17287C49.6803 0.0237433 50.2824 -0.0287186 50.881 0.0171082C51.5062 0.0287881 52.1127 0.232449 52.6183 0.600604C53.1238 0.96876 53.5039 1.48321 53.7069 2.07473C54.4069 4.10473 58.5949 20.1281 58.7729 20.8091L56.8379 21.315C56.7949 21.149 52.4889 4.68412 51.8159 2.72512C51.7159 2.43212 51.5039 2.08671 50.7569 2.01271C50.3762 1.98299 49.9932 2.0137 49.6219 2.10305H49.6089C31.7959 6.73305 4.71591 13.8671 3.12291 14.5401C2.85569 14.6281 2.61564 14.7832 2.42565 14.9907C2.23565 15.1982 2.10213 15.4512 2.03795 15.7251C1.98838 15.965 1.98561 16.2122 2.02989 16.4531L3.69994 22.6919L1.76793 23.2129Z" fill="white"/>
<path d="M2.77383 21.604C2.55548 21.6042 2.34306 21.533 2.16899 21.4012C1.99492 21.2694 1.86878 21.0842 1.80983 20.874C1.77478 20.7472 1.76509 20.6147 1.78132 20.4842C1.79755 20.3537 1.83937 20.2276 1.9044 20.1132C1.96942 19.9989 2.05637 19.8985 2.16026 19.8178C2.26415 19.7371 2.38294 19.6777 2.50983 19.643L27.0898 12.843C27.2166 12.8079 27.3491 12.7983 27.4796 12.8145C27.6102 12.8307 27.7362 12.8725 27.8506 12.9376C27.9649 13.0026 28.0653 13.0895 28.146 13.1934C28.2267 13.2973 28.2861 13.4161 28.3208 13.543C28.3559 13.6698 28.3656 13.8023 28.3493 13.9328C28.3331 14.0633 28.2913 14.1894 28.2263 14.3037C28.1612 14.4181 28.0743 14.5185 27.9704 14.5992C27.8665 14.6799 27.7477 14.7393 27.6208 14.774L3.04083 21.571C2.95372 21.594 2.86391 21.6051 2.77383 21.604Z" fill="white"/>
<path d="M33.4979 13.268C33.2785 13.2678 33.0653 13.1954 32.8911 13.062C32.7169 12.9287 32.5914 12.7417 32.5339 12.53C32.4643 12.2745 32.499 12.0018 32.6302 11.7718C32.7614 11.5417 32.9785 11.3731 33.2339 11.303L53.4259 5.816C53.6814 5.74642 53.9541 5.78105 54.1842 5.91228C54.4142 6.04351 54.5828 6.26063 54.6529 6.516C54.7225 6.77153 54.6879 7.04422 54.5566 7.27425C54.4254 7.50427 54.2083 7.67285 53.9529 7.743L33.7599 13.233C33.6745 13.2562 33.5864 13.268 33.4979 13.268Z" fill="white"/>
<path d="M31.9619 22.485C31.7447 22.4849 31.5335 22.4141 31.3601 22.2833C31.1867 22.1525 31.0606 21.9688 31.0009 21.76C30.9647 21.6337 30.9537 21.5016 30.9686 21.3711C30.9835 21.2406 31.0239 21.1143 31.0876 20.9994C31.1513 20.8845 31.2371 20.7833 31.3399 20.7016C31.4427 20.6198 31.5606 20.5592 31.6869 20.523L49.3179 15.476C49.4442 15.4398 49.5763 15.4288 49.7068 15.4437C49.8373 15.4586 49.9636 15.499 50.0785 15.5627C50.1934 15.6264 50.2946 15.7122 50.3763 15.815C50.4581 15.9178 50.5187 16.0357 50.5549 16.162C50.6277 16.417 50.5962 16.6905 50.4673 16.9223C50.3385 17.1541 50.1229 17.3252 49.8679 17.398L32.2369 22.446C32.1475 22.4717 32.0549 22.4849 31.9619 22.485Z" fill="white"/>
<path d="M52.591 16.782C52.381 16.782 52.1764 16.716 52.006 16.5932C51.8357 16.4705 51.7083 16.2972 51.642 16.098C51.6001 15.9733 51.5833 15.8415 51.5925 15.7102C51.6017 15.579 51.6367 15.4508 51.6955 15.3331C51.7543 15.2154 51.8358 15.1105 51.9352 15.0243C52.0346 14.9382 52.1501 14.8725 52.275 14.831L55.567 13.731C55.8185 13.6471 56.0931 13.6665 56.3304 13.785C56.5676 13.9036 56.748 14.1115 56.832 14.363C56.874 14.4878 56.8909 14.6197 56.8818 14.751C56.8727 14.8824 56.8377 15.0107 56.7789 15.1285C56.7201 15.2463 56.6386 15.3513 56.539 15.4376C56.4395 15.5238 56.324 15.5895 56.199 15.631L52.907 16.728C52.8052 16.7629 52.6985 16.7811 52.591 16.782Z" fill="white"/>
<path d="M32.229 42.3148C30.6463 42.2565 29.122 41.7021 27.8719 40.7298C27.6713 40.5605 27.5453 40.3189 27.5211 40.0574C27.4969 39.796 27.5766 39.5356 27.7428 39.3324C27.909 39.1291 28.1485 38.9997 28.4095 38.9715C28.6706 38.9433 28.9321 39.0189 29.1379 39.182C29.1769 39.214 31.438 40.9939 33.645 40.0169C33.981 39.8689 34.3939 39.6267 34.4559 39.3167C34.4382 38.8614 34.2535 38.4287 33.937 38.1009C33.3753 37.7522 32.73 37.561 32.0689 37.5477C31.4699 37.5603 30.8752 37.4431 30.3257 37.2044C29.7761 36.9657 29.2846 36.6113 28.885 36.1649C28.5549 35.7606 28.321 35.2866 28.2012 34.7786C28.0813 34.2707 28.0785 33.7419 28.193 33.2327C28.3037 32.6024 28.6057 32.0213 29.0582 31.5687C29.5107 31.116 30.0916 30.8139 30.7219 30.703C31.5863 30.5097 32.4835 30.5174 33.3445 30.7254C34.2054 30.9335 35.0072 31.3361 35.688 31.9027C35.7833 31.9938 35.8596 32.1027 35.9126 32.2235C35.9656 32.3442 35.9941 32.4745 35.9967 32.6063C35.9992 32.7381 35.9756 32.8689 35.9273 32.9915C35.8791 33.1142 35.807 33.2264 35.7153 33.3211C35.6236 33.4158 35.5141 33.4915 35.393 33.5438C35.272 33.596 35.1418 33.6236 35.01 33.6253C34.8782 33.6271 34.7474 33.6031 34.625 33.554C34.5026 33.505 34.3911 33.4319 34.297 33.3397C33.7384 32.9049 33.0654 32.6423 32.36 32.5838L32.308 32.5789C31.9191 32.5445 31.5272 32.5723 31.147 32.661C30.387 32.855 30.221 33.2607 30.161 33.5907C30.1028 33.8117 30.0958 34.0433 30.1407 34.2674C30.1856 34.4915 30.2811 34.7021 30.4199 34.8836C30.6335 35.1029 30.8905 35.2758 31.1744 35.3905C31.4583 35.5051 31.7629 35.5591 32.0689 35.5496C33.1855 35.5583 34.2736 35.9029 35.192 36.5379L35.256 36.5848L35.312 36.6429C35.7096 37.0394 36.0149 37.5184 36.2064 38.0462C36.3979 38.574 36.4708 39.1374 36.4199 39.6966C36.3006 40.1924 36.0575 40.6503 35.7134 41.0267C35.3692 41.403 34.9352 41.6859 34.452 41.849C33.7518 42.1583 32.9944 42.3169 32.229 42.3148Z" fill="white"/>
<path d="M32.2549 44.286C31.9897 44.286 31.7353 44.1806 31.5478 43.9931C31.3602 43.8056 31.2549 43.5512 31.2549 43.286V29.968C31.2549 29.7028 31.3602 29.4484 31.5478 29.2609C31.7353 29.0734 31.9897 28.968 32.2549 28.968C32.5201 28.968 32.7745 29.0734 32.962 29.2609C33.1495 29.4484 33.2549 29.7028 33.2549 29.968V43.286C33.2549 43.5512 33.1495 43.8056 32.962 43.9931C32.7745 44.1806 32.5201 44.286 32.2549 44.286Z" fill="white"/>
</g>
<defs>
<clipPath id="clip0_5_23">
<rect width="61.983" height="53.249" fill="white"/>
</clipPath>
</defs>
</svg>
