<svg width="59" height="52" viewBox="0 0 59 52" fill="none" xmlns="http://www.w3.org/2000/svg">
<g clip-path="url(#clip0_5_34)">
<path d="M30.2668 33.2529C30.2749 33.2602 30.2859 33.2645 30.2974 33.2647C30.309 33.265 30.3201 33.2613 30.3286 33.2544L49.6457 16.4511C49.6628 16.4365 49.7816 16.2016 49.6446 16.0934C49.5076 15.9852 49.242 16.0784 49.2248 16.0931L41.3215 22.7337L39.7793 21.8738C38.353 21.0785 37.1373 21.7634 35.9262 22.7945L27.8079 29.7064L12.4679 15.7284C12.3725 15.6415 12.242 15.5914 12.1051 15.5891C11.9682 15.5868 11.8361 15.6325 11.7379 15.7161C11.6396 15.7998 11.5833 15.9145 11.5813 16.0351C11.5792 16.1557 11.6317 16.2723 11.727 16.3592L29.9395 32.9546L29.9729 32.985L30.131 33.1066L30.2619 33.2513L30.2668 33.2557M28.6032 34.6721C28.5504 34.6241 28.5008 34.5743 28.4543 34.5228C28.3924 34.4755 28.3324 34.4254 28.2743 34.3724L10.0618 17.777C9.5381 17.2998 9.25015 16.6597 9.2613 15.9975C9.27245 15.3353 9.58178 14.7053 10.1212 14.246C10.6607 13.7867 11.3861 13.5358 12.1378 13.5484C12.8896 13.5611 13.6061 13.8363 14.1298 14.3135L27.857 26.8219L34.3129 21.3254C36.3269 19.6106 38.7408 18.8838 41.0146 20.1513L47.578 14.5632C48.147 14.1892 48.8451 13.9989 49.556 14.0241C50.2669 14.0493 50.9475 14.2885 51.4843 14.7016C51.9328 15.1778 52.1793 15.7762 52.1811 16.3937C52.1828 17.0111 51.9398 17.6088 51.494 18.0836L31.9452 34.7274C31.7224 34.917 31.4592 35.0658 31.1706 35.1655C30.8821 35.2652 30.5738 35.3137 30.2635 35.3083C29.9531 35.3029 29.6468 35.2437 29.3619 35.134C29.077 35.0244 28.8192 34.8664 28.6032 34.6692L28.6032 34.6721Z" fill="white"/>
<path d="M23.8147 37.2529L0.807489 16.2884C0.593342 16.0933 0.475597 15.8315 0.480156 15.5607C0.484716 15.29 0.611207 15.0323 0.831802 14.8445C1.0524 14.6567 1.34903 14.5541 1.65644 14.5593C1.96385 14.5644 2.25685 14.677 2.471 14.8721L25.4562 35.8165C26.1982 36.4115 27.0502 36.8903 27.9749 37.2319C28.7011 37.5058 29.4884 37.629 30.2759 37.5918C31.1949 37.524 32.0637 37.1982 32.7548 36.6625C36.8984 33.6366 48.78 23.0187 48.9031 22.9139L56.4282 16.507C56.6488 16.3192 56.9455 16.2166 57.2529 16.2218C57.5603 16.227 57.8533 16.3395 58.0674 16.5346C58.2816 16.7298 58.3993 16.9915 58.3948 17.2623C58.3902 17.5331 58.2637 17.7907 58.0431 17.9785L50.549 24.359C49.9292 24.9133 38.4489 35.1657 34.2466 38.2388C33.1731 39.0536 31.8295 39.5423 30.4137 39.633C29.2604 39.6863 28.1078 39.5034 27.046 39.0987C25.8626 38.6572 24.7752 38.0368 23.8331 37.2657L23.8147 37.2529Z" fill="white"/>
<path d="M44.0544 11.2289C43.723 10.9266 43.2977 10.7174 42.8322 10.6276C42.3668 10.5379 41.8822 10.5716 41.4398 10.7245C40.9973 10.8775 40.6168 11.1428 40.3464 11.4869C40.076 11.831 39.9279 12.2384 39.9208 12.6577C39.9136 13.0769 40.0478 13.4892 40.3063 13.8423C40.5648 14.1953 40.9361 14.4734 41.3731 14.6413C41.8101 14.8092 42.2933 14.8593 42.7615 14.7854C43.2297 14.7115 43.6619 14.5168 44.0034 14.226C44.4607 13.8359 44.7229 13.3013 44.7325 12.7394C44.7421 12.1775 44.4982 11.6343 44.0544 11.2289ZM45.718 9.8125C46.369 10.4057 46.8064 11.1548 46.9751 11.9651C47.1439 12.7755 47.0362 13.6107 46.6658 14.3651C46.2954 15.1196 45.6789 15.7593 44.8942 16.2036C44.1096 16.6478 43.192 16.8765 42.2576 16.8607C41.3231 16.845 40.4138 16.5856 39.6445 16.1152C38.8753 15.6448 38.2807 14.9846 37.9359 14.2182C37.5911 13.4517 37.5116 12.6133 37.7075 11.8091C37.9034 11.0049 38.3659 10.2709 39.0364 9.70001C39.9356 8.93445 41.1447 8.51622 42.3977 8.53732C43.6508 8.55841 44.8451 9.01711 45.718 9.8125Z" fill="white"/>
</g>
<defs>
<clipPath id="clip0_5_34">
<rect width="59" height="52" fill="white"/>
</clipPath>
</defs>
</svg>
