<svg width="20" height="19" viewBox="0 0 20 19" fill="none" xmlns="http://www.w3.org/2000/svg">
<g clip-path="url(#clip0_26_18)">
<path d="M-0.000976562 10.9492C0.0119793 8.93428 0.824692 7.00585 2.2583 5.58987C3.69191 4.17389 5.62908 3.38649 7.64404 3.39846C8.64209 3.392 9.63161 3.58107 10.5562 3.95705C11.4807 4.33304 12.3222 4.88869 13.0325 5.58987C13.7428 6.29105 14.3079 7.12532 14.6958 8.04494C15.0837 8.96457 15.2866 9.95119 15.293 10.9492C15.2866 11.9473 15.0837 12.9339 14.6958 13.8535C14.3079 14.7732 13.7428 15.6074 13.0325 16.3086C12.3222 17.0098 11.4807 17.5635 10.5562 17.9395C9.63161 18.3155 8.64209 18.5065 7.64404 18.5C5.62908 18.512 3.69191 17.7226 2.2583 16.3067C0.824692 14.8907 0.0119793 12.9642 -0.000976562 10.9492ZM1.52612 10.9492C1.53828 12.5607 2.18893 14.1003 3.33569 15.2324C4.48246 16.3646 6.03163 16.9968 7.64307 16.9883C9.2546 16.9968 10.8038 16.3665 11.9507 15.2344C13.0976 14.1023 13.7486 12.5607 13.761 10.9492C13.7486 9.33755 13.0975 7.79652 11.9507 6.66409C10.8038 5.53166 9.25478 4.90024 7.64307 4.90823C6.03169 4.90077 4.4831 5.53171 3.33667 6.66409C2.19024 7.79646 1.53855 9.3379 1.52612 10.9492ZM5.29395 13.5117V12.3125L7.59399 9.88674H5.43701V8.38674H9.99902V9.59182L7.66797 12.0078H9.99902V13.5078L5.29395 13.5117ZM16.437 8.38674C16.2403 8.38792 16.051 8.31188 15.9089 8.1758C15.7669 8.03973 15.6833 7.8548 15.676 7.65823C15.6709 7.45746 15.7452 7.26346 15.8828 7.11721C16.0205 6.97096 16.2104 6.88403 16.4111 6.87698L18.7109 6.7969C18.9117 6.78931 19.1075 6.86183 19.2551 6.99807C19.4028 7.13431 19.4904 7.32273 19.499 7.52346C19.5024 7.62308 19.4859 7.72317 19.4507 7.81643C19.4155 7.90969 19.3623 7.9958 19.2939 8.06838C19.2256 8.14097 19.1437 8.19753 19.0527 8.2383C18.9618 8.27908 18.8636 8.302 18.7639 8.30471L16.4709 8.38674H16.437ZM14.709 5.47659C14.6444 5.40126 14.5954 5.31517 14.5649 5.22073C14.5345 5.12628 14.5233 5.02663 14.5317 4.92776C14.5402 4.82889 14.5684 4.73245 14.6145 4.64455C14.6606 4.55666 14.7236 4.47732 14.8 4.41409L16.71 2.82034C16.8658 2.6922 17.0658 2.63127 17.2668 2.64846C17.4679 2.66565 17.6543 2.75939 17.7861 2.91213C17.8508 2.98762 17.8997 3.07533 17.9302 3.16994C17.9606 3.26455 17.9718 3.36584 17.9634 3.46487C17.9549 3.5639 17.9269 3.66001 17.8809 3.74807C17.8348 3.83613 17.7716 3.91317 17.6951 3.97659L15.7849 5.57034C15.6454 5.68333 15.4716 5.74518 15.292 5.74612C15.1813 5.7454 15.0721 5.72239 14.9717 5.6758C14.8713 5.62922 14.781 5.56063 14.709 5.47659ZM11.8511 3.02151V0.757835C11.8513 0.657692 11.8712 0.559189 11.9099 0.46682C11.9486 0.37445 12.0052 0.291165 12.0764 0.220726C12.1476 0.150287 12.2319 0.0943777 12.3247 0.0566635C12.4175 0.0189493 12.5168 -0.000768048 12.6169 2.28963e-05C12.7168 -0.000371822 12.8158 0.0187595 12.9082 0.0566635C13.0006 0.0945675 13.0845 0.150313 13.1553 0.220726C13.2261 0.291139 13.2822 0.374653 13.3206 0.46682C13.3589 0.558986 13.3788 0.657993 13.3789 0.757835V3.02151C13.3785 3.12118 13.3586 3.22059 13.3201 3.31252C13.2816 3.40446 13.2253 3.48842 13.1545 3.55862C13.0838 3.62882 13 3.68295 12.9077 3.72073C12.8155 3.75851 12.7166 3.77776 12.6169 3.77737C12.5169 3.77816 12.4178 3.76034 12.3252 3.72268C12.2325 3.68502 12.1482 3.62896 12.0771 3.55862C12.0061 3.48827 11.9495 3.40477 11.9109 3.31252C11.8723 3.22027 11.8513 3.12152 11.8511 3.02151Z" fill="black"/>
</g>
<defs>
<clipPath id="clip0_26_18">
<rect width="19.497" height="18.5" fill="white"/>
</clipPath>
</defs>
</svg>
