<svg width="15" height="16" viewBox="0 0 15 16" fill="none" xmlns="http://www.w3.org/2000/svg">
<g clip-path="url(#clip0_26_14)">
<path d="M14.199 7.23202C14.1769 7.82412 14.0897 8.41199 13.939 8.98502C13.7993 9.53237 13.5691 10.0525 13.258 10.524C12.9594 10.9703 12.5648 11.3441 12.103 11.618C11.5887 11.9067 11.0056 12.0505 10.416 12.034C9.99017 12.042 9.56963 11.9385 9.19602 11.734C8.84584 11.5374 8.55976 11.244 8.37202 10.889C8.12379 11.2428 7.7917 11.5294 7.40548 11.7233C7.01927 11.9172 6.591 12.0123 6.15902 12C5.77566 12.0059 5.39717 11.9136 5.05954 11.7319C4.7219 11.5502 4.43635 11.2852 4.23002 10.962C3.99477 10.5964 3.83183 10.189 3.75002 9.76202C3.64949 9.24526 3.62825 8.71619 3.68702 8.19302C3.75804 7.53325 3.91886 6.88627 4.16502 6.27002C4.37634 5.73472 4.6747 5.23802 5.04802 4.80002C5.38344 4.40674 5.79683 4.08734 6.26202 3.86202C6.72334 3.64275 7.22826 3.53062 7.73902 3.53402C8.03509 3.53049 8.3308 3.55561 8.62202 3.60902C8.85661 3.65488 9.08606 3.72388 9.30702 3.81502C9.50468 3.8984 9.69473 3.99877 9.87502 4.11502C10.048 4.22702 10.223 4.34202 10.396 4.46002L9.96702 9.39503C9.93709 9.58694 9.9415 9.78265 9.98002 9.97302C10.0082 10.1045 10.0687 10.2268 10.156 10.329C10.2326 10.416 10.3315 10.4803 10.442 10.515C10.6121 10.5684 10.7929 10.578 10.9676 10.543C11.1424 10.5081 11.3056 10.4297 11.442 10.315C11.6668 10.1261 11.8502 9.8929 11.981 9.63002C12.1438 9.30299 12.2654 8.95702 12.343 8.60003C12.4351 8.17811 12.4883 7.74865 12.502 7.31702C12.5538 6.51154 12.4864 5.70282 12.302 4.91702C12.1448 4.24185 11.8421 3.60913 11.415 3.06302C10.9917 2.54253 10.4476 2.13334 9.83002 1.87102C9.09505 1.5719 8.30629 1.42756 7.51302 1.44702C6.72094 1.43403 5.93667 1.6052 5.22202 1.94702C4.54891 2.27867 3.95459 2.75058 3.47902 3.33102C2.97702 3.95127 2.59086 4.65687 2.33902 5.41402C2.0576 6.2521 1.896 7.12573 1.85902 8.00902C1.80335 8.89905 1.886 9.79232 2.10402 10.657C2.27927 11.3551 2.60982 12.0045 3.07102 12.557C3.51329 13.0683 4.07686 13.4602 4.71002 13.697C5.43447 13.9606 6.20123 14.0888 6.97202 14.075C7.47069 14.0696 7.96766 14.016 8.45602 13.915C8.70102 13.866 8.93302 13.807 9.15602 13.743C9.36019 13.6836 9.56056 13.6118 9.75602 13.528L10.066 14.928C9.85449 15.0632 9.62882 15.1749 9.39302 15.261C9.13157 15.3548 8.86435 15.4316 8.59302 15.491C8.04767 15.6127 7.49077 15.675 6.93202 15.677C5.90177 15.6948 4.87654 15.5295 3.90402 15.189C3.0627 14.8892 2.30577 14.3916 1.69702 13.738C1.07881 13.049 0.625677 12.2283 0.372023 11.338C0.0667796 10.2572 -0.0582293 9.13349 0.00202337 8.01202C0.0408344 6.92073 0.255598 5.84286 0.638023 4.82002C0.986135 3.8836 1.5087 3.0217 2.17802 2.28002C2.83325 1.56621 3.62979 0.996474 4.51702 0.607025C5.47236 0.191495 6.50535 -0.0154436 7.54702 2.45927e-05C8.5504 -0.0189532 9.54769 0.159778 10.482 0.526025C11.2916 0.849141 12.0165 1.35336 12.601 2.00002C13.1806 2.66129 13.6095 3.44061 13.858 4.28402C14.139 5.24004 14.2544 6.2371 14.199 7.23202ZM5.79002 8.19203C5.70695 8.74838 5.76612 9.31672 5.96202 9.84402C6.0294 10.0134 6.14736 10.1578 6.29983 10.2577C6.4523 10.3575 6.63186 10.4079 6.81402 10.402C6.9136 10.3996 7.01216 10.3814 7.10602 10.348C7.22965 10.3032 7.34366 10.2353 7.44202 10.148C7.57558 10.0288 7.69052 9.89029 7.78302 9.73703C7.91542 9.51728 8.02053 9.28221 8.09602 9.03702L8.43002 5.20502C8.26015 5.15921 8.08497 5.13601 7.90902 5.13602C7.60784 5.12909 7.30973 5.19785 7.04202 5.33602C6.79173 5.47627 6.58062 5.67706 6.42802 5.92002C6.24418 6.21739 6.10693 6.54114 6.02102 6.88002C5.90831 7.31031 5.83105 7.74911 5.79002 8.19203Z" fill="#A7A7A7"/>
</g>
<defs>
<clipPath id="clip0_26_14">
<rect width="14.209" height="15.669" fill="white"/>
</clipPath>
</defs>
</svg>
