<svg width="17" height="16" viewBox="0 0 17 16" fill="none" xmlns="http://www.w3.org/2000/svg">
<path d="M16.1309 11.543C14.7099 11.601 15.0189 10.405 13.4809 10.405C11.9429 10.405 11.8159 11.543 10.8229 11.543C9.82994 11.543 9.70393 10.405 8.16393 10.405C6.63993 10.405 6.48493 11.543 5.51393 11.543C4.51393 11.543 4.40393 10.405 2.85493 10.405C1.30593 10.405 1.17693 11.703 0.197935 11.543V9.97498C0.197935 9.52216 0.377747 9.08787 0.697843 8.76759C1.01794 8.44731 1.45212 8.26724 1.90493 8.26698H3.00493V4.42098H4.22093V8.26698H7.58593V4.42098H8.87393V8.26698H12.0069V4.42098H13.3649V8.26698H14.4239C14.6501 8.25946 14.8755 8.29847 15.086 8.38159C15.2965 8.46472 15.4877 8.59018 15.6477 8.75022C15.8077 8.91025 15.9332 9.10144 16.0163 9.31195C16.0994 9.52245 16.1385 9.74778 16.1309 9.97398V11.543ZM16.2589 15.525H0.324935C0.136157 15.3128 0.021565 15.0449 -0.0015271 14.7619C-0.0246192 14.4788 0.0450432 14.1959 0.196935 13.956C0.497136 13.5454 0.902377 13.2232 1.37009 13.0233C1.83779 12.8234 2.3507 12.7532 2.85493 12.82C3.84893 12.82 3.96693 13.958 5.51393 13.958C7.03793 13.958 7.19293 12.82 8.16393 12.82C9.16393 12.82 9.27394 13.958 10.8229 13.958C12.3719 13.958 12.4859 12.82 13.4819 12.82C13.9801 12.8038 14.4756 12.8974 14.9336 13.0941C15.3915 13.2907 15.8006 13.5857 16.1319 13.958C16.2958 14.1824 16.394 14.448 16.4157 14.725C16.4375 15.0021 16.3818 15.2797 16.2549 15.527L16.2589 15.525ZM3.77993 3.41498C3.63038 3.41537 3.48222 3.38621 3.34397 3.32916C3.20573 3.27211 3.08012 3.1883 2.97436 3.08255C2.86861 2.97679 2.7848 2.85119 2.72775 2.71294C2.6707 2.57469 2.64154 2.42653 2.64193 2.27698C2.64193 1.17698 3.77993 1.45898 3.77993 0.000976562C4.20693 0.000976562 4.91793 1.04998 4.91793 1.99298C4.91793 2.93598 4.41193 3.41498 3.77993 3.41498ZM8.33193 3.41498C8.18246 3.41524 8.03441 3.38598 7.89628 3.32887C7.75815 3.27176 7.63266 3.18793 7.52701 3.08219C7.42137 2.97645 7.33765 2.85089 7.28066 2.71271C7.22367 2.57452 7.19454 2.42645 7.19493 2.27698C7.19493 1.17698 8.33294 1.45898 8.33294 0.000976562C8.75994 0.000976562 9.47093 1.04998 9.47093 1.99298C9.47093 2.93598 8.96394 3.41498 8.33294 3.41498H8.33193ZM12.8839 3.41498C12.7344 3.41537 12.5862 3.38621 12.448 3.32916C12.3097 3.27211 12.1841 3.1883 12.0784 3.08255C11.9726 2.97679 11.8888 2.85119 11.8318 2.71294C11.7747 2.57469 11.7455 2.42653 11.7459 2.27698C11.7459 1.17698 12.8839 1.45898 12.8839 0.000976562C13.3109 0.000976562 14.0219 1.04998 14.0219 1.99298C14.0219 2.93598 13.5159 3.41498 12.8839 3.41498Z" fill="#EFA834"/>
</svg>
