<svg width="14" height="14" viewBox="0 0 14 14" fill="none" xmlns="http://www.w3.org/2000/svg">
<g clip-path="url(#clip0_26_27)">
<path d="M0 10.447V13.196H2.75L10.857 5.08901L8.107 2.34001L0 10.447ZM12.982 2.96302C13.05 2.8952 13.104 2.81462 13.1408 2.7259C13.1777 2.63719 13.1966 2.54207 13.1966 2.44601C13.1966 2.34996 13.1777 2.25484 13.1408 2.16612C13.104 2.07741 13.05 1.99683 12.982 1.92901L11.267 0.214015C11.1992 0.145985 11.1186 0.0920075 11.0299 0.0551777C10.9412 0.0183479 10.8461 -0.000610352 10.75 -0.000610352C10.6539 -0.000610352 10.5588 0.0183479 10.4701 0.0551777C10.3814 0.0920075 10.3008 0.145985 10.233 0.214015L8.892 1.55502L11.641 4.30401L12.982 2.96302Z" fill="black"/>
</g>
<defs>
<clipPath id="clip0_26_27">
<rect width="13.196" height="13.196" fill="white"/>
</clipPath>
</defs>
</svg>
