<svg width="9" height="17" viewBox="0 0 9 17" fill="none" xmlns="http://www.w3.org/2000/svg">
<g clip-path="url(#clip0_35_18)">
<path d="M8.147 9.15604L8.599 6.21004H5.773V4.30004C5.7531 4.08 5.78295 3.8583 5.86034 3.65135C5.93774 3.44441 6.0607 3.25753 6.22011 3.10455C6.37952 2.95157 6.57131 2.83641 6.78126 2.7676C6.99122 2.69879 7.21396 2.6781 7.433 2.70704H8.718V0.200043C7.96356 0.0778438 7.20119 0.0109987 6.437 4.32264e-05C5.91165 -0.0388162 5.38418 0.0380902 4.89181 0.225336C4.39943 0.412581 3.95414 0.705602 3.58737 1.08372C3.2206 1.46184 2.94128 1.91585 2.76912 2.4137C2.59696 2.91156 2.53615 3.44113 2.591 3.96504V6.21004H0V9.15604H2.591V16.277H5.773V9.15604H8.147Z" fill="#3F64AB"/>
</g>
<defs>
<clipPath id="clip0_35_18">
<rect width="8.718" height="16.277" fill="white"/>
</clipPath>
</defs>
</svg>
