<svg width="20" height="14" viewBox="0 0 20 14" fill="none" xmlns="http://www.w3.org/2000/svg">
<path d="M0.490967 12.6387L1.74304 11.0879L0 9.68164L0.940063 8.51953L2.68298 9.93164L3.66699 8.7207C2.96489 7.92597 2.56726 6.90786 2.54456 5.84766C2.52185 4.78745 2.87552 3.75375 3.54297 2.92969C3.91328 2.47177 4.37035 2.09169 4.88782 1.81055C5.40529 1.5294 5.97302 1.3525 6.55872 1.29102C7.14441 1.22953 7.73657 1.28557 8.30115 1.45312C8.86572 1.62068 9.39166 1.89655 9.849 2.26758C10.4178 2.72872 10.8644 3.32336 11.149 3.99805C11.9767 4.05061 12.7732 4.33362 13.449 4.81445L16.774 1.49219H13.842V0H19.321V5.48242H17.827V2.55469L14.509 5.87305C15.0496 6.63205 15.3392 7.54276 15.337 8.47461C15.3376 9.06353 15.222 9.64521 14.9969 10.1895C14.7719 10.7337 14.4419 11.2299 14.0256 11.6465C13.6094 12.0631 13.1152 12.3936 12.5712 12.6191C12.0271 12.8446 11.4439 12.9609 10.855 12.9609C9.97491 12.9607 9.11446 12.7006 8.38062 12.2148C7.64677 11.7291 7.07201 11.0386 6.72803 10.2285C6.05834 10.1834 5.40717 9.98896 4.82202 9.66016L3.84497 10.8711L5.58203 12.2793L4.64197 13.4453L2.90503 12.0312L1.64807 13.584L0.490967 12.6387ZM10.8571 11.4648C11.6501 11.4633 12.41 11.1472 12.9702 10.5859C13.5304 10.0246 13.845 9.26372 13.845 8.4707C13.8442 7.7906 13.6119 7.13196 13.1862 6.60156C12.7605 6.07116 12.1669 5.70066 11.5031 5.55273C11.5515 6.64746 11.1976 7.72254 10.5081 8.57422C9.9436 9.27519 9.1795 9.78787 8.31702 10.0449C8.58513 10.4777 8.95896 10.8356 9.40332 11.084C9.84768 11.3324 10.348 11.4631 10.8571 11.4648ZM4.70605 3.86523C4.20711 4.48149 3.97339 5.27002 4.05627 6.05859C4.13916 6.84717 4.53189 7.57127 5.14807 8.07031C5.50479 8.36422 5.92697 8.56771 6.37903 8.66406C6.37903 8.60006 6.37903 8.53384 6.37903 8.46484C6.37985 7.50145 6.69067 6.56217 7.2655 5.78906C7.84034 5.01595 8.64869 4.45008 9.57104 4.17188C9.39625 3.88636 9.17409 3.63273 8.91406 3.42188C8.38224 2.99052 7.71784 2.75592 7.03308 2.75781C6.58604 2.7554 6.14422 2.85272 5.7406 3.04492C5.33698 3.23712 4.98193 3.51862 4.70203 3.86719L4.70605 3.86523ZM7.86902 8.46484C7.86902 8.51584 7.86902 8.56437 7.86902 8.60938C8.45069 8.44017 8.96655 8.09833 9.34705 7.62695C9.80933 7.05582 10.0437 6.33337 10.005 5.59961C9.38814 5.78612 8.8476 6.16454 8.46301 6.68164C8.07842 7.19875 7.87017 7.82626 7.86902 8.4707V8.46484Z" fill="#EFA834"/>
</svg>
