<svg width="18" height="16" viewBox="0 0 18 16" fill="none" xmlns="http://www.w3.org/2000/svg">
<g clip-path="url(#clip0_26_16)">
<path d="M12.205 0.00300121C13.1619 0.00299433 14.0973 0.286734 14.8929 0.81834C15.6885 1.34995 16.3086 2.10554 16.6748 2.98957C17.041 3.87361 17.1368 4.84637 16.9501 5.78486C16.7634 6.72334 16.3026 7.58539 15.626 8.262L9.04803 14.838C8.90851 14.9775 8.7193 15.0558 8.52203 15.0558C8.32475 15.0558 8.13555 14.9775 7.99603 14.838L1.41702 8.26C0.967772 7.81075 0.611406 7.27741 0.368273 6.69043C0.125139 6.10346 4.73364e-09 5.47434 0 4.839C-4.73364e-09 4.20366 0.125139 3.57455 0.368273 2.98757C0.611406 2.40059 0.967772 1.86725 1.41702 1.418C1.86628 0.968749 2.39962 0.612383 2.98659 0.369249C3.57357 0.126116 4.20269 0.000976558 4.83802 0.000976562C5.47336 0.000976567 6.10248 0.126116 6.68946 0.369249C7.27643 0.612383 7.80977 0.968749 8.25902 1.418L8.52203 1.681L8.78502 1.418C9.23323 0.967765 9.76628 0.610881 10.3533 0.367999C10.9404 0.125116 11.5697 0.00105782 12.205 0.00300121ZM8.52203 13.259L14.577 7.203C14.899 6.89428 15.156 6.52437 15.3331 6.11498C15.5101 5.70559 15.6037 5.26496 15.6082 4.81894C15.6127 4.37292 15.5281 3.9305 15.3593 3.51761C15.1906 3.10473 14.941 2.7297 14.6254 2.41454C14.3098 2.09937 13.9344 1.85041 13.5213 1.68226C13.1081 1.51411 12.6656 1.43015 12.2196 1.43532C11.7735 1.44048 11.3331 1.53467 10.9239 1.71234C10.5148 1.89002 10.1453 2.14761 9.83702 2.47L9.04803 3.259C8.90851 3.39847 8.7193 3.47683 8.52203 3.47683C8.32475 3.47683 8.13555 3.39847 7.99603 3.259L7.20702 2.47C6.89978 2.14348 6.53011 1.88195 6.11993 1.70092C5.70975 1.51988 5.26741 1.42303 4.81911 1.41609C4.37081 1.40916 3.92568 1.49228 3.5101 1.66054C3.09451 1.8288 2.71694 2.07877 2.39974 2.39564C2.08253 2.7125 1.83217 3.08982 1.66347 3.50522C1.49477 3.92063 1.41118 4.36567 1.41764 4.81397C1.4241 5.26228 1.52049 5.70473 1.70109 6.1151C1.88169 6.52547 2.14282 6.89541 2.46902 7.203L8.52203 13.259Z" fill="black"/>
</g>
<defs>
<clipPath id="clip0_26_16">
<rect width="17.043" height="15.056" fill="white"/>
</clipPath>
</defs>
</svg>
