<svg id="Group_2973" data-name="Group 2973" xmlns="http://www.w3.org/2000/svg" xmlns:xlink="http://www.w3.org/1999/xlink" width="251.035" height="194.078" viewBox="0 0 251.035 194.078">
  <defs>
    <clipPath id="clip-path">
      <path id="Rectangle_1596" data-name="Rectangle 1596" d="M0,0H236.035a0,0,0,0,1,0,0V194.078a0,0,0,0,1,0,0H23a23,23,0,0,1-23-23V0A0,0,0,0,1,0,0Z" fill="none"/>
    </clipPath>
    <clipPath id="clip-path-2">
      <path id="Path_8423" data-name="Path 8423" d="M2065.112,803.488a18.411,18.411,0,0,0-17.847,13.594l-9.406,4.745,9.306,4.082a18.4,18.4,0,0,0,17.946,13.989h20.532a18.207,18.207,0,1,0,0-36.411Z" transform="translate(-2037.859 -803.488)" fill="none"/>
    </clipPath>
    <clipPath id="clip-path-3">
      <path id="Path_8448" data-name="Path 8448" d="M1575.293,384.9c-10.156,0-19.191,8.777-18.3,18.951.741,8.452,6.714,15.631,14.991,17.16l4.444,10.45,3.55-10.149h15.847a18.207,18.207,0,1,0,0-36.411Z" transform="translate(-1556.933 -384.9)" fill="none"/>
    </clipPath>
    <clipPath id="clip-path-4">
      <rect id="Rectangle_1597" data-name="Rectangle 1597" width="251.035" height="194.078" fill="none"/>
    </clipPath>
    <clipPath id="clip-path-5">
      <path id="Path_8487" data-name="Path 8487" d="M2087.153,1350.415a16.476,16.476,0,0,0-3.2,11.158c.836,9.541,8.341,17.46,18.3,17.46h20.532a18.207,18.207,0,1,0,0-36.411h-20.532a18.559,18.559,0,0,0-10.07,3.034l-8.19-4.631Z" transform="translate(-2083.893 -1341.026)" fill="none"/>
    </clipPath>
  </defs>
  <g id="Group_2962" data-name="Group 2962">
    <g id="Group_2961" data-name="Group 2961" clip-path="url(#clip-path)">
      <path id="Path_8327" data-name="Path 8327" d="M140.767,1318.878c-1.644,10.3-.665,20.84-1.1,31.273-.617,14.984-6.66,37.529,2.647,50.843,3.115,4.457,9.257,5.885,14.269,4.151s8.889-6.128,11.16-11.112c1.854-4.068,2.269-8.222,3.221-12.531.751-3.4,2.434-6.337,3.523-9.7a126.675,126.675,0,0,0,6.364-46.687c-.71-11.439-3.941-23.872-13.08-30.205-14.432-10-25.1,12.032-27.01,23.964" transform="translate(-139.368 -1172.94)" fill="#edceb4"/>
      <path id="Path_8328" data-name="Path 8328" d="M1182.907,1357.643q-.115.423-.256.85c-1.043,3.167-3.055,6.448-3.915,8.945-1.288,3.744-4.034,7.134-6.266,10.318a23.311,23.311,0,0,1-3.368,4.1,12.015,12.015,0,0,1-9.895,2.8,14.523,14.523,0,0,1-8.9-5.5,4.591,4.591,0,0,1-1.2-2.919,5.276,5.276,0,0,1,.983-2.433l7.469-12.09c1.184-1.916,2.545-3.8,3.586-5.806.884-1.7.574-3.735,1.53-5.427.895-1.583,2.3-2.337,2.666-4.32.258-1.389.347-2.943,1.3-3.943a.762.762,0,0,1,.375-.246.9.9,0,0,1,.6.176,6.273,6.273,0,0,0,.585.29c2.519,1.085,5.182.263,7.539,1.133a5.224,5.224,0,0,1,1.217.638c2.088,1.474,2.69,3.6,3.917,5.72.838,1.449,2.141,2.437,2.377,4.165a9.05,9.05,0,0,1-.338,3.558" transform="translate(-1063.006 -1217.933)" fill="#f4b0ae"/>
      <path id="Path_8329" data-name="Path 8329" d="M1394.8,977.491c-1.631,3.7-6.053,4.863-9.045,7.476a5.716,5.716,0,0,1,4.533,2.323,12.072,12.072,0,0,1,2.136,4.938,1.506,1.506,0,0,1,.051.555,1,1,0,0,1-1.188.714,3.2,3.2,0,0,1-1.321-.766,18.862,18.862,0,0,0-4.037-2.459,1.8,1.8,0,0,0-1.294-.207,2.017,2.017,0,0,0-.94.992c-1.92,3.3-3.7,7.817-6.314,10.554q-.518.809-1.069,1.594a44.868,44.868,0,0,1-5.425,6.378,11.64,11.64,0,0,1-1.795,1.5,5.321,5.321,0,0,1-.98.5,6.16,6.16,0,0,1-1.987.359c-.3.01-.592.007-.887,0a14.923,14.923,0,0,1-8.453-2.775c-3.556-2.667-4.239-5.2-3.363-9.469q.4-1.935.959-3.826a52.363,52.363,0,0,1,11.108-19.719,59.793,59.793,0,0,1,9.872-8.569c3.3-2.4,5.652-5.949,9.657-7.348a1.338,1.338,0,0,1,.861-.089c.864.3.5,1.658-.033,2.428-2.474,3.579-5.2,6.981-7.373,10.767a36.618,36.618,0,0,1,13.067-4.344,1.172,1.172,0,0,1,.786.083c.6.375.211,1.337-.25,1.881a22.263,22.263,0,0,1-5.425,4.409c-1.936,1.23-3.555,2.9-5.425,4.32a58.657,58.657,0,0,1,12.22-3.922,1.413,1.413,0,0,1,1.34.2,1.448,1.448,0,0,1,.014,1.531" transform="translate(-1249.186 -871.372)" fill="#f4b0ae"/>
      <path id="Path_8330" data-name="Path 8330" d="M1426.2,1325.552a44.874,44.874,0,0,1-5.425,6.378c-1.554,1.625-4.255.483-6.276.2-2.281-.322-5.379-.866-6.531-3.376a3.891,3.891,0,0,1-.1-2.351,15.234,15.234,0,0,1,3.943-7.053c2.219-2.349,5.048-4.068,7.725-4.074a6.336,6.336,0,0,1,5.355,3.17,9.922,9.922,0,0,1,1.085,3.153,14.933,14.933,0,0,1,.227,3.957" transform="translate(-1299.079 -1193.718)" fill="#231f20"/>
      <path id="Path_8331" data-name="Path 8331" d="M1419.047,1020.875c-.009,1.046.489,1.325,1.475,1.325l24.186.027a1.821,1.821,0,0,0,1.713-1.317l12.905-42.138a2,2,0,0,0-.1-1.437l-.371-.76-14.734,43.968Z" transform="translate(-1309.404 -886.322)" fill="#d3ecf2"/>
      <path id="Path_8332" data-name="Path 8332" d="M1719.758,1031.385a.047.047,0,0,1-.016,0,.054.054,0,0,1-.032-.068l13.92-43.835a.051.051,0,0,1,.065-.034.054.054,0,0,1,.033.068l-13.92,43.835a.051.051,0,0,1-.049.037" transform="translate(-1583.834 -896.184)" fill="#231f20"/>
      <path id="Path_8333" data-name="Path 8333" d="M1707.222,1451.946a18.339,18.339,0,0,0-1.669-1.326l-.066-.045.084-.14.068.046a18.49,18.49,0,0,1,1.685,1.338Z" transform="translate(-1570.853 -1316.389)" fill="#636363"/>
      <path id="Path_8334" data-name="Path 8334" d="M1715.466,1095.454c-.084.32-.308.535-.5.48s-.282-.359-.2-.679.308-.535.5-.48.283.359.2.679" transform="translate(-1579.294 -993.59)" fill="#231f20"/>
      <path id="Path_8335" data-name="Path 8335" d="M1444.818,1012.67l-25.771-.238,13.877-43.438a2.447,2.447,0,0,1,2.328-1.721l22.66.209a1.015,1.015,0,0,1,.914,1.351Z" transform="translate(-1309.405 -877.878)" fill="#f4f4f4"/>
      <path id="Path_8336" data-name="Path 8336" d="M1194.74,615.76h0a11.257,11.257,0,0,1-3.087.338,2.921,2.921,0,0,1-1.491-.351c-1.032-.645-.824-2.542.506-2.414.48.046.924.886,1.318,1.171a10.855,10.855,0,0,0,2.752,1.256" transform="translate(-1099.893 -556.645)" fill="#231f20"/>
      <path id="Path_8337" data-name="Path 8337" d="M1172.782,640.777a5.609,5.609,0,0,1,.852,1.8c.429,1.918-1.595,3.523-2.814,4.4l-1.574,1.133a2.062,2.062,0,0,1-.742.394,1.417,1.417,0,0,1-1.417-.826,4.839,4.839,0,0,1-.46-1.814,46.443,46.443,0,0,1-.27-6.653c.037-1.206-.355-8.427,2.326-6.606.868.59.922,3.193,1.359,4.193a32.953,32.953,0,0,0,2.739,3.981" transform="translate(-1078.741 -573.873)" fill="#e28a8f"/>
      <path id="Path_8338" data-name="Path 8338" d="M554.775,292.308c-.653,5.473,1.1,14.86-6.008,16.072q-1.87.319-3.756.523-2.254.243-4.521.32a5.189,5.189,0,0,0-3.331.861,5.492,5.492,0,0,0-1.4,3.068l-.025.113c-.5,2.226-.942,4.3-1.5,6.313a33.445,33.445,0,0,1-2.645,6.811c-3.442,6.5-7.268,9.642-14.548,11.2a34.816,34.816,0,0,1-15.03-.339,10.293,10.293,0,0,1-4.885-2.2c-2.562-2.376-1.644-5.831-.092-8.509a69.36,69.36,0,0,0,4.882-10.948,17.842,17.842,0,0,0,1.241-4.931c.219-3.384-1.286-6.59-2.908-9.457a67.035,67.035,0,0,1-5.556-12.446,96.2,96.2,0,0,1-2.528-9.667,52.5,52.5,0,0,1-1.275-9.429,32.771,32.771,0,0,1,5.71-19.259c3.456-4.988,8.708-9.4,14.066-11.381,7.152-2.638,15.071-3.225,22.189-.474a39.733,39.733,0,0,1,16.322,12.574,24.164,24.164,0,0,1,3.927,8.936c.694,3.374.257,6.671.45,10.085.139,2.459.546,4.88.92,7.306.252,1.633.488,3.268.617,4.919q.081,1.036.106,2.075a54.5,54.5,0,0,1-.421,7.86" transform="translate(-462.212 -214.87)" fill="#f4b0ae"/>
      <path id="Path_8339" data-name="Path 8339" d="M240.088,1219.475c-.867,4.856-2.316,9.713-3.331,14.608l-.04.194a52,52,0,0,0-1.059,7.686c-.046.883-.051,1.767-.028,2.651.127,4.885,1.1,9.78.51,14.628a33.391,33.391,0,0,1-2.614,8.979c-1.439,3.4-3.176,6.713-4.544,10.139q-.359.9-.687,1.813a83.454,83.454,0,0,0-2.7,9.506c-.64,2.779-1.2,5.583-1.774,8.374-1.59,7.716-3.394,15.577-7.511,22.193-6.231,10.013-14.476,12.942-25.222,14.2-12.142,1.421-24.736,2.459-36.316-1.614-16.523-5.81-27.1-24.2-23.317-42.191a127.5,127.5,0,0,1,4.006-13.9c1.516-4.552,1.566-8.63,1.693-13.474q.414-15.726.827-31.452c.1-3.969.211-7.958.5-11.921a79.75,79.75,0,0,1,2.024-13.513,41.4,41.4,0,0,1,8.766-17.577l.189-.209c4.387-4.825,12.131-6.965,18.179-8.586a59.339,59.339,0,0,1,5.8-1.249c5.439-.885,11.229-.081,16.767,1.324,2.8.71,5.527,1.572,8.115,2.448a35.82,35.82,0,0,1,8.073,3.431c2.566,1.59,5.057,3.338,7.683,4.8q.462.258.93.5c2.47,1.294,4.79,2.726,7.084,4.2,2.12,1.36,4.217,2.752,6.391,4.1,3.057,1.894,6.553,3.561,8.986,6.323a11.938,11.938,0,0,1,1.729,2.543c1.673,3.332,1.546,7.338.886,11.037" transform="translate(-133.443 -1069.489)" fill="#edceb4"/>
      <path id="Path_8340" data-name="Path 8340" d="M1446.355,1324.144l-2.388,7.848a.85.85,0,0,0,.772,1.114l21.442.2a.821.821,0,0,0,.781-.577l2.651-8.049a.85.85,0,0,0-.773-1.134h-21.706a.823.823,0,0,0-.779.6" transform="translate(-1332.115 -1201.228)" fill="#88cde8"/>
      <path id="Path_8341" data-name="Path 8341" d="M1475.5,1341.045a3.788,3.788,0,0,1-1.246,2.2,3.883,3.883,0,0,1-.795.541,3.518,3.518,0,0,1-1.822.392,2.917,2.917,0,0,1-2.292-1.3,2.831,2.831,0,0,1-.146-.246,3.144,3.144,0,0,1-.3-2,3.8,3.8,0,0,1,3.862-3.135,2.95,2.95,0,0,1,2.737,3.546" transform="translate(-1354.862 -1213.884)" fill="#f4f4f4"/>
      <path id="Path_8342" data-name="Path 8342" d="M1478.691,1377.831a3.885,3.885,0,0,1-.795.541,3.516,3.516,0,0,1-1.822.392,2.916,2.916,0,0,1-2.292-1.3,2.789,2.789,0,0,1-.146-.246,3.023,3.023,0,0,1,2.725-1.155c1.32.082,2.3.847,2.328,1.765" transform="translate(-1359.233 -1248.886)" fill="#ffdbda"/>
      <path id="Path_8343" data-name="Path 8343" d="M1497.447,1348.62A1.425,1.425,0,0,1,1496,1349.8a1.106,1.106,0,0,1-1.026-1.33,1.425,1.425,0,0,1,1.449-1.176,1.106,1.106,0,0,1,1.026,1.33" transform="translate(-1378.689 -1222.774)" fill="#ffdbda"/>
      <path id="Path_8344" data-name="Path 8344" d="M1570.828,1338.44h-11.954a.941.941,0,0,1-.932-1.123l.012-.088a1.312,1.312,0,0,1,1.243-1.123h11.954a.941.941,0,0,1,.932,1.123l-.012.088a1.312,1.312,0,0,1-1.243,1.123" transform="translate(-1436.172 -1212.625)" fill="#f4f4f4"/>
      <path id="Path_8345" data-name="Path 8345" d="M1569.5,1372.075h-13.225l.159-.75h13.225Z" transform="translate(-1434.658 -1244.59)" fill="#231f20"/>
      <path id="Path_8346" data-name="Path 8346" d="M1566.575,1384.9H1553.35l.159-.75h13.225Z" transform="translate(-1431.99 -1256.229)" fill="#231f20"/>
      <path id="Path_8347" data-name="Path 8347" d="M1564.68,1397.993h-13.225l.159-.75h13.225Z" transform="translate(-1430.261 -1268.112)" fill="#231f20"/>
      <path id="Path_8348" data-name="Path 8348" d="M1483.926,1213.826l-2.388,7.848a.85.85,0,0,0,.772,1.114l21.442.2a.821.821,0,0,0,.781-.577l2.651-8.049a.85.85,0,0,0-.773-1.134h-21.706a.823.823,0,0,0-.779.6" transform="translate(-1366.408 -1101.105)" fill="#b4efdc"/>
      <path id="Path_8349" data-name="Path 8349" d="M1513.067,1230.726a3.788,3.788,0,0,1-1.246,2.2,3.89,3.89,0,0,1-.795.541,3.518,3.518,0,0,1-1.822.392,2.917,2.917,0,0,1-2.292-1.3,2.829,2.829,0,0,1-.146-.246,3.144,3.144,0,0,1-.3-2,3.8,3.8,0,0,1,3.862-3.135,2.95,2.95,0,0,1,2.737,3.546" transform="translate(-1389.155 -1113.76)" fill="#f4f4f4"/>
      <path id="Path_8350" data-name="Path 8350" d="M1516.262,1267.512a3.884,3.884,0,0,1-.795.541,3.517,3.517,0,0,1-1.822.392,2.916,2.916,0,0,1-2.292-1.3q-.079-.119-.146-.246a3.023,3.023,0,0,1,2.725-1.155c1.32.082,2.3.847,2.328,1.765" transform="translate(-1393.526 -1148.763)" fill="#ffdbda"/>
      <path id="Path_8351" data-name="Path 8351" d="M1535.018,1238.3a1.426,1.426,0,0,1-1.449,1.176,1.107,1.107,0,0,1-1.027-1.33,1.425,1.425,0,0,1,1.449-1.176,1.107,1.107,0,0,1,1.027,1.33" transform="translate(-1412.982 -1122.651)" fill="#ffdbda"/>
      <path id="Path_8352" data-name="Path 8352" d="M1608.4,1228.12h-11.954a.941.941,0,0,1-.932-1.123l.012-.088a1.312,1.312,0,0,1,1.243-1.123h11.954a.941.941,0,0,1,.932,1.123l-.012.088a1.312,1.312,0,0,1-1.243,1.123" transform="translate(-1470.465 -1112.502)" fill="#f4f4f4"/>
      <path id="Path_8353" data-name="Path 8353" d="M1607.069,1261.757h-13.225l.159-.75h13.225Z" transform="translate(-1468.951 -1144.467)" fill="#231f20"/>
      <path id="Path_8354" data-name="Path 8354" d="M1604.146,1274.582h-13.225l.159-.75h13.225Z" transform="translate(-1466.283 -1156.106)" fill="#231f20"/>
      <path id="Path_8355" data-name="Path 8355" d="M1602.251,1287.674h-13.225l.159-.75h13.225Z" transform="translate(-1464.554 -1167.989)" fill="#231f20"/>
      <path id="Path_8356" data-name="Path 8356" d="M1521.181,1101.637l-2.388,7.848a.85.85,0,0,0,.772,1.114l21.442.2a.821.821,0,0,0,.781-.577l2.651-8.049a.85.85,0,0,0-.773-1.134h-21.706a.822.822,0,0,0-.779.6" transform="translate(-1400.413 -999.285)" fill="#afc9ed"/>
      <path id="Path_8357" data-name="Path 8357" d="M1550.322,1118.538a3.789,3.789,0,0,1-1.246,2.2,3.881,3.881,0,0,1-.795.541,3.517,3.517,0,0,1-1.821.392,2.917,2.917,0,0,1-2.292-1.3,2.816,2.816,0,0,1-.145-.246,3.142,3.142,0,0,1-.3-2,3.8,3.8,0,0,1,3.862-3.135,2.95,2.95,0,0,1,2.737,3.546" transform="translate(-1423.16 -1011.941)" fill="#f4f4f4"/>
      <path id="Path_8358" data-name="Path 8358" d="M1553.518,1155.324a3.885,3.885,0,0,1-.795.541,3.517,3.517,0,0,1-1.822.392,2.916,2.916,0,0,1-2.292-1.3,2.86,2.86,0,0,1-.146-.246,3.023,3.023,0,0,1,2.725-1.155c1.32.082,2.3.847,2.328,1.765" transform="translate(-1427.532 -1046.943)" fill="#ffdbda"/>
      <path id="Path_8359" data-name="Path 8359" d="M1572.273,1126.115a1.425,1.425,0,0,1-1.449,1.176,1.107,1.107,0,0,1-1.026-1.33,1.425,1.425,0,0,1,1.449-1.176,1.107,1.107,0,0,1,1.027,1.33" transform="translate(-1446.987 -1020.831)" fill="#ffdbda"/>
      <path id="Path_8360" data-name="Path 8360" d="M1645.654,1115.932H1633.7a.941.941,0,0,1-.932-1.123l.012-.088a1.312,1.312,0,0,1,1.243-1.123h11.954a.941.941,0,0,1,.932,1.123l-.012.088a1.313,1.313,0,0,1-1.243,1.123" transform="translate(-1504.469 -1010.682)" fill="#f4f4f4"/>
      <path id="Path_8361" data-name="Path 8361" d="M1644.324,1149.569H1631.1l.159-.75h13.225Z" transform="translate(-1502.956 -1042.647)" fill="#231f20"/>
      <path id="Path_8362" data-name="Path 8362" d="M1641.4,1162.393h-13.225l.159-.75h13.225Z" transform="translate(-1500.288 -1054.286)" fill="#231f20"/>
      <path id="Path_8363" data-name="Path 8363" d="M1639.506,1175.486h-13.225l.159-.75h13.225Z" transform="translate(-1498.559 -1066.169)" fill="#231f20"/>
      <path id="Path_8364" data-name="Path 8364" d="M1561.474,989.57l-2.388,7.848a.85.85,0,0,0,.772,1.114l21.442.2a.821.821,0,0,0,.781-.577l2.652-8.049a.85.85,0,0,0-.773-1.134h-21.706a.822.822,0,0,0-.779.6" transform="translate(-1437.19 -897.575)" fill="#88cde8"/>
      <path id="Path_8365" data-name="Path 8365" d="M1590.614,1006.47a3.788,3.788,0,0,1-1.246,2.2,3.885,3.885,0,0,1-.795.541,3.517,3.517,0,0,1-1.821.392,2.916,2.916,0,0,1-2.292-1.3,2.86,2.86,0,0,1-.146-.246,3.144,3.144,0,0,1-.3-2,3.8,3.8,0,0,1,3.862-3.135,2.95,2.95,0,0,1,2.737,3.546" transform="translate(-1459.937 -910.23)" fill="#f4f4f4"/>
      <path id="Path_8366" data-name="Path 8366" d="M1593.809,1043.257a3.886,3.886,0,0,1-.795.541,3.516,3.516,0,0,1-1.822.392,2.917,2.917,0,0,1-2.292-1.3,2.831,2.831,0,0,1-.146-.246,3.023,3.023,0,0,1,2.725-1.155c1.32.082,2.3.847,2.328,1.765" transform="translate(-1464.307 -945.233)" fill="#ffdbda"/>
      <path id="Path_8367" data-name="Path 8367" d="M1612.565,1014.046a1.425,1.425,0,0,1-1.449,1.176,1.107,1.107,0,0,1-1.027-1.33,1.425,1.425,0,0,1,1.449-1.176,1.107,1.107,0,0,1,1.026,1.33" transform="translate(-1483.764 -919.121)" fill="#ffdbda"/>
      <path id="Path_8368" data-name="Path 8368" d="M1685.946,1003.865h-11.954a.941.941,0,0,1-.932-1.123l.012-.088a1.312,1.312,0,0,1,1.243-1.123h11.954a.941.941,0,0,1,.932,1.123l-.012.088a1.312,1.312,0,0,1-1.243,1.123" transform="translate(-1541.246 -908.971)" fill="#f4f4f4"/>
      <path id="Path_8369" data-name="Path 8369" d="M1684.616,1037.5h-13.225l.159-.75h13.225Z" transform="translate(-1539.733 -940.937)" fill="#231f20"/>
      <path id="Path_8370" data-name="Path 8370" d="M1681.693,1050.326h-13.225l.159-.75h13.225Z" transform="translate(-1537.065 -952.576)" fill="#231f20"/>
      <path id="Path_8371" data-name="Path 8371" d="M1678.013,1063.621h-13.225l.159-.75h13.225Z" transform="translate(-1533.706 -964.642)" fill="#231f20"/>
      <path id="Path_8372" data-name="Path 8372" d="M1697.288,975.657h-4.758a.314.314,0,0,1-.3-.352.31.31,0,0,1,.3-.285h4.758a.313.313,0,0,1,.3.352.31.31,0,0,1-.3.285" transform="translate(-1558.75 -884.91)" fill="#231f20"/>
      <path id="Path_8373" data-name="Path 8373" d="M1348.3,1076.663c.016-1.8-.177-3.7.575-5.323.842-1.816,2.664-2.863,4.046-4.273a10.8,10.8,0,0,0,2.934-7.9,1.359,1.359,0,0,0-2.2-1.075l-9.36,7.555a7.565,7.565,0,0,0-1.885,1.94,9.021,9.021,0,0,0-.806,2.29,32.456,32.456,0,0,1-3.364,8.053,43.7,43.7,0,0,0-3.274,5.781,7.963,7.963,0,0,0-.067,6.5c2.147,4.126,6.144,3.072,8.365.133a22.9,22.9,0,0,0,5.033-13.678" transform="translate(-1231.996 -960.029)" fill="#f4b0ae"/>
      <path id="Path_8374" data-name="Path 8374" d="M1579.977,1150.977a29.988,29.988,0,0,0-1.564,2.929c-1.73,3.786-2.394,8.05-4.3,11.74a7.09,7.09,0,0,1-3.668,3.726,7.323,7.323,0,0,1-3.094.161c-2.622-.277-5.4-.954-7.177-2.987a9.7,9.7,0,0,1-1.959-6.911,46.97,46.97,0,0,1,1.354-7.259,48.85,48.85,0,0,0,1.13-11.146c-.062-3.352-1.194-6.489-1.5-9.84a11.441,11.441,0,0,1,.4-5.073c.772-2.045,2.5-3.511,3.657-5.344,2.174-3.43,2.315-8.627,3.08-12.612q1.485-7.731,2.362-15.571a25.551,25.551,0,0,1,1.16-6.114c.236-.633.668-1.341,1.317-1.315.705.028,1.066.877,1.264,1.586,1.275,4.564.837,9.437.93,14.17.053,2.7-1,5.324-.856,7.918a3.42,3.42,0,0,0,1.382,2.724c1.161.734,2.8.374,3.829,1.3.953.857,1.065,2.569,2.208,3.116.882.422,2.02-.071,2.838.473.66.438.828,1.363,1.328,1.991,1.187,1.493,3.673.821,5.1,2.065,2.665,2.325.548,7.25-.475,9.8-1.839,4.585-2.373,9.495-4.73,13.93-1.2,2.263-2.7,4.351-4.008,6.544" transform="translate(-1436.408 -985.053)" fill="#f4b0ae"/>
      <path id="Path_8375" data-name="Path 8375" d="M1408.943,1815.371q1.224-7.122,2.813-14.19c.866-3.875.636-11.362,4.632-13.3,4.352-2.112,14.907.439,19.288,1.855,8.748,2.827,6.436,7.388,5.713,15.807l-4.077,47.43c-.637,7.415-1.907,15.938-8.016,19.761-6.7,4.193-15.922-.188-19.9-7.213s-4.024-15.68-3.541-23.828a238.426,238.426,0,0,1,3.087-26.32" transform="translate(-1297.173 -1621.916)" fill="#edceb4"/>
      <path id="Path_8376" data-name="Path 8376" d="M1419.716,1780.018a79.682,79.682,0,0,1,19.562,4.578h0c1.163.408,3.318,2.014,4.586,1.521,1.582-.616,1.447-3.144,1.737-4.686a59.2,59.2,0,0,0,.391-15.654,2.436,2.436,0,0,0-.176-.858,2.234,2.234,0,0,0-.65-.727c-2.565-2.1-5.23-2.664-8.156-3.95a43.66,43.66,0,0,0-10.168-3.273,31.676,31.676,0,0,0-9.636-.381c-2.319.323-6.468,1.33-7.672,3.69a9.043,9.043,0,0,0-.735,2.915c-.37,2.715-.927,5.477-1.12,8.211a25.448,25.448,0,0,0,.044,6.693c.651,3.147,8.945,1.71,11.07,1.851q.461.031.921.069" transform="translate(-1298.844 -1594.05)" fill="#898172"/>
      <path id="Path_8377" data-name="Path 8377" d="M1236.492,1589.076c-4.364,4.143-11.267,4.277-16.6,1.646-5.58-2.755-11.517-9.019-13.838-15.017-2.461-6.36-1.919-13.726-5.474-19.673-.249-.416-.517-.824-.788-1.231a12.57,12.57,0,0,1-2.115-4.169,11.968,11.968,0,0,1-.178-2.691,18.544,18.544,0,0,0-.05-2.029c-.271-2.718-1.536-4.152-2.909-6.17q-.226-1.083-.412-2.171c-.85-4.952-2.653-10.425-.784-15.278.976-2.534,2.665-5.182,1.8-7.758a27.8,27.8,0,0,0-1.594-2.93,8.229,8.229,0,0,1-.049-6.184c.746-2.111,2.24-3.808,2.9-5.882.775-2.448,1.134-5.172,1.768-7.68,1.283-5.073,2.695-10.109,4.086-15.15a9.323,9.323,0,0,1,.942-2.467l0,0c5.875-4.321,11.969,9.8,14.392,15.461,1.244,2.9,2.415,5.956,3.484,8.944.537,1.5,1.049,2.984,1.532,4.425,2.192,6.542,3.792,12.2,4.48,14.487q1.145,3.8,2.247,7.612,5.653,19.568,10.138,39.478c1.893,8.4,3.135,18.625-2.978,24.43" transform="translate(-1102.649 -1337.257)" fill="#edceb4"/>
      <path id="Path_8378" data-name="Path 8378" d="M497.4,251.616a54.96,54.96,0,0,1,2.487,9.9,22.321,22.321,0,0,1-6.818-5.271c-1.837-2.092-2.4-4.356-5.168-5a80.591,80.591,0,0,1,.037,16.452c-.282,2.159-.284,8.217-3.742,5.595a8.125,8.125,0,0,0-2.342-1.6c2.722.823-3.033,11.189-3.659,12.958-1.9,5.357-4.181,10.781-8.911,14.05-3.579,2.474-7.954,3.267-11.923,4.971-2.06.884-6.048,4.612-8.243,4.387-2.75-.283-3.109-3.4-4.187-5.628-3.407-7.042-9.491-11.741-13.847-18.057-5.109-7.408-5.7-17.268-3.3-25.935,4.449-16.107,15.8-24.481,31.435-26.8,6.922-1.028,13.237-.959,19.646,2.345,5.162,2.661,10.206,5.9,15.517,8.2a19.777,19.777,0,0,0,10.24,1.77c-.966.123-2.828,2.129-3.838,2.632A20.391,20.391,0,0,1,496,248.144c.493,1.055.966,2.232,1.4,3.472" transform="translate(-403.383 -209.697)" fill="#ddd"/>
      <path id="Path_8379" data-name="Path 8379" d="M1004.052,627.788q.187-3.013.374-6.026a31.157,31.157,0,0,0,.089-3.184,8.444,8.444,0,0,0-1.175-4.3,3.544,3.544,0,0,0-6.38.5c-1.051,2.368-.224,5.241-.2,7.747a21.441,21.441,0,0,0,.606,5.924c.477,1.6,2.087,4.452,3.827,4.548,2.282.127,2.748-3.413,2.859-5.208" transform="translate(-923.657 -555.897)" fill="#f4b0ae"/>
      <path id="Path_8380" data-name="Path 8380" d="M1693.929,1087.812a.847.847,0,0,0-.792-.48,1.373,1.373,0,0,0-1.045.847,3.118,3.118,0,0,0-.094,2.118,1.273,1.273,0,0,0,2.1.268,3.12,3.12,0,0,0-.173-2.752" transform="translate(-1558.411 -986.839)" fill="#231f20"/>
      <path id="Path_8381" data-name="Path 8381" d="M1530.6,1054.25c.022.609.961.476,1.4.2a5.721,5.721,0,0,0,1.71-1.414c.243-.337.817-1.545.267-1.856-.2-.114-.447.011-.639.141a8.452,8.452,0,0,0-1.592,1.417c-.3.339-.937.735-1.088,1.166a.947.947,0,0,0-.062.342" transform="translate(-1411.228 -953.994)" fill="#231f20"/>
      <path id="Path_8382" data-name="Path 8382" d="M1670.9,1382.874a1.823,1.823,0,0,1-1.168-.408.12.12,0,0,1-.019-.163.105.105,0,0,1,.154-.02,1.717,1.717,0,0,0,2.342-.241.105.105,0,0,1,.154-.012.121.121,0,0,1,.012.164,1.9,1.9,0,0,1-1.475.681" transform="translate(-1538.183 -1254.279)" fill="#231f20"/>
      <path id="Path_8383" data-name="Path 8383" d="M1664.627,1361.864a.108.108,0,0,1-.094-.056.12.12,0,0,1,.038-.159,3.033,3.033,0,0,1,2.752-.243.118.118,0,0,1,.062.15.108.108,0,0,1-.142.066,2.82,2.82,0,0,0-2.56.226.1.1,0,0,1-.056.017" transform="translate(-1533.459 -1235.385)" fill="#231f20"/>
      <path id="Path_8384" data-name="Path 8384" d="M1683.783,1220.174a.105.105,0,0,1-.074-.031,1.838,1.838,0,0,0-2.16-.262.106.106,0,0,1-.149-.044.12.12,0,0,1,.042-.158,2.029,2.029,0,0,1,2.415.294.121.121,0,0,1,.007.164.107.107,0,0,1-.081.038" transform="translate(-1548.856 -1106.712)" fill="#231f20"/>
      <path id="Path_8385" data-name="Path 8385" d="M1614.324,1455.47h-.014a.115.115,0,0,1-.1-.129,52.952,52.952,0,0,1,1.007-5.8.109.109,0,0,1,.132-.085.117.117,0,0,1,.08.14,52.753,52.753,0,0,0-1,5.771.112.112,0,0,1-.109.1" transform="translate(-1487.545 -1315.498)" fill="#231f20"/>
      <path id="Path_8386" data-name="Path 8386" d="M1028.282,687.178c-.679-1.7-.966-1.869.148-3.758.371-.629.656-1.538.127-2.026a1.289,1.289,0,0,0-1.2-.176,3.951,3.951,0,0,0-2.768,3.141,5.426,5.426,0,0,0,1.693,4.629c1.29,1.042,2.867.4,2.071-1.633l-.07-.178" transform="translate(-949.311 -618.2)" fill="#231f20"/>
      <path id="Path_8387" data-name="Path 8387" d="M1024.426,636.891a.1.1,0,0,1-.058-.018.12.12,0,0,1-.035-.16,4.836,4.836,0,0,0,.286-4.752,3.087,3.087,0,0,0-2.1-1.454,2.281,2.281,0,0,0-1.951.492.105.105,0,0,1-.154-.015.121.121,0,0,1,.014-.163,2.488,2.488,0,0,1,2.127-.543,3.313,3.313,0,0,1,2.251,1.562,5.08,5.08,0,0,1-.288,5,.108.108,0,0,1-.093.054" transform="translate(-945.528 -571.988)" fill="#231f20"/>
      <path id="Path_8388" data-name="Path 8388" d="M1029.457,763.474a1.448,1.448,0,0,1-.892-.329,3.194,3.194,0,0,1-.942-1.358.119.119,0,0,1,.059-.152.108.108,0,0,1,.143.063c.365.929,1.136,1.863,2.111,1.439a2.011,2.011,0,0,0,1.033-1.137,2.132,2.132,0,0,0,.017-1.547.119.119,0,0,1,.057-.152.107.107,0,0,1,.144.061,2.376,2.376,0,0,1-.016,1.726,2.238,2.238,0,0,1-1.153,1.263,1.4,1.4,0,0,1-.562.122" transform="translate(-952.122 -690.027)" fill="#231f20"/>
      <path id="Path_8389" data-name="Path 8389" d="M617.785,468.831q-.174.548-.352,1.072c-.837,2.456-1.833,4.984-3.738,6.665.3-.265-1.919-11.814-1.816-13.407.334-5.157.61-10.31.61-15.528-.11-5.026-.854-10.571-3.767-14.341a18.268,18.268,0,0,1,5.922.208,3.782,3.782,0,0,1,1.612.725,16.921,16.921,0,0,1,1.46,2.232c4.93,8.978,2.971,23.242.07,32.376" transform="translate(-569.775 -393.112)" fill="#8e8e8e"/>
      <path id="Path_8390" data-name="Path 8390" d="M333.447,1245.716a3.639,3.639,0,0,1-1.532,3.1c-2.809,1.543-5.485-3.65-8.6-3.041-1.774.346-2.754,2.436-4.425,3.152a3.094,3.094,0,0,1-.588.187c-2.427.513-4.836-2.093-5.461-4.747-.676-2.869-.186-5.949-.978-8.785a4.3,4.3,0,0,0-1.093-2.034,2.847,2.847,0,0,0-1.887-.732,5.759,5.759,0,0,0-2.875.782c-3.674,2.035-5.932,5.993-8,9.76l-4.105,7.46c-1.7,3.1-3.523,6.318-6.433,8.188s-7.25,1.827-9.26-1.06c-2.924-4.2.816-10.844-2.068-15.074-2.058-3.017-6.544-3.01-9.631-1.19s-5.237,4.929-7.693,7.6-5.661,5.091-9.195,4.813c-4.788-.376-7.874-5.332-10.052-9.807s-4.84-9.547-9.545-10.55c-3.27-.7-6.662.845-9.953,1a79.746,79.746,0,0,1,2.024-13.513,41.4,41.4,0,0,1,8.766-17.577,52.672,52.672,0,0,1,18.367-8.8c7.521-.193,15.047-.1,22.571.075,2.8.71,5.527,1.573,8.115,2.448a35.822,35.822,0,0,1,8.073,3.431c2.566,1.59,5.057,3.338,7.683,4.8q.462.258.93.5c2.47,1.294,4.79,2.727,7.084,4.2,2.12,1.36,4.217,2.752,6.391,4.1,3.057,1.894,6.553,3.561,8.986,6.322,3.82,1.715,7.623,8.36,10.911,16.036,1.244,2.9,2.415,5.956,3.484,8.944" transform="translate(-215.023 -1084.33)" fill="#f2d9cc"/>
      <path id="Path_8391" data-name="Path 8391" d="M999.429,1293.831a.106.106,0,0,1-.059-.018c-1.94-1.282-3.88-2.639-5.757-3.95-2.291-1.6-4.659-3.257-7.045-4.791-3.569-2.294-7.375-4.33-11.055-6.3-2.144-1.147-4.361-2.334-6.508-3.558a.118.118,0,0,1-.044-.156.108.108,0,0,1,.15-.046c2.144,1.223,4.36,2.409,6.5,3.555,3.684,1.971,7.493,4.009,11.07,6.308,2.39,1.536,4.76,3.193,7.052,4.8,1.875,1.311,3.814,2.666,5.752,3.947a.118.118,0,0,1,.034.159.109.109,0,0,1-.093.054" transform="translate(-898.574 -1157.166)" fill="#fff"/>
      <path id="Path_8392" data-name="Path 8392" d="M477.588,1153.075c-1.212-1.5-2.46-3.226-3.292-4.107a17.62,17.62,0,0,0-5.254-4.027c-4.741-2.23-9.906-3.255-15.014-4.263-8.948-1.765-27.03-5.224-31.327,7.32,2.746,1.327,5.764.756,8.67.823,15.342.357,31.141,1.063,46.217,4.254" transform="translate(-399.983 -1033.615)" fill="#898172"/>
      <path id="Path_8393" data-name="Path 8393" d="M1193.369,1528.07a.111.111,0,0,1-.108-.091c-.149-.715-.288-1.447-.413-2.175-.163-.952-.358-1.9-.564-2.908-.853-4.17-1.736-8.482-.214-12.433.2-.529.443-1.072.673-1.6.882-2.007,1.794-4.082,1.121-6.079a8.256,8.256,0,0,0-.894-1.708,12.048,12.048,0,0,1-.694-1.208,6.97,6.97,0,0,1-.639-3.111,10.007,10.007,0,0,1,.585-3.165,17.329,17.329,0,0,1,1.436-2.881,15.17,15.17,0,0,0,1.459-3,44.274,44.274,0,0,0,1.086-4.559c.208-1.032.423-2.1.68-3.114,1.1-4.35,2.315-8.745,3.49-12.995q.3-1.079.6-2.158a9.492,9.492,0,0,1,.956-2.5v0l0,0a4.351,4.351,0,0,1,.784-.934,4.662,4.662,0,0,1,1.81-1.007.11.11,0,0,1,.136.08.116.116,0,0,1-.077.142,4.44,4.44,0,0,0-1.725.959,4.107,4.107,0,0,0-.744.886v0l0,0a9.307,9.307,0,0,0-.928,2.434q-.3,1.079-.6,2.158c-1.175,4.249-2.39,8.642-3.489,12.99-.255,1.009-.47,2.073-.677,3.1a44.43,44.43,0,0,1-1.093,4.584,15.582,15.582,0,0,1-1.48,3.044,17.144,17.144,0,0,0-1.418,2.841,8.1,8.1,0,0,0,.044,6.093,11.9,11.9,0,0,0,.681,1.185,8.419,8.419,0,0,1,.918,1.758c.7,2.085-.229,4.2-1.129,6.252-.23.523-.468,1.064-.669,1.587-1.5,3.885-.621,8.162.225,12.3.2.963.4,1.96.565,2.916.125.726.263,1.455.411,2.167a.115.115,0,0,1-.084.137l-.023,0" transform="translate(-1101.475 -1325.471)" fill="#fff"/>
      <path id="Path_8394" data-name="Path 8394" d="M366.978,500.557c5.052-3.053,11.477-7.427,17.2-3.366,2.593,1.841,8.64,10.769,10.735,1.626-.132,2.866-.555,6.245-2.951,7.585-4.3,2.4-9.548-4.068-14.921-2.333-5.109,1.65-8.609,6.756-13.368,9.161l0,0c-8.472,4.279-18.927,2.853-27.01-2.183-7.568-4.715-14.155-12.87-19.209-21.381a102.6,102.6,0,0,1-5.721-11.149,76.6,76.6,0,0,1-5.953-40.634c1.4-10.382,7.295-20.781,16.776-24.194,4.162-1.5,12.3-3.411,16.276-.291a4.62,4.62,0,0,1,1.46,2.232c.972,2.883.452,7.244.514,10.561q.2,10.911-.444,21.815-.057.963-.121,1.925a126.486,126.486,0,0,0-.538,15.454,77.491,77.491,0,0,0,3.243,17.085c1.918,6.642,4.611,13.6,10.19,17.357,4.454,3,9.557,3.322,13.846.73" transform="translate(-292.678 -373.672)" fill="#ddd"/>
      <path id="Path_8395" data-name="Path 8395" d="M1844.256,1079.894h-.268a.2.2,0,0,1-.2-.208v-.448a.2.2,0,0,1,.2-.208h.268a.2.2,0,0,1,.2.208v.448a.2.2,0,0,1-.2.208" transform="translate(-1697.092 -979.308)" fill="#231f20"/>
      <path id="Path_8396" data-name="Path 8396" d="M1827.823,1127.884h-.269a.2.2,0,0,1-.2-.208v-.448a.2.2,0,0,1,.2-.208h.269a.2.2,0,0,1,.2.208v.448a.2.2,0,0,1-.2.208" transform="translate(-1682.093 -1022.863)" fill="#231f20"/>
      <path id="Path_8397" data-name="Path 8397" d="M1469.166,1191.089q-.2,0-.4-.017a.114.114,0,0,1-.1-.125.112.112,0,0,1,.118-.106,4.545,4.545,0,0,0,3-.818.106.106,0,0,1,.152.032.12.12,0,0,1-.031.161,4.77,4.77,0,0,1-2.739.872" transform="translate(-1354.698 -1080.026)" fill="#231f20"/>
      <path id="Path_8398" data-name="Path 8398" d="M1428.9,1157.063a.105.105,0,0,1-.069-.026.121.121,0,0,1-.016-.163,18.145,18.145,0,0,0,1.207-1.8.106.106,0,0,1,.151-.037.12.12,0,0,1,.035.16,18.389,18.389,0,0,1-1.223,1.818.107.107,0,0,1-.085.043" transform="translate(-1318.299 -1048.279)" fill="#231f20"/>
      <path id="Path_8399" data-name="Path 8399" d="M1348.5,1405.367l-.021,0a5.834,5.834,0,0,1-2.177-.958,6.123,6.123,0,0,1-1.655-1.764.12.12,0,0,1,.032-.16.106.106,0,0,1,.151.034,5.813,5.813,0,0,0,3.691,2.621.116.116,0,0,1,.087.136.111.111,0,0,1-.107.094" transform="translate(-1241.483 -1272.85)" fill="#231f20"/>
    </g>
  </g>
  <g id="Group_2964" data-name="Group 2964" transform="translate(174.335 74.257)">
    <g id="Group_2963" data-name="Group 2963" clip-path="url(#clip-path-2)">
      <path id="Path_8400" data-name="Path 8400" d="M2085.644,803.488h-20.532a18.411,18.411,0,0,0-17.847,13.594l-9.406,4.745,9.306,4.082a18.4,18.4,0,0,0,17.946,13.989h20.532a18.207,18.207,0,1,0,0-36.411" transform="translate(-2037.859 -803.488)" fill="#f2d9cc"/>
      <path id="Path_8401" data-name="Path 8401" d="M2366.845,835.725c-.455-.314-1.008-.535-1.213-1.033a4.846,4.846,0,0,1-.121-1.167c-.161-1.1-1.26-1.276-2.077-1.723a3.079,3.079,0,0,0-3.059-.272,1.251,1.251,0,0,1-.392.19,1.545,1.545,0,0,1-.7-.136c-1.042-.3-2.583.8-3.1,1.648a8.628,8.628,0,0,1-.938,1.558,6.222,6.222,0,0,0-.83.819c-.461.717-.082,1.685-.336,2.5-.239.765-1.025,1.337-1.049,2.138-.022.734.621,1.436.39,2.133-.092.278-.312.5-.4.778-.271.818.639,1.777.171,2.5-.182.282-.543.449-.632.772a1.065,1.065,0,0,0,.032.515l.274,1.18c.99-.407,1.71.794,2.742.67a8.864,8.864,0,0,1,1.46-.322c.923.047,1.5,1.1,2.412,1.268,1.277.23,2.311-1.385,3.6-1.218a3.9,3.9,0,0,1,.91.311,1.907,1.907,0,0,0,1.959-.126c.256-.233.406-.582.714-.743a1.671,1.671,0,0,1,1.274.1,1.188,1.188,0,0,0,1.238-.1c-.1-.542.389-1.346.385-1.9-.008-1.293-1.4-2.31-1.307-3.6.038-.511.314-.983.35-1.494a6.466,6.466,0,0,0-.7-2.477c-.288-.741-.115-1.692-.594-2.354a1.817,1.817,0,0,0-.453-.419" transform="translate(-2323.45 -828.661)" fill="#e67f9c"/>
      <path id="Path_8402" data-name="Path 8402" d="M2245.963,1049.162l2.781-5.877a33.868,33.868,0,0,1,3.069-5.27,11.221,11.221,0,0,1,2.61-3.08,5.221,5.221,0,0,1,3.421-.687q.155.029.3.072l.022.006c.692.212.971.556,1.017.97a4.4,4.4,0,0,1-.7,2.051,34.6,34.6,0,0,1-2.72,4.892c-2.114,3.053-3.769,6.349-6.135,9.239a2.708,2.708,0,0,1-3.093.945,1.508,1.508,0,0,1-1.05-2.255l.476-1.006" transform="translate(-2226.115 -1012.865)" fill="#f4a69e"/>
      <path id="Path_8403" data-name="Path 8403" d="M2516.067,1049.162l-2.781-5.877a33.907,33.907,0,0,0-3.069-5.27,11.222,11.222,0,0,0-2.61-3.08,5.221,5.221,0,0,0-3.42-.687c-.1.019-.2.043-.3.072l-.021.006c-.692.212-.971.556-1.017.97a4.395,4.395,0,0,0,.7,2.051,34.624,34.624,0,0,0,2.72,4.892c2.114,3.053,3.769,6.349,6.135,9.239a2.708,2.708,0,0,0,3.094.945,1.508,1.508,0,0,0,1.049-2.255l-.476-1.006" transform="translate(-2459.868 -1012.865)" fill="#f4a69e"/>
      <path id="Path_8404" data-name="Path 8404" d="M2372.618,978.752c0,.025,0,.049,0,.075v0a8.971,8.971,0,0,1-.594,3.081,8.224,8.224,0,0,1-.395.865q-.108.205-.23.408a5.352,5.352,0,0,1-1.344,1.4,12.161,12.161,0,0,1-5.565,1.8l-.173.022-.189.023-.387.047a11.655,11.655,0,0,1-1.875.073l-.063,0a11.2,11.2,0,0,1-7.657-3.377,5,5,0,0,1-.6-.782,3.808,3.808,0,0,1-.215-.4,8.591,8.591,0,0,1-.537-2.633q-.018-.137-.03-.271c-.015-.153-.024-.3-.029-.455a9.067,9.067,0,0,1,.4-2.912,27.157,27.157,0,0,1,1.056-2.786,17.233,17.233,0,0,0,1.3-4.031,8.779,8.779,0,0,0-.014-2.212,37.9,37.9,0,0,0-.436-3.768,18.857,18.857,0,0,0-1.156-3.087c-.006-.017-.013-.033-.019-.049a12.43,12.43,0,0,1-.864-3.777,8.253,8.253,0,0,1,.079-1.729c.136-.852.336-1.69.427-2.539a6.773,6.773,0,0,0,0-1.576,9.5,9.5,0,0,0-.191-1.06c-.2-.825-.591-1.642.417-2.177l.074-.038a1.077,1.077,0,0,1,.123-.054,3.359,3.359,0,0,1,.962-.206l.252-.022c.165-.012.332-.021.5-.031l.233-.015c.116-.009.232-.019.345-.031s.249-.031.369-.055a2.707,2.707,0,0,0,.445-.119c1.576-.568,1.694-2.058,1.633-3.572-.016-.406-.044-.814-.062-1.2a7.189,7.189,0,0,1,.032-1.326c.167-1.151,1.067-2.57,2.384-2.551,1.738.03,2.588,1.732,2.939,3.218.012.046.021.091.031.134a6.678,6.678,0,0,1,.115,1.2,4.957,4.957,0,0,0,.524,2.7,3.272,3.272,0,0,0,1.984,1.224c.137.037.277.071.417.1.192.043.385.082.579.119l.229.044c.183.035.364.07.541.108l.083.018c.191.042.377.087.555.141l.036.011c.1.028.191.06.283.093a1.672,1.672,0,0,1,1.036.948,3.211,3.211,0,0,1,.12,1.567c-.027.236-.065.472-.1.7a13.388,13.388,0,0,0,.16,4.96c.076.446.154.9.193,1.346a5.953,5.953,0,0,1,.02.834c0,.063-.007.126-.012.189a7.613,7.613,0,0,1-.593,2.168c-.159.394-.329.784-.486,1.175a13.73,13.73,0,0,0-.527,5.254,7.923,7.923,0,0,0,.176,1.666c.471,1.956,1.13,3.861,1.767,5.769.543,1.628,1.531,3.636,1.521,5.356" transform="translate(-2323.627 -925.296)" fill="#f4a69e"/>
      <path id="Path_8405" data-name="Path 8405" d="M2430.237,952.686a.3.3,0,0,1-.047.181,1.988,1.988,0,0,1-.71.593,1.9,1.9,0,0,1-2.121-.339.465.465,0,0,1-.179-.379.184.184,0,0,1,.031-.071.372.372,0,0,1,.14-.113c.181-.093.3-.283.489-.336a1.269,1.269,0,0,1,.618.093c.231.067.412-.077.624-.135a.654.654,0,0,1,.14-.027,1.341,1.341,0,0,1,.84.326.4.4,0,0,1,.163.157.155.155,0,0,1,.012.051" transform="translate(-2391.195 -938.41)" fill="#de7763"/>
      <path id="Path_8406" data-name="Path 8406" d="M2379.331,919.526a1.2,1.2,0,1,1-1.228-1.135,1.181,1.181,0,0,1,1.228,1.135" transform="translate(-2345.595 -907.771)" fill="#f4a69e"/>
      <path id="Path_8407" data-name="Path 8407" d="M2484.927,918.056a1.2,1.2,0,1,1-1.228-1.135,1.182,1.182,0,0,1,1.228,1.135" transform="translate(-2441.432 -906.437)" fill="#f4a69e"/>
      <path id="Path_8408" data-name="Path 8408" d="M2398.131,860.726a3.687,3.687,0,0,0-3.139.8,6.183,6.183,0,0,0-.961,1.253c-.632.989-1.938,2.386-2.051,3.531a6.766,6.766,0,0,0,.729,2.776c.75,1.734,2.16,3.148,4.192,3.057a4.74,4.74,0,0,0,4.064-3.626c.587-2.126.8-4.691-.5-6.6a2.01,2.01,0,0,0-.61-.541,4.723,4.723,0,0,0-1.727-.654" transform="translate(-2359.245 -855.378)" fill="#ffc1b7"/>
      <path id="Path_8409" data-name="Path 8409" d="M2431.042,953.472a.075.075,0,0,1,.006.012c.124.294-.358.646-.531.764a1.47,1.47,0,0,1-2.21-.512.22.22,0,0,1-.031-.209.2.2,0,0,1,.058-.057c.3-.225.493-.448.883-.366.093.02.315.142.405.113a.133.133,0,0,0,.048-.035.831.831,0,0,1,.586-.175c.3.007.513.238.742.421a.181.181,0,0,1,.044.044" transform="translate(-2392.18 -939.188)" fill="#de7763"/>
      <path id="Path_8410" data-name="Path 8410" d="M2461.646,916.691a.356.356,0,1,1-.365-.347.356.356,0,0,1,.365.347" transform="translate(-2421.833 -905.914)" fill="#242121"/>
      <path id="Path_8411" data-name="Path 8411" d="M2456.086,912.355c.082,0,.164.006.246,0a.628.628,0,0,1-.54.412c-.327.056-.658-.038-.973.024a3.593,3.593,0,0,0-.967.468.811.811,0,0,1,.451-.837,1.8,1.8,0,0,1,1-.149c.26.021.519.065.78.079" transform="translate(-2415.394 -902.211)" fill="#242121"/>
      <path id="Path_8412" data-name="Path 8412" d="M2411.269,916.691a.356.356,0,1,0,.365-.347.356.356,0,0,0-.365.347" transform="translate(-2376.759 -905.914)" fill="#242121"/>
      <path id="Path_8413" data-name="Path 8413" d="M2399.337,912.355c-.082,0-.164.006-.246,0a.628.628,0,0,0,.54.412c.327.056.658-.038.973.024a3.6,3.6,0,0,1,.967.468.81.81,0,0,0-.451-.837,1.8,1.8,0,0,0-1-.149c-.26.021-.519.065-.78.079" transform="translate(-2365.707 -902.211)" fill="#242121"/>
      <path id="Path_8414" data-name="Path 8414" d="M2452.442,901.339a5.459,5.459,0,0,0-2.676.088.418.418,0,0,0-.244.147.392.392,0,0,0-.047.168,2.9,2.9,0,0,0-.018.385c.6-.187,1.23-.244,1.836-.46a4.615,4.615,0,0,1,.6-.175c.184-.039.357-.117.545-.154" transform="translate(-2411.417 -892.184)" fill="#242121"/>
      <path id="Path_8415" data-name="Path 8415" d="M2395.784,901.339a5.458,5.458,0,0,1,2.676.088.419.419,0,0,1,.244.147.392.392,0,0,1,.047.168,2.863,2.863,0,0,1,.018.385c-.6-.187-1.23-.244-1.836-.46a4.611,4.611,0,0,0-.6-.175c-.185-.039-.357-.117-.545-.154" transform="translate(-2362.705 -892.184)" fill="#242121"/>
      <path id="Path_8416" data-name="Path 8416" d="M2467.783,924.675c.13.256-.157.652-.642.884s-.984.213-1.114-.043.157-.652.643-.884.984-.213,1.114.043" transform="translate(-2426.427 -913.289)" fill="#f3aea7"/>
      <path id="Path_8417" data-name="Path 8417" d="M2399.8,926.472c-.118.262.189.644.685.853s.993.167,1.11-.1-.189-.644-.685-.853-.993-.167-1.11.1" transform="translate(-2366.325 -914.899)" fill="#f3aea7"/>
      <path id="Path_8418" data-name="Path 8418" d="M2435.752,922.032a.088.088,0,0,1-.062-.023c-.186-.17-.532-.488-.436-.846a1.621,1.621,0,0,1,.18-.4.766.766,0,0,0,.15-.562l-.092-.468a.089.089,0,0,1,.174-.033l.091.468a.925.925,0,0,1-.17.682,1.5,1.5,0,0,0-.163.355c-.06.225.149.456.385.672a.088.088,0,0,1-.058.152" transform="translate(-2398.513 -908.898)" fill="#242121"/>
      <path id="Path_8419" data-name="Path 8419" d="M2392.359,855.4a3.259,3.259,0,0,0-1.537.731,4.68,4.68,0,0,0-1.248,1.822,11.3,11.3,0,0,0-.44,1.51c-.169.7-.456,2.245.7,1.479a1.751,1.751,0,0,0,.718-.962c.14-.494-.042-1.409.364-1.792.349-.329.991-.3,1.4-.685.13-.123.362-.57.591-.485.069.025.255.682.355.8a1.294,1.294,0,0,0,.73.438c.627.12,1.32-.216,1.894.06.636.3.819.919,1.545,1.157.223.073.468.208.5.437a1.04,1.04,0,0,1-.051.332c-.069.33.283,1.256.76,1.142.4-.1.456-1.381.493-1.705a3.9,3.9,0,0,0-.63-2.278,4.165,4.165,0,0,0-2.309-1.957,5.217,5.217,0,0,0-1.691-.187,12.432,12.432,0,0,0-2.13.144" transform="translate(-2356.525 -850.469)" fill="#e67f9c"/>
      <path id="Path_8420" data-name="Path 8420" d="M2345.505,1043.539a7.768,7.768,0,0,1-.534-3.3c.142-1.69,1.167-3.086,1.264-4.761.1-1.731.1-3.475.086-5.208a.237.237,0,0,1,.069-.208.241.241,0,0,1,.152-.023c.626.042,1.259-.037,1.894-.033.2,0,.709,1.848.787,2.05q.485,1.265,1.046,2.5c.431.948.9,1.875,1.389,2.795a9.038,9.038,0,0,0,1.305,2.243.53.53,0,0,0,.338.2c.811.029,1.358-1.38,1.653-1.934a47.109,47.109,0,0,0,3.676-8.043c0,.011,1.544.057,1.724.065.573.027.529.109.49.654a23.81,23.81,0,0,0,.22,3.567,10.213,10.213,0,0,0,.95,3.97,5.006,5.006,0,0,1,.661,2.709c0,.059-.007.124-.013.19a22.3,22.3,0,0,1-1.315,4.9,10.4,10.4,0,0,0-.292,3.569l0,.119a7.945,7.945,0,0,0,.175,1.658c.423,1.756,1.007,3.5,1.572,5.186l.194.58c.137.411.3.84.473,1.295a12.278,12.278,0,0,1,1.051,4.073c0,.023,0,.047,0,.071a24.771,24.771,0,0,1,.709,2.573c.087.394.147.7.183.883.005.025.01.052.015.078.769,4.058.22,8.142-.31,12.091-.248,1.85-.5,3.762-.625,5.654-.108,1.719-.121,3.575-.04,5.841v.03l-.03.007a41.847,41.847,0,0,1-7.315,1.029c-.776.041-1.571.062-2.373.062q-.426,0-.854-.008a49.545,49.545,0,0,1-7.371-.7l-.03-.005v-.03c-.07-2.176-.2-3.959-.416-5.613-.262-2.039-.647-4.06-1.018-6.015-.837-4.4-1.627-8.562-1.124-12.852.014-.125.03-.252.047-.377a20.262,20.262,0,0,1,.481-2.441c.035-.134.072-.268.11-.4a9.007,9.007,0,0,1,.405-2.918,25.912,25.912,0,0,1,1-2.654l.057-.136a17.232,17.232,0,0,0,1.3-4.023,8.848,8.848,0,0,0-.014-2.2c-.032-.321-.061-.656-.089-.979a24.384,24.384,0,0,0-.347-2.785,17.865,17.865,0,0,0-1.291-2.784q-.038-.1-.076-.2" transform="translate(-2315.495 -1008.895)" fill="#b4efdc"/>
      <path id="Path_8421" data-name="Path 8421" d="M2415.969,1163.948a2.19,2.19,0,0,1,.627.351,5.247,5.247,0,0,0,2.4,1,.718.718,0,0,1,.327.1.437.437,0,0,1,.108.515,1.133,1.133,0,0,1-.371.426,6.317,6.317,0,0,1-4.2,1.28c-.68-.039-4.2-.968-2.716-2.217.353-.3.8-.15,1.2-.242a2.606,2.606,0,0,0,1.212-.726c.513-.439.912-.646,1.414-.483" transform="translate(-2377.221 -1130.585)" fill="#9de0c8"/>
      <path id="Path_8422" data-name="Path 8422" d="M2430.89,958.715a1.756,1.756,0,0,1-1.506.485,1.839,1.839,0,0,1-1.287-.467c.05,0,.042-.017.091-.017Z" transform="translate(-2392.032 -944.369)" fill="#fff"/>
    </g>
  </g>
  <g id="Group_2966" data-name="Group 2966" transform="translate(134.19 35.572)">
    <g id="Group_2965" data-name="Group 2965" clip-path="url(#clip-path-3)">
      <path id="Path_8424" data-name="Path 8424" d="M1595.825,384.9h-20.532c-10.156,0-19.191,8.777-18.3,18.951.741,8.452,6.714,15.631,14.991,17.16l4.444,10.45,3.55-10.149h15.847a18.207,18.207,0,1,0,0-36.411" transform="translate(-1556.933 -384.9)" fill="#f2d9cc"/>
      <path id="Path_8425" data-name="Path 8425" d="M1631.812,700.03c-.645,1.7-.047,3.034,1.221,4.3,3.108,3.092,6.124-4.422,7.092-6.574a40.131,40.131,0,0,1,2.24-5.057c.6-.961,1.369-1.815,2.009-2.753a11.537,11.537,0,0,0,1.995-5.455,3.359,3.359,0,0,0-3.551-3.951c-3.141.069-4.764,2.945-5.448,5.646a33.607,33.607,0,0,1-.816,3.534,21.738,21.738,0,0,1-1.4,2.685,75.856,75.856,0,0,0-3.14,7.123c-.069.167-.138.336-.2.506" transform="translate(-1624.654 -653.212)" fill="#ff9490"/>
      <path id="Path_8426" data-name="Path 8426" d="M1641.231,653.876a18.06,18.06,0,0,0-2.758,3.717q-2.358,3.872-4.464,7.888a1.317,1.317,0,0,0-.219.816,1.292,1.292,0,0,0,.439.654,18.369,18.369,0,0,0,8.826,4.655.6.6,0,0,0,.443-.02.575.575,0,0,0,.185-.242,28.8,28.8,0,0,0,2.993-10.569c.159-1.878,1.086-8.175-1.572-8.7-1.489-.292-2.886.849-3.873,1.8" transform="translate(-1626.677 -627.343)" fill="#f4f3f0"/>
      <path id="Path_8427" data-name="Path 8427" d="M1980.429,691.264c.645,1.7.047,3.034-1.221,4.3-3.108,3.092-6.124-4.422-7.092-6.574a40.135,40.135,0,0,0-2.24-5.057c-.6-.961-1.369-1.815-2.009-2.753a11.541,11.541,0,0,1-1.995-5.455,3.36,3.36,0,0,1,3.551-3.951c3.141.069,4.764,2.946,5.448,5.646a33.63,33.63,0,0,0,.816,3.534,21.76,21.76,0,0,0,1.4,2.685,75.791,75.791,0,0,1,3.14,7.123c.069.167.139.336.2.507" transform="translate(-1928.062 -645.257)" fill="#ff9490"/>
      <path id="Path_8428" data-name="Path 8428" d="M1983.919,650.683c3.615,3.482,4.9,8.361,7.224,12.658.118.219-2.373,2.175-2.575,2.31a13.426,13.426,0,0,1-6.49,2.406.913.913,0,0,1-.6-.09.885.885,0,0,1-.27-.407c-1.6-3.817-1.963-7-2.7-11.034-.346-1.9-1.4-7.065,1.538-7.642,1.489-.292,2.886.849,3.873,1.8" transform="translate(-1939.122 -624.445)" fill="#f4f3f0"/>
      <path id="Path_8429" data-name="Path 8429" d="M1849.308,414.636a1.51,1.51,0,0,1,.358,1.172c-.111,1.815-2.415,3.624-3.53,1.468a2.247,2.247,0,0,1,.058-2.313,2.407,2.407,0,0,1,3.114-.328" transform="translate(-1819.144 -411.494)" fill="#6164a5"/>
      <path id="Path_8430" data-name="Path 8430" d="M1766.369,580.389c-.282,3.581.785,7.432,1.3,10.97.146,1.014.461,2.55-.224,3.44a7.932,7.932,0,0,1-2.476,1.361q-.376.082-.755.155a35.824,35.824,0,0,1-13.682-.1q-.469-.094-.933-.2a5.277,5.277,0,0,1-2.188-4.572c.063-1.2.394-2.38.517-3.58a51.575,51.575,0,0,0-.178-6.355,26.912,26.912,0,0,0-.359-3.429c-.184-1.189-.394-2.376-.517-3.563-.041-.4-.066-.8-.086-1.2,0-.018,0-.035,0-.053a22.613,22.613,0,0,0-.23-2.746c-.185-1.063-.957-1.721-1.332-2.637a4.975,4.975,0,0,1-.269-.9,12.394,12.394,0,0,1-.132-2.84,3.515,3.515,0,0,1,.059-.543,3.1,3.1,0,0,1,1.717-2.181,7.485,7.485,0,0,1,1.693-.629,6.5,6.5,0,0,1,1.393-.135,7.32,7.32,0,0,0,.906-.068,3.144,3.144,0,0,0,.422-.094h0a2.277,2.277,0,0,0,.477-.2c1.658-.942,1.528-3.125,1.394-4.778,0-.06-.01-.12-.015-.179a5.134,5.134,0,0,1-.023-.7,1.609,1.609,0,0,1,.218-.769,1.522,1.522,0,0,1,.341-.377,3.232,3.232,0,0,1,.761-.434c.177-.076.369-.15.57-.219a7.15,7.15,0,0,1,2.917-.421l.1.012a3.071,3.071,0,0,1,1.027.3,2.2,2.2,0,0,1,.5.355,2.141,2.141,0,0,1,.455.623,2.182,2.182,0,0,1,.2.667,9.63,9.63,0,0,1,.04,1.019c0,.1.01.2.022.311.169,1.5.2,3.571,1.441,4.668a2.535,2.535,0,0,0,.4.292h0q.081.048.161.086a2.843,2.843,0,0,0,1.283.236c.251,0,.514-.009.795-.009a6.309,6.309,0,0,1,2.819.555,2.675,2.675,0,0,1,1.228,1.225c.033.068.063.139.091.213a3.638,3.638,0,0,1,.219,1.095,9.443,9.443,0,0,1-.229,2.2c-.335,1.8-.633,3.636-.893,5.491q-.039.272-.076.545c-.369,2.7-.659,5.422-.868,8.075" transform="translate(-1727.435 -536.919)" fill="#ff9490"/>
      <path id="Path_8431" data-name="Path 8431" d="M1798.6,520.256a1.434,1.434,0,1,1-1.4-1.4,1.4,1.4,0,0,1,1.4,1.4" transform="translate(-1773.662 -506.475)" fill="#ff7d7d"/>
      <path id="Path_8432" data-name="Path 8432" d="M1915.578,517.668a1.434,1.434,0,1,1-1.4-1.4,1.4,1.4,0,0,1,1.4,1.4" transform="translate(-1879.832 -504.126)" fill="#ff7d7d"/>
      <path id="Path_8433" data-name="Path 8433" d="M1816.377,460.174c-.207.031-.428.045-.605.065a4.571,4.571,0,0,1-1.762-.292,5.3,5.3,0,0,1-3.01-3.111,13.135,13.135,0,0,1-.695-2.563c-.065-.311-.118-.621-.161-.926a7.662,7.662,0,0,1,.591-5.188,5.121,5.121,0,0,1,4.465-2.3,6.116,6.116,0,0,1,4.207,1.676,4.868,4.868,0,0,1,1.206,1.958,7.053,7.053,0,0,1,.284,1.134,4.472,4.472,0,0,1,.1,1.118c-.053.56-.11,1.116-.194,1.67-.108.714-.217,1.428-.348,2.138a4.787,4.787,0,0,1-.3.964,7.172,7.172,0,0,1-1.285,2.262,5.967,5.967,0,0,1-2.12,1.306,1.727,1.727,0,0,1-.373.091" transform="translate(-1786.582 -440.223)" fill="#ffa79f"/>
      <path id="Path_8434" data-name="Path 8434" d="M1880.325,495.744c0-.161-.222-.355-.654-.486a5.7,5.7,0,0,0-2.405.165.509.509,0,0,0-.249.095.235.235,0,0,0,.046.336.982.982,0,0,0,.406.208,6.514,6.514,0,0,0,2.218-.027c.429-.011.637-.136.639-.29" transform="translate(-1847.387 -484.984)" fill="#495968"/>
      <path id="Path_8435" data-name="Path 8435" d="M1821.773,497.294c-.005-.161.215-.358.644-.494a5.734,5.734,0,0,1,2.411.135.517.517,0,0,1,.251.091.234.234,0,0,1-.039.336.971.971,0,0,1-.4.212,6.53,6.53,0,0,1-2.22,0c-.43-.006-.641-.128-.646-.282" transform="translate(-1797.297 -486.375)" fill="#495968"/>
      <path id="Path_8436" data-name="Path 8436" d="M1817.841,443.269c-.018.123-.037.243-.056.361-.044.28-.09.546-.13.8a1.644,1.644,0,0,1-.471-.926c-.035-.369.173-.622.193-.955.025-.435-.369-.846-.508-1.238-.185-.52-.035-1.114-.293-1.592a1,1,0,0,0-.092-.144c-.455-.591-.944-1.158-1.416-1.737a.9.9,0,0,0-.269-.251,9.2,9.2,0,0,1-5.559,5.017,9.376,9.376,0,0,0,1.433-2.514,7.77,7.77,0,0,1-3.044,2.285,4.376,4.376,0,0,0,.272-1.121c-.042.109-.089.23-.138.359v0a5.787,5.787,0,0,1-.3,1,.406.406,0,0,0-.009.042c-.014.077-.025.155-.033.232h0c-.032.272-.037.545-.044.82a.335.335,0,0,1-.054.214.232.232,0,0,1-.286.03.458.458,0,0,1-.158-.163c-.048-.354-.1-.706-.143-1.061a16.984,16.984,0,0,1-.161-2.189q0-.164,0-.328a6.988,6.988,0,0,1,.081-1.051c.011-.07.025-.139.039-.207a.139.139,0,0,1,0-.019,3.379,3.379,0,0,1,.5-1.19,3.185,3.185,0,0,1,.215-.286,5.813,5.813,0,0,1,3.132-1.443,7.583,7.583,0,0,1,2.865-.048,6.343,6.343,0,0,1,3.71,1.938c.041.048.08.1.117.144,1.022,1.335.861,3.467.6,5.222" transform="translate(-1783.504 -431.143)" fill="#6164a5"/>
      <path id="Path_8437" data-name="Path 8437" d="M1890.485,512.491c0,.249.146.451.326.451s.326-.2.326-.451-.146-.451-.326-.451-.326.2-.326.451" transform="translate(-1859.659 -500.29)" fill="#121212"/>
      <path id="Path_8438" data-name="Path 8438" d="M1885.784,510.353c.133-.025.216-.055.185-.092a1.244,1.244,0,0,0-1.126-.24,1.264,1.264,0,0,0-.542.189c-.1.063-.326.253-.241.376.132.192.635-.128.805-.146.015,0,.605-.029.919-.088" transform="translate(-1853.81 -498.433)" fill="#121212"/>
      <path id="Path_8439" data-name="Path 8439" d="M1837.61,512.491c0,.249-.146.451-.326.451s-.326-.2-.326-.451.146-.451.326-.451.326.2.326.451" transform="translate(-1811.079 -500.29)" fill="#121212"/>
      <path id="Path_8440" data-name="Path 8440" d="M1829.715,510.353c-.133-.025-.216-.055-.185-.092a1.244,1.244,0,0,1,1.126-.24,1.265,1.265,0,0,1,.542.189c.1.063.326.253.241.376-.132.192-.635-.128-.806-.146-.014,0-.605-.029-.919-.088" transform="translate(-1804.331 -498.433)" fill="#121212"/>
      <path id="Path_8441" data-name="Path 8441" d="M1851.378,557.249c.2.014.441-.045.644-.051a8.674,8.674,0,0,1,1.252-.038c.081.009-.283.651-.324.7a1.458,1.458,0,0,1-.7.427,2.483,2.483,0,0,1-1.833-.241c-.155-.091-.687-.611-.57-.849.018-.036.066-.043.106-.045a6.266,6.266,0,0,1,1.351.09.715.715,0,0,0,.076.009" transform="translate(-1822.759 -541.225)" fill="#fff"/>
      <path id="Path_8442" data-name="Path 8442" d="M1759.979,640.906c-.132.476-.27.955-.408,1.438a38.889,38.889,0,0,0-1.589,7.212q-.141,1.636-.219,3.254-.009.181-.017.363-.056,1.223-.08,2.437-.016.775-.019,1.547c-.01,2.081.044,4.153.146,6.231.058,1.179.273,11.016-.262,11.19a30.439,30.439,0,0,1-3.229.887q-.376.081-.755.154a35.822,35.822,0,0,1-13.682-.1q-.469-.094-.933-.2a33.455,33.455,0,0,1-3.366-.958c-.042-5.581,1.68-10.8,1.144-16.383-.019-.195-.044-.388-.075-.581-.11-.689-.284-1.368-.459-2.045q-.192-.742-.365-1.484-.074-.317-.146-.635c-.521-2.308-.938-4.616-1.394-6.94-.152-.776-.309-1.553-.475-2.333-.065-.306-.136-.612-.214-.915-.095-.371-.2-.739-.322-1.1-.208-.623-.544-.936-.172-1.311a1.234,1.234,0,0,1,.133-.114c1.365-1.024,3.337-.731,4.927-1.208.268-.081.543-.168.819-.226a2.276,2.276,0,0,1,.953-.023q.055.1.109.2l.049.088.018.032.09.156q.075.128.15.25l.009.015.039.063c.131.212.263.415.4.616l.093.136c.269.392.552.78.863,1.207a5.129,5.129,0,0,0,5.533,1.832,6.776,6.776,0,0,0,3.88-3.624l.026-.055h0a1.262,1.262,0,0,1,.207-.328l.012-.013a.518.518,0,0,1,.043-.039l.014-.011a.493.493,0,0,1,.042-.028l.017-.01.007,0a.956.956,0,0,1,.31-.083,6.874,6.874,0,0,1,.995-.074c1.278-.007,2.421.3,3.755.3.092.012.182.027.272.043a7.722,7.722,0,0,1,.876.221c.659.2,1.3.458,2,.607a.566.566,0,0,1,.195.07.183.183,0,0,1,.073.088.315.315,0,0,1-.012.189" transform="translate(-1716.654 -615.538)" fill="#ffc05e"/>
      <path id="Path_8443" data-name="Path 8443" d="M1861.041,517.97a.116.116,0,0,1-.045-.009,1.006,1.006,0,0,1-.617-.926.949.949,0,0,1,.145-.329c.016-.026.031-.052.046-.078a2.844,2.844,0,0,0,.284-1.606.113.113,0,0,1,.225-.024,3.076,3.076,0,0,1-.311,1.738c-.016.028-.033.056-.049.083a.772.772,0,0,0-.116.251c-.041.238.232.575.484.684a.111.111,0,0,1,.058.147.113.113,0,0,1-.1.067" transform="translate(-1832.328 -502.884)" fill="#121212"/>
      <path id="Path_8444" data-name="Path 8444" d="M1812.9,525.733a2.3,2.3,0,0,0,1.719,1.226c.41,0,.8-.2,1.21-.207a8.794,8.794,0,0,1,1.273.265c2.511.342,3.532-3.588,4.352-5.231l.593,4.9a22.853,22.853,0,0,1-3.517,2.621,3.959,3.959,0,0,1-3.675.1,10.7,10.7,0,0,1-2.093-1.086c-.331-.214-.66-.435-.976-.669-.121-.09-.208-.215-.324-.3s-.256-.079-.319-.2a.38.38,0,0,1-.022-.2c.048-.762,0-1.543.076-2.3a9.786,9.786,0,0,0-.338-2.027c-.016-.151-.123-.9.185-.83.2.044.26.515.294.669a5.424,5.424,0,0,0,.3.923,12.911,12.911,0,0,0,1.258,2.345" transform="translate(-1787.365 -509.135)" fill="#6164a5"/>
      <path id="Path_8445" data-name="Path 8445" d="M1822.832,544.036a4.1,4.1,0,0,0,2.587-.043,4.387,4.387,0,0,1,1.076-.334,2.858,2.858,0,0,1,1.018.165l1.777.515a2.278,2.278,0,0,0,1.872-.009c-1.235-.551-3.12-1.863-4.5-1.818a4.122,4.122,0,0,0-1.554.613c-.372.174-1.892,1.034-2.278.911" transform="translate(-1798.258 -527.945)" fill="#6164a5"/>
      <path id="Path_8446" data-name="Path 8446" d="M1791.9,727.835a13.007,13.007,0,0,1-4.867,1.736,17.935,17.935,0,0,1-13.238-.87,47.924,47.924,0,0,0-.442,4.832c.708,1.023,2.016.972,3.241,1.251,4.237.967,8.656.061,12.907-.844a4.5,4.5,0,0,0,2.741-1.292c-.083-1.635-.381-3.176-.343-4.813" transform="translate(-1753.354 -696.142)" fill="#f4f3f0"/>
      <path id="Path_8447" data-name="Path 8447" d="M1812.074,639.39a7.43,7.43,0,0,1-2.555,4.317,6.422,6.422,0,0,1-8.7.216c-1.214-1.126-2.769-3.1-2.6-4.835a2.275,2.275,0,0,1,.953-.023,23.05,23.05,0,0,0,1.818,2.762,5.129,5.129,0,0,0,5.533,1.832,6.775,6.775,0,0,0,3.88-3.625.986.986,0,0,1,.368-.487.956.956,0,0,1,.309-.083,6.9,6.9,0,0,1,.995-.074" transform="translate(-1775.908 -615.539)" fill="#3b3131"/>
    </g>
  </g>
  <g id="Group_2968" data-name="Group 2968">
    <g id="Group_2967" data-name="Group 2967" clip-path="url(#clip-path-4)">
      <path id="Path_8449" data-name="Path 8449" d="M991.021,920.844a.107.107,0,0,1-.029,0,7.639,7.639,0,0,1-3.958-2.822,8.173,8.173,0,0,1-1.636-4.7.11.11,0,1,1,.22,0,7.9,7.9,0,0,0,5.432,7.3.117.117,0,0,1,.077.142.111.111,0,0,1-.106.086" transform="translate(-899.14 -828.804)" fill="#231f20"/>
    </g>
  </g>
  <g id="Group_2970" data-name="Group 2970" transform="translate(178.59 123.935)">
    <g id="Group_2969" data-name="Group 2969" clip-path="url(#clip-path-5)">
      <path id="Path_8450" data-name="Path 8450" d="M2122.785,1342.624h-20.532a18.556,18.556,0,0,0-10.07,3.035l-8.191-4.631,3.16,9.389a16.476,16.476,0,0,0-3.2,11.158c.836,9.541,8.341,17.46,18.3,17.46h20.532a18.207,18.207,0,1,0,0-36.411" transform="translate(-2083.893 -1341.027)" fill="#f2d9cc"/>
      <path id="Path_8451" data-name="Path 8451" d="M2155.12,1575.05q.188-.008.375,0c2.568.119,3.64,3.057,3,5.209a10.176,10.176,0,0,1-2.814,4.1,27.41,27.41,0,0,0-2.794,3.646c-.759,1.067-2.551,2.478-2.645,3.771-.044.6-.116,1.333-.671,1.588-.253.117-.568.1-.781.281-.361.3-.191.894-.413,1.3s-.767.524-1.167.782a9.007,9.007,0,0,0-1.107,1.136,1.145,1.145,0,0,1-1.44.237,7.363,7.363,0,0,0-2.554-5.744,4.653,4.653,0,0,1-1.3-1.329,1.121,1.121,0,0,1,.479-1.566c.171-.052.382-.061.479-.209s.031-.32.007-.484c-.124-.847.783-1.437,1.5-1.916,2.378-1.582,4.041-4.253,5.755-6.463a16.786,16.786,0,0,1,2.722-2.98,5.936,5.936,0,0,1,3.362-1.37" transform="translate(-2135.434 -1553.418)" fill="#6164a5"/>
      <path id="Path_8452" data-name="Path 8452" d="M2309.835,1463.4a1.326,1.326,0,1,0,1.389-1.243,1.315,1.315,0,0,0-1.389,1.243" transform="translate(-2288.952 -1450.963)" fill="#eb8e8b"/>
      <path id="Path_8453" data-name="Path 8453" d="M2313.456,1428.142a.548.548,0,0,0,.688.053,1.31,1.31,0,0,0,.448-.584,6.446,6.446,0,0,0,.565-2.437c.031-.658-.1-1.532-.911-1.64a.825.825,0,0,0-.963.669,5.465,5.465,0,0,0,.093,1.569c.018.584-.323,1.9.082,2.37" transform="translate(-2292.041 -1415.899)" fill="#453939"/>
      <path id="Path_8454" data-name="Path 8454" d="M2448.37,1615.112c-2.077-.417-3.465-3.911-4.3-5.313-1.674-2.818-4.639-4.852-5.752-7.928a7.5,7.5,0,0,1-.446-2.623,3.71,3.71,0,0,1,.612-2.2c1.21-1.628,4.321-.665,5.713.243a6.608,6.608,0,0,1,2.245,2.705,19.515,19.515,0,0,1,1.146,3.349c.466,1.69,1.682,2.692,2.575,4.206,1.238,2.1,2.781,4.969.345,6.9a2.566,2.566,0,0,1-2.141.658" transform="translate(-2405.159 -1572.592)" fill="#f5a174"/>
      <path id="Path_8455" data-name="Path 8455" d="M2340.794,1488.114q-.068.131-.125.256a3.412,3.412,0,0,0-.222,2.478c.263,1.124-.024,2.269.378,3.406a3.169,3.169,0,0,0,2.328,2.17,3.738,3.738,0,0,0,1.456-.118c1.465-.36,2.642-1.163,2.8-2.745a25.329,25.329,0,0,0-.223-3.123,27.662,27.662,0,0,1,.377-4.311.726.726,0,0,0-.1-.6c-.174-.185-.476-.141-.725-.083l-1.519.356c-1.613.378-3.593.709-4.421,2.311" transform="translate(-2316.615 -1472.054)" fill="#eb8e8b"/>
      <path id="Path_8456" data-name="Path 8456" d="M2317.571,1410.155v.016c.08,1.185.641,2.976,1.767,3.6a3.088,3.088,0,0,0,1.654.278,9.335,9.335,0,0,0,2.829-.586,3.381,3.381,0,0,0,1.063-.583,5.018,5.018,0,0,0,1-1.839c.291-.59.724-1.127,1.035-1.713a9.079,9.079,0,0,0,1.141-4.047c.07-2.948-3.4-4.411-5.961-4.153a5.158,5.158,0,0,0-4.843,4.715,32.871,32.871,0,0,0,.314,4.311" transform="translate(-2295.675 -1395.548)" fill="#f5a39f"/>
      <path id="Path_8457" data-name="Path 8457" d="M2365.949,1447.419a1.741,1.741,0,0,1-.373-.039.7.7,0,0,1-.5-.494.285.285,0,0,1,.008-.184c.065-.14.267-.165.434-.168a4.76,4.76,0,0,1,1.467.127c.266.08,1.546.889.929,1.169-.161.073-.593-.221-.753-.266a5.383,5.383,0,0,0-1.206-.144" transform="translate(-2339.075 -1436.778)" fill="#232323"/>
      <path id="Path_8458" data-name="Path 8458" d="M2326.346,1461.133v0c-.111.165-.668.04-.821.01-.322-.064-.633-.14-.959-.2a.4.4,0,0,1-.224-.1.151.151,0,0,1-.04-.071.165.165,0,0,1,.021-.111.5.5,0,0,1,.459-.18c.159,0,1.808.269,1.565.647" transform="translate(-2302.08 -1449.446)" fill="#232323"/>
      <path id="Path_8459" data-name="Path 8459" d="M2331.828,1464.371c.216.2.332.552-.042.7a.358.358,0,0,1-.38-.152.561.561,0,0,1-.129-.433c.06-.359.349-.3.551-.111" transform="translate(-2308.408 -1452.835)" fill="#232323"/>
      <path id="Path_8460" data-name="Path 8460" d="M2371.721,1461.9v0c-.111.165-.668.041-.821.01-.322-.064-.633-.14-.96-.2a.4.4,0,0,1-.224-.1.155.155,0,0,1-.04-.071.164.164,0,0,1,.021-.111.5.5,0,0,1,.459-.18c.159,0,1.808.269,1.565.647" transform="translate(-2343.262 -1450.139)" fill="#232323"/>
      <path id="Path_8461" data-name="Path 8461" d="M2377.2,1465.134c.216.2.332.552-.042.7a.358.358,0,0,1-.38-.152.562.562,0,0,1-.129-.433c.06-.359.349-.3.551-.111" transform="translate(-2349.59 -1453.528)" fill="#232323"/>
      <path id="Path_8462" data-name="Path 8462" d="M2320.125,1446a1.713,1.713,0,0,1-.365-.039.687.687,0,0,1-.494-.483.278.278,0,0,1,.008-.18c.063-.137.261-.161.424-.164a4.643,4.643,0,0,1,1.433.124c.26.078,1.51.869.908,1.142-.157.071-.579-.216-.737-.26a5.245,5.245,0,0,0-1.178-.141" transform="translate(-2297.505 -1435.51)" fill="#232323"/>
      <path id="Path_8463" data-name="Path 8463" d="M2343.694,1506.674c-.044-.122,0-.263.188-.389a1.123,1.123,0,0,1,.42-.141,6.523,6.523,0,0,1,2.214-.18.131.131,0,0,1,.094.045c.025.04,0,.092-.025.131a2.68,2.68,0,0,1-2.5.83.537.537,0,0,1-.394-.3" transform="translate(-2319.669 -1490.683)" fill="#fff"/>
      <path id="Path_8464" data-name="Path 8464" d="M2387.179,1708.926c0,.245.469.443,1.047.443s1.047-.2,1.047-.443-.469-.443-1.047-.443-1.047.2-1.047.443" transform="translate(-2359.15 -1674.523)" fill="#d38275"/>
      <path id="Path_8465" data-name="Path 8465" d="M2260.35,1706.262c0,.245.469.443,1.047.443s1.047-.2,1.047-.443-.469-.443-1.047-.443-1.047.2-1.047.443" transform="translate(-2244.042 -1672.105)" fill="#d38275"/>
      <path id="Path_8466" data-name="Path 8466" d="M2310.206,1886.315c0,.341.093.617.208.617s.208-.276.208-.617-.094-.617-.208-.617-.208.276-.208.617" transform="translate(-2289.291 -1835.36)" fill="#d38275"/>
      <path id="Path_8467" data-name="Path 8467" d="M2240.731,1571.891l.015.01a8.513,8.513,0,0,1,.975,1,4.446,4.446,0,0,0,2.481.887,10.237,10.237,0,0,0,2.637.132,5.264,5.264,0,0,0,3.01-1.435,5.478,5.478,0,0,1,.836-.76c.618-.391,1.1-.056,1.713.091,2.131.508,4.045,1.323,4.6,3.6a10.829,10.829,0,0,1,.187,2.872q-.108,3.7-.52,7.379c-.271,2.421-.765,4.814-.911,7.266-.161,2.683-.121,5.373-.305,8.055a6.956,6.956,0,0,1-.422,2.239c-.646,1.54-2.1,1.555-3.531,1.959a23.908,23.908,0,0,1-5.46.665l-4.334.194a14.325,14.325,0,0,1-2.958-.071c-3.115-.51-6.323-1.531-6.646-5.174a13.177,13.177,0,0,1,.314-3.422,105.22,105.22,0,0,0,1.478-13.568c.143-3.281.18-8.827,3.474-10.822.673-.407,2.6-1.579,3.37-1.1" transform="translate(-2218.375 -1550.242)" fill="#8294c7"/>
      <path id="Path_8468" data-name="Path 8468" d="M2347.325,1461.083a.109.109,0,0,1-.064-.021.746.746,0,0,1-.232-1.257c.035-.05.069-.1.1-.144a2.761,2.761,0,0,0,.189-1.818.108.108,0,0,1,.215-.025,2.922,2.922,0,0,1-.221,1.957c-.033.052-.07.1-.105.153a.781.781,0,0,0-.21.479c.017.2.212.351.393.481a.106.106,0,0,1,.023.15.108.108,0,0,1-.087.044" transform="translate(-2322.482 -1446.939)" fill="#121212"/>
      <path id="Path_8469" data-name="Path 8469" d="M2367.29,1547.589a21.565,21.565,0,0,1,3.072-1.64,6.846,6.846,0,0,1,2.3-.2,1.22,1.22,0,0,0,.593-.068c.491-.239.4-.972.107-1.429a4.215,4.215,0,0,0-2.177-1.6,12.708,12.708,0,0,0-2.7-.542,1.094,1.094,0,0,0-.958.183.965.965,0,0,0-.194.6c-.075,1.028.062,2.168-.573,2.988-.937,1.209-3.415.516-4.1,1.639-1.155,1.887,4.027.37,4.635.072" transform="translate(-2336.741 -1523.499)" fill="#6164a5"/>
      <path id="Path_8470" data-name="Path 8470" d="M2311.184,1549.366a4.069,4.069,0,0,1-.612-1.994c-.043-.506.167-1.279-.328-1.6-.853-.554-2.777.563-2.956,1.429a2.078,2.078,0,0,0,.424,1.5,6.58,6.58,0,0,0,5.3,2.932c.857,0,2.017-.483.948-1.184-.27-.177-1-.059-1.337-.149a2.389,2.389,0,0,1-1.439-.935" transform="translate(-2286.618 -1526.716)" fill="#6164a5"/>
      <path id="Path_8471" data-name="Path 8471" d="M2251.072,1819.3c3.909,1.134,7.593,1.019,11.582.965a1.634,1.634,0,0,0,.7-.113c.529-.259.6-.96.61-1.542a1.718,1.718,0,0,0-.316-1.241,2.2,2.2,0,0,0-.705-.4c-1.886-.861-2.174-2.459-2.472-4.278a1.2,1.2,0,0,0-.191-.563c-.6-.758-3.29-.6-4.188-.716l-5.2-.684a9.384,9.384,0,0,0-1.069,7.441,1.7,1.7,0,0,0,.277.617,1.86,1.86,0,0,0,.972.519" transform="translate(-2234.178 -1767.316)" fill="#4b4b65"/>
      <path id="Path_8472" data-name="Path 8472" d="M2457.969,1682.534a.113.113,0,0,1-.038-.007.107.107,0,0,1-.064-.137,11.131,11.131,0,0,0,.613-5.358c-.023-.174-.052-.351-.079-.522-.042-.267-.086-.543-.114-.818a14.377,14.377,0,0,1-.039-1.634q.109-7.828.22-15.655l.017-1.225a.108.108,0,0,1,.108-.105h0a.107.107,0,0,1,.107.108l-.017,1.225q-.111,7.827-.22,15.655a14.2,14.2,0,0,0,.038,1.61c.027.269.071.542.113.806.027.172.056.351.079.527a11.344,11.344,0,0,1-.624,5.46.108.108,0,0,1-.1.07" transform="translate(-2423.299 -1627.865)" fill="#121212"/>
      <path id="Path_8473" data-name="Path 8473" d="M2444.588,1584.39q.071-.171.157-.337c1.177-2.256,4.33-2,6.047-.528a10.158,10.158,0,0,1,2.611,4.232c1.484,3.868,8.461,11.513,4.07,15.533-1.11,1.016-1.6.359-2.661.207-.772-.11-2.34.256-2.893-.411-.255-.308-.272-.767-.553-1.054-.422-.431-1.256-.294-1.6-.789-.285-.412-.035-.99-.2-1.462-.2-.581-.947-.836-1.158-1.412a2.114,2.114,0,0,1-.054-.822c.1-2.22-1.3-4.006-2.293-5.886a16.607,16.607,0,0,1-1.614-3.682,5.748,5.748,0,0,1,.136-3.588" transform="translate(-2410.93 -1560.084)" fill="#6164a5"/>
      <path id="Path_8474" data-name="Path 8474" d="M2400.887,1697.431a.109.109,0,0,1-.072-.027.106.106,0,0,1-.009-.151,18.436,18.436,0,0,0,4.322-8.5.109.109,0,0,1,.128-.083.107.107,0,0,1,.084.126,18.651,18.651,0,0,1-4.372,8.6.109.109,0,0,1-.081.036" transform="translate(-2371.493 -1656.54)" fill="#121212"/>
      <path id="Path_8475" data-name="Path 8475" d="M2384.352,1707.429a.109.109,0,0,1-.085-.041.106.106,0,0,1,.018-.15l2.755-2.158a.109.109,0,0,1,.152.017.106.106,0,0,1-.017.15l-2.755,2.158a.109.109,0,0,1-.067.023" transform="translate(-2356.485 -1671.415)" fill="#121212"/>
      <path id="Path_8476" data-name="Path 8476" d="M2365.066,1608.845a.107.107,0,0,1-.108-.1,31,31,0,0,1,.448-6.793.108.108,0,0,1,.213.037,30.788,30.788,0,0,0-.446,6.746.107.107,0,0,1-.1.112h0" transform="translate(-2338.955 -1577.756)" fill="#121212"/>
      <path id="Path_8477" data-name="Path 8477" d="M2334.728,1604.762h0a.108.108,0,0,1-.107-.108,25.258,25.258,0,0,1,1.153-7.215.109.109,0,0,1,.135-.071.107.107,0,0,1,.072.134,25.045,25.045,0,0,0-1.144,7.155.108.108,0,0,1-.108.105" transform="translate(-2311.448 -1573.673)" fill="#121212"/>
      <path id="Path_8478" data-name="Path 8478" d="M2369.5,1543.3a.109.109,0,0,1-.071-.026.106.106,0,0,1-.011-.151,10.362,10.362,0,0,0,2.276-4.442.108.108,0,0,1,.211.048,10.574,10.574,0,0,1-2.323,4.534.107.107,0,0,1-.082.037" transform="translate(-2343.004 -1520.336)" fill="#121212"/>
      <path id="Path_8479" data-name="Path 8479" d="M2357.659,1566.535a.6.6,0,0,1-.518-.25.106.106,0,0,1,.032-.148.109.109,0,0,1,.15.032.456.456,0,0,0,.514.125,1.553,1.553,0,0,0,.535-.38.109.109,0,0,1,.153,0,.106.106,0,0,1,0,.151,1.719,1.719,0,0,1-.616.429.788.788,0,0,1-.247.039" transform="translate(-2331.873 -1545.102)" fill="#121212"/>
      <path id="Path_8480" data-name="Path 8480" d="M2299.082,1392.577c-.236.366-.541.9-.916.569-.419-.6.382-1.48.034-2.126-.1-.179-.268-.307-.376-.479-.264-.42-.041-.756,0-1.171a4.087,4.087,0,0,0-.182-1.78.374.374,0,0,0-.149-.222.4.4,0,0,0-.224-.025c-1.467.116-2.874.549-4.342.7-1.655.168-3.293.467-4.95.6l1.1-1.18a3.58,3.58,0,0,1-2.134-.767,4.573,4.573,0,0,0,2.317-1.067,2.775,2.775,0,0,1-1.653-1.465,17.245,17.245,0,0,0,4.151-.782,10.672,10.672,0,0,1,3.038-.195,10.414,10.414,0,0,1,2.5.459,4.817,4.817,0,0,1,3.485,3.541c.689-.346,1.6-.737,2.318-1.011a4.242,4.242,0,0,1-1.687,1.681l1.753.984a4.108,4.108,0,0,1-2.146.181q-.115,1.064-.23,2.128a1.024,1.024,0,0,1-.141.493c-.331.467-.967.383-1.356.671a1.1,1.1,0,0,0-.209.266" transform="translate(-2268.182 -1379.264)" fill="#231f20"/>
      <path id="Path_8481" data-name="Path 8481" d="M2410.883,1470.875a1.326,1.326,0,1,1,1.786,1.29,1.278,1.278,0,0,1-.311.074,1.347,1.347,0,0,1-.505-.039,1.286,1.286,0,0,1-.294-.12,1.3,1.3,0,0,1-.676-1.206" transform="translate(-2380.662 -1457.745)" fill="#eb8e8b"/>
      <path id="Path_8482" data-name="Path 8482" d="M2548.155,1607.9c-.41,3.217-.215,6.687-.324,9.951-.364,3.526-1.558,7.109-5.012,8.6-.361.15-1.585-.952-1.733-1.267-.629-1.338-.486-4.042-.159-5.476a114.277,114.277,0,0,1,3.652-12.621,5.171,5.171,0,0,1,3.593.676l-.018.136" transform="translate(-2498.435 -1582.429)" fill="#f5a39f"/>
      <path id="Path_8483" data-name="Path 8483" d="M2545.1,1504.644a.324.324,0,0,1,.284.161,1.356,1.356,0,0,1,.16.665c.039.987.1,1.969.175,2.958.1-1.045.206-2.09.386-3.125.037-.215.149-.487.37-.467.555.051.5,1.552.5,1.926,0,.693.052,1.367.075,2.063a20.041,20.041,0,0,1,.255-2.58c.025-.125.082-.276.21-.292a.268.268,0,0,1,.179.059.968.968,0,0,1,.357.551,2.83,2.83,0,0,1,.07.663c.035,1.311.086,2.647-.005,3.957a18.186,18.186,0,0,1-.25,3.284,4.134,4.134,0,0,1-.747,1.8c-1.894,2.362-4.266-.623-4.946-2.288a26.623,26.623,0,0,0-2.208-4.26c-.157-.246-.311-.589-.107-.8.231-.236.628-.019.869.207a12.544,12.544,0,0,1,2.038,2.471c-.089-.142.184-.975.177-1.207a7.9,7.9,0,0,1,.164-1.525,34.357,34.357,0,0,0,.393-3.7.409.409,0,0,1,.049-.21.289.289,0,0,1,.425,0,.816.816,0,0,1,.18.438l.549,2.839a6.648,6.648,0,0,1,.068-3.212c.052-.17.149-.365.328-.38" transform="translate(-2497.628 -1489.522)" fill="#f5a39f"/>
      <path id="Path_8484" data-name="Path 8484" d="M2576.526,1583.443a.108.108,0,0,1-.106-.084,3.816,3.816,0,0,0-.657-1.675,3.25,3.25,0,0,0-.486-.45c-.291-.23-.6-.45-.906-.654a.106.106,0,0,1-.03-.148.109.109,0,0,1,.15-.03c.316.207.626.431.921.665a3.447,3.447,0,0,1,.518.48,3.976,3.976,0,0,1,.7,1.766.107.107,0,0,1-.083.127l-.023,0" transform="translate(-2528.998 -1558.264)" fill="#121212"/>
      <path id="Path_8485" data-name="Path 8485" d="M2588.664,1548.265h-.014a22.181,22.181,0,0,1-2.792-.519.107.107,0,0,1-.078-.13.108.108,0,0,1,.132-.077,21.974,21.974,0,0,0,2.765.514.107.107,0,0,1-.013.213" transform="translate(-2539.393 -1528.45)" fill="#121212"/>
      <path id="Path_8486" data-name="Path 8486" d="M2605.935,1570.037a.108.108,0,0,1-.084-.04,1.087,1.087,0,0,1-.141-.847,16.026,16.026,0,0,1,.8-3.375.109.109,0,0,1,.138-.066.106.106,0,0,1,.066.136,15.827,15.827,0,0,0-.791,3.33.915.915,0,0,0,.1.687.106.106,0,0,1-.017.15.109.109,0,0,1-.068.024" transform="translate(-2557.464 -1544.94)" fill="#121212"/>
    </g>
  </g>
  <g id="Group_2972" data-name="Group 2972">
    <g id="Group_2971" data-name="Group 2971" clip-path="url(#clip-path-4)">
      <path id="Path_8488" data-name="Path 8488" d="M1798.725,1879a1.243,1.243,0,1,1-1.242-1.286,1.264,1.264,0,0,1,1.242,1.286" transform="translate(-1655.005 -1704.183)" fill="#fff"/>
      <path id="Path_8489" data-name="Path 8489" d="M1963.01,1243.88c0,.4-1.644.729-3.673.729s-3.673-.326-3.673-.729,1.645-.729,3.673-.729,3.673.326,3.673.729" transform="translate(-1784.472 -1128.261)"/>
      <path id="Path_8490" data-name="Path 8490" d="M428.931,992.5a26.1,26.1,0,0,1-19.113,12.576,25.576,25.576,0,0,1-21.275-7.957c-7.157-7.655-9.269-18.855-11.06-29.379l-4.1-24.109c3.037,10.984,5.687,20.682,8.724,31.666,1.612,5.829,3.284,11.788,6.7,16.7a25.357,25.357,0,0,0,19.578,10.861c7.65.272,15.651-4.233,20.553-10.36" transform="translate(-340.695 -856.427)" fill="#606060"/>
      <path id="Path_8491" data-name="Path 8491" d="M344.807,874.553a94.645,94.645,0,0,0,5.149,27.536c2.4,6.578,8,18.157,14.749,21.013-8.113-3.435-12.533-9.7-16.1-17.651-4.039-9-6.092-17.456-5.746-27.388l1.407-40.393c1.578,12.641-.1,24.153.54,36.884" transform="translate(-312.813 -760.254)" fill="#606060"/>
      <path id="Path_8492" data-name="Path 8492" d="M2327.692,490.2c-4.9.727-9.843-3.208-11.048-8.787a11.671,11.671,0,0,1-.266-2.371q0-.386.02-.765a10.478,10.478,0,0,1,.275-1.834q.086-.353.2-.695a9.194,9.194,0,0,1,1.234-2.493,8.355,8.355,0,0,1,.867-1.038,7.9,7.9,0,0,1,.749-.671q.263-.207.544-.391h0l-.811.531c-2.991,1.958-4.543,5.969-3.618,10.257,1.2,5.579,6.151,9.514,11.048,8.787a7.606,7.606,0,0,0,3.066-1.161l.811-.531a7.6,7.6,0,0,1-3.066,1.161" transform="translate(-2112.871 -427.609)" fill="#db8918"/>
      <path id="Path_8493" data-name="Path 8493" d="M2399.147,515.793l.212.983a2.637,2.637,0,0,1,2.381,1.454l-1.463.8a1.058,1.058,0,0,0-1.15-.586c-.419.062-.594.248-.528.555a.45.45,0,0,0,.168.27,1.473,1.473,0,0,0,.638.154,10.713,10.713,0,0,1,1.68.256,2.024,2.024,0,0,1,.951.614,2.476,2.476,0,0,1,.58,1.172,2.274,2.274,0,0,1-.259,1.743,2.449,2.449,0,0,1-1.39,1.016l.22,1.017-.134.02-.972.144-.167.025-.221-1.025a2.879,2.879,0,0,1-2.6-1.853l1.691-.638a1.18,1.18,0,0,0,1.341.718q.718-.107.621-.557a.491.491,0,0,0-.247-.344,1.7,1.7,0,0,0-.642-.143,4.1,4.1,0,0,1-2.332-.674,2.56,2.56,0,0,1-.584-2.909,2.006,2.006,0,0,1,1.157-1l-.22-1.02.167-.025.972-.144Z" transform="translate(-2186.911 -468.124)" fill="#db8918"/>
      <path id="Path_8494" data-name="Path 8494" d="M2356.307,485.5c3.662-.543,7.362,2.4,8.263,6.573s-1.337,8-5,8.541-7.363-2.4-8.264-6.573,1.338-8,5-8.541m4.44,10.157a2.274,2.274,0,0,0,.259-1.743,2.476,2.476,0,0,0-.58-1.172,2.025,2.025,0,0,0-.951-.614,10.713,10.713,0,0,0-1.68-.256,1.472,1.472,0,0,1-.638-.154.45.45,0,0,1-.168-.27q-.1-.461.528-.555a1.057,1.057,0,0,1,1.15.586l1.463-.8a2.637,2.637,0,0,0-2.381-1.454l-.212-.983-.134.02-.972.144-.167.025.22,1.02a2.005,2.005,0,0,0-1.157,1,2.561,2.561,0,0,0,.584,2.909,4.1,4.1,0,0,0,2.332.674,1.7,1.7,0,0,1,.642.143.492.492,0,0,1,.247.344q.1.45-.621.557a1.18,1.18,0,0,1-1.341-.718l-1.691.638a2.88,2.88,0,0,0,2.6,1.853l.222,1.025.167-.025.972-.144.134-.02-.22-1.017a2.451,2.451,0,0,0,1.39-1.016" transform="translate(-2145.3 -440.57)" fill="#fbc977"/>
      <path id="Path_8495" data-name="Path 8495" d="M2345.576,473.349c4.2-.623,8.447,2.753,9.481,7.542s-1.535,9.176-5.736,9.8-8.447-2.752-9.481-7.541,1.534-9.177,5.736-9.8m3.5,16.228c3.663-.543,5.9-4.367,5-8.541s-4.6-7.116-8.264-6.573-5.9,4.367-5,8.541,4.6,7.116,8.264,6.573" transform="translate(-2134.81 -429.535)" fill="#db8918"/>
      <path id="Path_8496" data-name="Path 8496" d="M2331.777,457.737c4.9-.727,9.843,3.208,11.047,8.787s-1.788,10.692-6.684,11.418-9.842-3.208-11.047-8.787,1.788-10.692,6.684-11.418m4.054,18.773c4.2-.623,6.77-5.01,5.736-9.8s-5.279-8.166-9.481-7.542-6.771,5.011-5.737,9.8,5.279,8.165,9.481,7.541" transform="translate(-2121.32 -415.356)" fill="#fbc977"/>
      <path id="Path_8497" data-name="Path 8497" d="M1946.927,1122.13c2.907.778,4.47,3.012,3.493,4.99s-4.127,2.951-7.034,2.173-4.47-3.011-3.492-4.99,4.126-2.951,7.033-2.173m-3.313,6.7c2.533.678,5.278-.17,6.13-1.894s-.51-3.671-3.044-4.349-5.278.17-6.13,1.894.511,3.671,3.044,4.348" transform="translate(-1769.817 -1018.181)" fill="#db8918"/>
      <path id="Path_8498" data-name="Path 8498" d="M1981.015,1141.322l-.2.406q1,.387,1.027,1.094l-1.211-.06q-.019-.347-.537-.486-.434-.116-.528.074a.126.126,0,0,0,.015.138,1.129,1.129,0,0,0,.357.208,9.442,9.442,0,0,1,.989.493.97.97,0,0,1,.4.449.652.652,0,0,1-.03.563,1.143,1.143,0,0,1-.762.568,2.849,2.849,0,0,1-1.239.035l-.208.42-.093-.025-.672-.18-.116-.031.209-.423q-1.1-.441-1.034-1.292l1.3.173q-.024.409.613.58.5.133.589-.053a.146.146,0,0,0-.04-.183,1.349,1.349,0,0,0-.363-.205,2.938,2.938,0,0,1-1.263-.8.659.659,0,0,1-.029-.652,1.141,1.141,0,0,1,.651-.539,2.244,2.244,0,0,1,1.085-.086l.208-.421.116.031.672.18Z" transform="translate(-1804.284 -1035.629)" fill="#db8918"/>
      <path id="Path_8499" data-name="Path 8499" d="M1937.655,1115.3c3.386.906,5.208,3.509,4.069,5.813s-4.808,3.438-8.195,2.532-5.208-3.509-4.069-5.813,4.808-3.438,8.195-2.532m-3.833,7.754c2.907.778,6.056-.2,7.033-2.173s-.586-4.212-3.493-4.99-6.055.2-7.033,2.173.585,4.212,3.492,4.99" transform="translate(-1760.253 -1011.94)" fill="#fbc977"/>
      <path id="Path_8500" data-name="Path 8500" d="M1954.133,1127.447c2.533.678,3.9,2.625,3.044,4.349s-3.6,2.572-6.13,1.894-3.9-2.625-3.044-4.348,3.6-2.572,6.13-1.894m-.634,4.731a1.141,1.141,0,0,0,.762-.568.65.65,0,0,0,.03-.562.968.968,0,0,0-.4-.449,9.437,9.437,0,0,0-.989-.494,1.131,1.131,0,0,1-.357-.208.126.126,0,0,1-.015-.138q.094-.19.528-.074.518.139.537.486l1.211.06q-.026-.708-1.027-1.094l.2-.406-.093-.025-.672-.18-.116-.031-.208.421a2.243,2.243,0,0,0-1.085.086,1.141,1.141,0,0,0-.651.539.66.66,0,0,0,.028.652,2.94,2.94,0,0,0,1.263.8,1.343,1.343,0,0,1,.363.205.145.145,0,0,1,.04.183q-.092.186-.589.053-.637-.17-.613-.58l-1.3-.173q-.068.851,1.034,1.292l-.209.423.116.031.672.18.093.025.208-.42a2.848,2.848,0,0,0,1.239-.036" transform="translate(-1777.251 -1023.039)" fill="#fbc977"/>
      <path id="Path_8501" data-name="Path 8501" d="M1941.408,1161.111l.057-1.051c0,.05-.007.1-.012.151,0,.017,0,.033-.006.05,0,.034-.008.068-.014.1,0,.019-.006.037-.01.056s-.011.063-.017.094l-.014.061c-.007.03-.014.059-.021.089s-.011.042-.017.063-.016.058-.026.087-.013.043-.021.064-.017.049-.026.073q-.023.063-.048.126l-.023.056c-.026.059-.052.119-.081.178s-.074.143-.115.213-.078.13-.12.193l-.042.061c-.03.043-.059.085-.091.126-.018.024-.036.047-.055.07s-.06.075-.091.112l-.061.07c-.032.036-.065.072-.1.108l-.06.063c-.037.038-.076.075-.115.112l-.055.052c-.058.053-.117.105-.178.156h0c-.061.051-.125.1-.189.149l-.063.046c-.045.033-.09.065-.136.1l-.077.051-.133.085-.081.049-.143.082-.078.043c-.058.031-.117.062-.177.092l-.049.026q-.115.057-.234.109l-.064.027c-.059.025-.118.051-.178.074l-.089.035-.161.06-.1.034-.164.054-.095.03-.184.053-.079.022c-.088.023-.177.046-.267.066l-.058.012c-.073.016-.147.032-.222.047l-.1.019-.182.032-.117.017-.173.024-.124.014-.183.019-.081.007q-.121.01-.243.017l-.036,0c-.092,0-.185.008-.279.01h-.362c-.092,0-.185,0-.277-.009l-.06,0q-.121-.007-.243-.016l-.053,0c-.093-.008-.186-.018-.278-.028l-.063-.008c-.086-.011-.171-.022-.257-.035l-.034-.005c-.087-.014-.174-.029-.261-.045s-.155-.03-.232-.047l-.113-.024c-.115-.026-.229-.054-.343-.084-.067-.018-.133-.037-.2-.057l-.126-.038-.126-.04-.123-.042-.123-.043-.12-.044-.12-.046-.117-.047-.124-.052-.084-.037-.133-.061-.078-.037-.144-.072-.059-.03q-.1-.052-.2-.107l-.03-.017c-.054-.031-.108-.062-.16-.094l-.064-.04-.121-.077-.069-.046-.11-.075-.068-.048-.106-.079-.062-.048-.112-.09-.049-.04q-.079-.066-.154-.133l-.019-.017q-.065-.059-.128-.119l-.047-.047-.092-.093-.051-.054-.082-.09-.05-.057-.077-.092-.045-.056c-.027-.034-.053-.068-.079-.1l-.035-.046q-.055-.075-.106-.152l-.009-.014q-.046-.07-.088-.14l-.031-.052c-.02-.035-.04-.069-.059-.1l-.032-.061c-.017-.033-.034-.066-.05-.1l-.03-.063q-.023-.05-.045-.1l-.026-.061c-.015-.037-.029-.074-.042-.111-.006-.017-.013-.034-.019-.052-.019-.054-.037-.109-.053-.164l0-.009c-.015-.052-.029-.1-.041-.156,0-.018-.008-.037-.012-.055-.008-.037-.016-.075-.023-.112,0-.021-.007-.043-.011-.064s-.011-.07-.016-.1-.005-.044-.008-.066-.007-.07-.01-.105,0-.043,0-.064c0-.038,0-.076,0-.114,0-.018,0-.037,0-.055,0-.056,0-.113,0-.169l-.057,1.051c0,.056,0,.113,0,.169,0,.018,0,.037,0,.055,0,.038,0,.076,0,.114,0,.021,0,.043,0,.064s.006.07.01.105.005.044.008.066.01.07.016.1.007.042.011.064c.007.037.015.075.023.112,0,.018.008.036.012.055.013.052.026.1.042.156l0,.009c.016.055.034.109.053.164.006.017.013.035.019.052.014.037.027.074.042.111l.026.061q.021.051.044.1l.03.063c.016.033.033.066.05.1l.032.061q.029.052.059.1l.031.052c.028.047.058.093.088.139l.01.015c.034.051.069.1.106.152l.035.047.079.1.045.056c.025.031.051.062.077.092l.05.057.081.089.051.055.092.093.048.047q.062.06.128.119l.019.017q.075.067.154.133l.049.04.112.09.063.047.106.079.068.048.11.075.069.046.12.077.064.04.16.094.031.018q.1.055.2.107l.06.031.143.072.078.037.133.062.084.037.062.027.063.025.117.047.12.046.12.044.123.043.123.041.126.04.127.038.058.018.141.039c.114.031.229.058.343.084l.112.024c.077.017.155.033.233.047l.041.008.22.037.035.005c.085.013.171.025.256.035l.063.008c.084.01.168.019.252.026l.027,0,.054,0q.121.01.243.016l.06,0q.139.007.277.009h.362c.093,0,.186-.005.279-.01l.036,0q.122-.007.243-.017l.081-.007.079-.007.1-.012.123-.014.172-.024.117-.017.182-.032.1-.019c.075-.015.148-.031.222-.047l.058-.012h0q.132-.031.262-.065l.078-.022.185-.053.095-.03.164-.054.1-.034.161-.06.089-.035c.06-.024.119-.049.178-.075l.064-.027q.119-.053.234-.109l.049-.025q.09-.045.177-.092l.078-.043.142-.083.081-.05.133-.085.077-.051c.046-.031.091-.064.136-.1l.063-.046c.064-.049.128-.1.189-.149h0c.061-.051.12-.1.178-.156l.055-.052c.039-.037.077-.074.114-.112l.06-.063c.018-.019.037-.038.055-.058s.029-.033.044-.05l.061-.07c.031-.037.061-.074.091-.112s.037-.046.054-.07c.031-.042.061-.084.091-.126.014-.02.029-.04.042-.061.042-.063.083-.127.12-.193h0q.061-.1.114-.213c.029-.059.056-.118.081-.178l.023-.056c.017-.042.033-.084.048-.126,0-.011.009-.021.012-.032l.013-.041c.007-.021.014-.042.021-.064s.017-.058.026-.087.012-.042.017-.063.015-.059.021-.089.01-.041.014-.061.012-.063.017-.094.007-.037.01-.056,0-.008,0-.012c0-.03.008-.059.011-.089s0-.034.006-.05q.008-.076.012-.151" transform="translate(-1759.659 -1052.14)" fill="#db8918"/>
      <path id="Path_8502" data-name="Path 8502" d="M1399.187,729.754c.027-.075.052-.149.076-.224l.006-.022c.021-.069.041-.139.06-.208l.014-.052c.019-.074.037-.149.053-.223l.007-.035q.021-.1.038-.2l.008-.049q.018-.111.032-.222c0-.014,0-.029.005-.043q.011-.1.019-.194c0-.015,0-.029,0-.043q.008-.11.012-.22c0-.016,0-.032,0-.048q0-.1,0-.195c0-.012,0-.023,0-.035q0-.109-.008-.217c0-.017,0-.034,0-.051s0-.047,0-.07q-.005-.068-.013-.136s0-.009,0-.014c-.008-.072-.018-.144-.028-.215,0-.016,0-.032-.007-.047-.011-.071-.023-.141-.037-.211l-.006-.027q-.02-.1-.043-.191l-.01-.041q-.026-.1-.056-.2l-.013-.042c-.008-.025-.015-.05-.023-.074q-.021-.065-.044-.13l-.2-.576c.024.067.045.136.066.2l.013.042q.03.1.056.2l.01.041q.023.1.043.191l.006.027c.014.07.026.14.037.211,0,.016,0,.032.007.047.011.071.02.143.028.215v.014c.007.068.013.137.017.206l0,.051c0,.072.007.145.008.217,0,.012,0,.023,0,.035q0,.1,0,.195c0,.016,0,.032,0,.048,0,.073-.006.146-.012.22,0,.015,0,.029,0,.044q-.008.1-.019.195c0,.014,0,.029,0,.043q-.014.111-.032.222l-.009.049q-.017.1-.038.2l-.007.035c-.016.074-.034.149-.054.223l-.014.052q-.028.1-.06.208l-.006.022q-.035.112-.076.224l-.019.054c-.028.075-.056.151-.088.226-.01.024-.02.048-.031.072l-.037.086-.028.062-.038.081-.03.063-.039.079-.032.062-.041.077-.034.062-.042.075-.036.062-.044.074-.037.06-.046.073-.038.059-.048.072-.036.052q-.058.085-.12.168l-.024.033q-.056.075-.114.148l-.019.024c-.043.054-.087.106-.131.158l-.031.035c-.046.052-.091.1-.139.155h0q-.064.069-.131.137l-.036.037q-.056.056-.113.111l-.024.024q-.068.064-.138.127l-.035.031-.115.1-.036.03c-.048.039-.1.078-.144.117l-.025.02-.125.095-.042.031c-.046.034-.093.067-.14.1l-.013.009q-.077.052-.155.1l-.041.026c-.048.031-.1.061-.146.091l-.025.015q-.084.05-.169.1l-.042.023-.153.081-.025.013q-.087.044-.175.086l-.038.018q-.105.049-.213.095l-.025.01q-.11.046-.222.089l-.007,0c-.075.028-.151.055-.226.08l-.031.011q-.109.036-.219.068l-.042.012c-.063.018-.127.035-.191.052l-.02,0-.177.042-.046.01q-.1.021-.192.038l-.029.005-.173.028-.044.007c-.065.009-.13.017-.194.025l-.035,0-.171.016-.042,0q-.1.007-.2.011h-.04l-.172,0h-.038q-.1,0-.2,0l-.043,0-.174-.009-.033,0c-.066,0-.131-.011-.2-.018l-.046-.005-.178-.023-.026,0q-.1-.015-.2-.033l-.047-.009c-.062-.012-.123-.025-.185-.039l-.015,0c-.065-.015-.131-.031-.2-.049l-.047-.013c-.066-.018-.131-.037-.2-.057a5.455,5.455,0,0,1-1.816-.965q-.119-.1-.231-.2a5.158,5.158,0,0,1-.519-.548q-.142-.174-.268-.36c-.028-.041-.055-.083-.082-.125a5.167,5.167,0,0,1-.521-1.072h0l.2.576a5.233,5.233,0,0,0,3.438,3.269c.065.02.131.039.2.057l.047.013c.065.017.13.034.2.049l.016,0,.184.038.047.009c.065.012.131.023.2.033l.026,0,.178.023.046.005c.065.007.131.013.2.018l.033,0,.173.009.044,0c.065,0,.131,0,.2,0h.039l.171,0h.04c.065,0,.13-.006.2-.011l.042,0,.171-.016.036,0,.194-.025.045-.007.173-.028.029,0c.064-.012.129-.025.193-.038l.045-.01.177-.042.019,0c.064-.016.127-.034.191-.052l.021-.006.021-.006q.11-.032.22-.068l.031-.01c.076-.026.151-.052.227-.081l.006,0c.075-.028.149-.058.223-.089l.025-.01q.107-.046.213-.095l.02-.009.018-.009q.088-.042.175-.086l.025-.013.153-.081.042-.023q.085-.047.169-.1l.025-.015.146-.091.024-.015.017-.011c.052-.034.1-.068.155-.1l.013-.009.139-.1.042-.031.125-.095.025-.02q.073-.057.144-.116l.013-.011.023-.02.114-.1.035-.031q.07-.062.138-.126l.025-.024.113-.111.036-.036q.066-.067.131-.137h0c.047-.051.094-.1.139-.156l.03-.035q.067-.078.131-.158l.019-.024q.058-.073.115-.149l.024-.032q.061-.083.12-.168l.01-.013.026-.039.048-.072.038-.059.046-.073.037-.06.044-.074.036-.061.042-.075.034-.062.041-.077.032-.063.039-.079.031-.063.038-.081.028-.062c.013-.028.025-.057.037-.085l.021-.049.01-.023c.031-.075.06-.151.087-.226l.02-.054" transform="translate(-1266.153 -658.447)" fill="#db8918"/>
      <path id="Path_8503" data-name="Path 8503" d="M1432.245,720.633l-.22.534a1.356,1.356,0,0,1,.862,1.344l-1.12,0a.566.566,0,0,0-.457-.592q-.394-.123-.5.128a.208.208,0,0,0,0,.176.873.873,0,0,0,.313.246,6.785,6.785,0,0,1,.877.575,1.019,1.019,0,0,1,.333.553,1.158,1.158,0,0,1-.076.725,1.42,1.42,0,0,1-.756.778,1.985,1.985,0,0,1-1.153.121l-.228.553-.084-.026-.609-.19-.1-.033.23-.558a1.448,1.448,0,0,1-.852-1.6l1.194.143a.628.628,0,0,0,.521.708q.45.141.551-.1a.229.229,0,0,0-.022-.234,1.029,1.029,0,0,0-.319-.241q-.959-.538-1.106-.952a1.135,1.135,0,0,1,.028-.837,1.49,1.49,0,0,1,.65-.733,1.619,1.619,0,0,1,1.014-.177l.229-.555.1.033.609.19Z" transform="translate(-1303.628 -653.807)" fill="#db8918"/>
      <path id="Path_8504" data-name="Path 8504" d="M1407.686,703.126a3.955,3.955,0,0,1,2.46,5.408,4.9,4.9,0,0,1-5.85,2.811,3.955,3.955,0,0,1-2.46-5.408,4.895,4.895,0,0,1,5.85-2.811m-.987,6.126a1.421,1.421,0,0,0,.756-.778,1.159,1.159,0,0,0,.076-.725,1.018,1.018,0,0,0-.333-.553,6.8,6.8,0,0,0-.877-.575.871.871,0,0,1-.313-.246.209.209,0,0,1,0-.176c.069-.167.234-.21.5-.128a.567.567,0,0,1,.457.592l1.12,0a1.357,1.357,0,0,0-.862-1.344l.22-.534-.084-.026-.609-.19-.1-.033-.229.555a1.62,1.62,0,0,0-1.015.177,1.492,1.492,0,0,0-.65.733,1.136,1.136,0,0,0-.028.837q.146.415,1.106.953a1.023,1.023,0,0,1,.319.241.229.229,0,0,1,.022.234q-.1.245-.551.1a.627.627,0,0,1-.521-.708l-1.194-.143a1.447,1.447,0,0,0,.851,1.6l-.23.558.1.033.609.19.084.026.228-.553a1.986,1.986,0,0,0,1.153-.121" transform="translate(-1278.82 -637.961)" fill="#fbc977"/>
      <path id="Path_8505" data-name="Path 8505" d="M1401.037,696.278a4.538,4.538,0,0,1,2.822,6.206,5.617,5.617,0,0,1-6.712,3.226,4.538,4.538,0,0,1-2.823-6.206,5.617,5.617,0,0,1,6.713-3.226m-3.64,8.826a4.895,4.895,0,0,0,5.85-2.811,3.955,3.955,0,0,0-2.46-5.408,4.9,4.9,0,0,0-5.85,2.811,3.955,3.955,0,0,0,2.46,5.408" transform="translate(-1271.921 -631.719)" fill="#db8918"/>
      <path id="Path_8506" data-name="Path 8506" d="M1392.494,687.478a5.288,5.288,0,0,1,3.288,7.23,6.544,6.544,0,0,1-7.821,3.758,5.288,5.288,0,0,1-3.288-7.23,6.544,6.544,0,0,1,7.821-3.758m-4.211,10.21a5.617,5.617,0,0,0,6.712-3.226,4.538,4.538,0,0,0-2.822-6.206,5.617,5.617,0,0,0-6.713,3.226,4.539,4.539,0,0,0,2.823,6.206" transform="translate(-1263.057 -623.698)" fill="#fbc977"/>
    </g>
  </g>
</svg>
