<svg width="14" height="16" viewBox="0 0 14 16" fill="none" xmlns="http://www.w3.org/2000/svg">
<path d="M12.661 15.118C12.3958 15.118 12.1414 15.0126 11.9539 14.8251C11.7664 14.6376 11.661 14.3832 11.661 14.118V12.66C11.6605 12.1521 11.4584 11.6652 11.0992 11.3061C10.7399 10.9471 10.2529 10.7453 9.745 10.745H3.915C3.40727 10.7455 2.92049 10.9475 2.56148 11.3065C2.20246 11.6655 2.00053 12.1523 2 12.66V14.118C2 14.3832 1.89464 14.6376 1.70711 14.8251C1.51957 15.0126 1.26522 15.118 1 15.118C0.734784 15.118 0.48043 15.0126 0.292893 14.8251C0.105357 14.6376 0 14.3832 0 14.118V12.66C0.00132303 11.6221 0.41422 10.6271 1.14814 9.89313C1.88206 9.15921 2.87708 8.74632 3.915 8.745H9.745C10.7829 8.74632 11.7779 9.15921 12.5119 9.89313C13.2458 10.6271 13.6587 11.6221 13.66 12.66V14.118C13.66 14.383 13.5548 14.6372 13.3675 14.8247C13.1801 15.0123 12.926 15.1177 12.661 15.118Z" fill="#EFA834"/>
<path d="M6.83004 7.83C6.05573 7.83 5.2988 7.60039 4.65498 7.17021C4.01116 6.74002 3.50937 6.12858 3.21305 5.41321C2.91674 4.69784 2.83921 3.91066 2.99027 3.15122C3.14133 2.39179 3.5142 1.6942 4.06172 1.14668C4.60924 0.599156 5.30683 0.226289 6.06626 0.0752274C6.8257 -0.0758337 7.61287 0.00169629 8.32825 0.298013C9.04362 0.59433 9.65506 1.09613 10.0852 1.73994C10.5154 2.38376 10.745 3.14069 10.745 3.915C10.7437 4.95292 10.3308 5.94795 9.5969 6.68186C8.86298 7.41578 7.86796 7.82868 6.83004 7.83ZM6.83004 2C6.45129 2 6.08104 2.11231 5.76612 2.32274C5.4512 2.53316 5.20575 2.83224 5.06081 3.18216C4.91587 3.53208 4.87795 3.91713 4.95184 4.2886C5.02573 4.66007 5.20811 5.00129 5.47593 5.26911C5.74375 5.53693 6.08497 5.71931 6.45644 5.79321C6.82792 5.8671 7.21296 5.82917 7.56288 5.68423C7.9128 5.53929 8.21188 5.29384 8.42231 4.97892C8.63273 4.664 8.74504 4.29375 8.74504 3.915C8.74451 3.40727 8.54258 2.92049 8.18356 2.56148C7.82455 2.20246 7.33777 2.00053 6.83004 2Z" fill="#EFA834"/>
</svg>
