<svg width="15" height="17" viewBox="0 0 15 17" fill="none" xmlns="http://www.w3.org/2000/svg">
<g clip-path="url(#clip0_33_14)">
<path d="M9.23704 2.351V4.531C10.315 5.00251 11.1979 5.83072 11.7372 6.87645C12.2765 7.92217 12.4394 9.12167 12.1986 10.2734C11.9577 11.425 11.3277 12.4587 10.4146 13.2007C9.50139 13.9426 8.36064 14.3476 7.18404 14.3476C6.00744 14.3476 4.86669 13.9426 3.95351 13.2007C3.04034 12.4587 2.41039 11.425 2.16953 10.2734C1.92867 9.12167 2.09159 7.92217 2.6309 6.87645C3.17021 5.83072 4.05305 5.00251 5.13104 4.531V2.351C3.47715 2.84413 2.05602 3.9161 1.12751 5.37088C0.198994 6.82567 -0.174854 8.56606 0.0743224 10.2738C0.323499 11.9816 1.17905 13.5426 2.48453 14.6714C3.79002 15.8002 5.4582 16.4214 7.18404 16.4214C8.90988 16.4214 10.5781 15.8002 11.8835 14.6714C13.189 13.5426 14.0446 11.9816 14.2938 10.2738C14.5429 8.56606 14.1691 6.82567 13.2406 5.37088C12.3121 3.9161 10.8909 2.84413 9.23704 2.351ZM6.15804 0H8.21104V8.211H6.15804V0Z" fill="#FF0D0D"/>
</g>
<defs>
<clipPath id="clip0_33_14">
<rect width="14.369" height="16.422" fill="white"/>
</clipPath>
</defs>
</svg>
