<svg width="16" height="19" viewBox="0 0 16 19" fill="none" xmlns="http://www.w3.org/2000/svg">
<g clip-path="url(#clip0_39_36)">
<path d="M11.7893 0H1.68456C1.23811 0.00106003 0.810255 0.178881 0.494568 0.494568C0.178881 0.810255 0.00106003 1.23811 0 1.68456V13.4738H1.68456V1.68456H11.7906L11.7893 0ZM14.3168 3.36913H5.05235C4.60637 3.37054 4.17905 3.54833 3.86369 3.86369C3.54833 4.17905 3.37054 4.60637 3.36913 5.05235V16.8416C3.37019 17.2881 3.54801 17.7159 3.86369 18.0316C4.17938 18.3473 4.60724 18.5251 5.05369 18.5262H14.3168C14.7632 18.5251 15.1911 18.3473 15.5068 18.0316C15.8225 17.7159 16.0003 17.2881 16.0013 16.8416V5.05235C15.9999 4.60613 15.8219 4.17862 15.5063 3.86322C15.1907 3.54782 14.763 3.37018 14.3168 3.36913ZM14.3168 16.843H5.05235V5.05235H14.3168V16.843Z" fill="#A7A7A7"/>
</g>
<defs>
<clipPath id="clip0_39_36">
<rect width="16" height="18.5262" fill="white"/>
</clipPath>
</defs>
</svg>
