<svg width="13" height="13" viewBox="0 0 13 13" fill="none" xmlns="http://www.w3.org/2000/svg">
<g clip-path="url(#clip0_26_25)">
<path d="M2.565 5.52C3.59219 7.52877 5.22623 9.16281 7.235 10.19L8.794 8.631C8.88643 8.53769 9.00324 8.47227 9.13109 8.4422C9.25895 8.41214 9.39268 8.41866 9.517 8.461C10.3337 8.72796 11.1878 8.86299 12.047 8.861C12.2349 8.86153 12.4149 8.9364 12.5478 9.06924C12.6806 9.20209 12.7555 9.38212 12.756 9.57V12.043C12.7555 12.2309 12.6806 12.4109 12.5478 12.5438C12.4149 12.6766 12.2349 12.7515 12.047 12.752C10.4652 12.7523 8.89889 12.441 7.43743 11.8359C5.97596 11.2308 4.64798 10.3438 3.52931 9.22552C2.41065 8.10722 1.5232 6.77954 0.917636 5.31827C0.312076 3.857 0.000262622 2.29077 0 0.709C0.000527745 0.521124 0.0753953 0.341093 0.208244 0.208244C0.341093 0.0753953 0.521124 0.000527745 0.709 0H3.189C3.37688 0.000527745 3.55691 0.0753953 3.68976 0.208244C3.8226 0.341093 3.89747 0.521124 3.898 0.709C3.89545 1.56828 4.03049 2.42242 4.298 3.239C4.33818 3.3641 4.34292 3.49789 4.31167 3.62551C4.28043 3.75314 4.21443 3.86961 4.121 3.962L2.565 5.52Z" fill="#A7A7A7"/>
</g>
<defs>
<clipPath id="clip0_26_25">
<rect width="12.755" height="12.755" fill="white"/>
</clipPath>
</defs>
</svg>
