<svg width="18" height="19" viewBox="0 0 18 19" fill="none" xmlns="http://www.w3.org/2000/svg">
<g clip-path="url(#clip0_26_20)">
<path d="M0.139997 15.188L0.209997 14.878H0.219997C0.515553 13.6942 1.09401 12.5998 1.90569 11.6889C2.71737 10.7779 3.73802 10.0776 4.88 9.64797C3.81472 8.78018 3.11781 7.54101 2.92958 6.17996C2.74136 4.81892 3.07581 3.43711 3.86559 2.31278C4.65537 1.18846 5.84182 0.405125 7.18601 0.120526C8.53021 -0.164072 9.93232 0.0712013 11.11 0.778971C11.7251 1.13992 12.2615 1.62062 12.6875 2.19261C13.1135 2.7646 13.4204 3.41625 13.59 4.10897C13.7569 4.79314 13.7908 5.503 13.69 6.19997C12.3237 7.89815 10.8014 9.46466 9.143 10.879H7.493C5.95474 10.879 4.47949 11.49 3.39178 12.5778C2.30407 13.6655 1.693 15.1407 1.693 16.679C1.69287 16.7901 1.67073 16.9001 1.62784 17.0026C1.58496 17.1051 1.52218 17.1981 1.44315 17.2762C1.36411 17.3543 1.27038 17.416 1.16737 17.4576C1.06436 17.4993 0.954109 17.5202 0.842997 17.519C0.732389 17.52 0.622679 17.499 0.520283 17.4572C0.417887 17.4154 0.32486 17.3535 0.246645 17.2753C0.16843 17.1971 0.106597 17.1041 0.0647614 17.0017C0.0229259 16.8993 0.00192796 16.7896 0.00299671 16.679C0.00090458 16.1789 0.0477954 15.6799 0.142997 15.189M12.059 5.42897C12.0611 4.93481 11.965 4.44515 11.7762 3.98849C11.5873 3.53183 11.3095 3.11728 10.959 2.76897C10.6132 2.41787 10.2005 2.13963 9.74536 1.9507C9.2902 1.76176 8.8018 1.66597 8.309 1.66897C7.56492 1.66699 6.83698 1.88583 6.21734 2.29778C5.59769 2.70973 5.11421 3.29626 4.82809 3.98314C4.54197 4.67001 4.46608 5.42633 4.61003 6.15636C4.75398 6.88639 5.11129 7.55729 5.63674 8.08414C6.16218 8.61098 6.83213 8.97008 7.56177 9.11597C8.29141 9.26187 9.04794 9.18799 9.73557 8.9037C10.4232 8.61941 11.011 8.13749 11.4246 7.51895C11.8382 6.90041 12.059 6.17305 12.059 5.42897Z" fill="black"/>
<path d="M6.91109 18.196C6.63441 18.1915 6.3705 18.0788 6.17605 17.8819C5.98159 17.685 5.87211 17.4197 5.87109 17.143C5.87531 15.8928 6.37388 14.6951 7.25798 13.8112C8.14208 12.9272 9.33993 12.4289 10.5901 12.425H12.8071C13.083 12.4317 13.3456 12.5452 13.5396 12.7416C13.7336 12.938 13.8438 13.202 13.8471 13.478V14.778L15.2711 13.477L12.1001 10.577C11.9977 10.4807 11.9154 10.365 11.858 10.2366C11.8006 10.1083 11.7693 9.96978 11.7658 9.82922C11.7624 9.68865 11.7869 9.54881 11.8379 9.41779C11.8889 9.28677 11.9655 9.16719 12.0631 9.06598C12.1601 8.96753 12.2758 8.8894 12.4034 8.83617C12.531 8.78295 12.6679 8.75568 12.8061 8.75598C13.0667 8.75783 13.3176 8.85452 13.5121 9.02798L17.5391 12.696C17.7391 12.8887 17.8579 13.1506 17.8711 13.428C17.8802 13.5659 17.8607 13.7041 17.8137 13.8341C17.7667 13.964 17.6933 14.0828 17.5981 14.183L13.5131 17.911C13.3074 18.099 13.0357 18.198 12.7573 18.1864C12.4789 18.1748 12.2164 18.0535 12.0271 17.849C11.8532 17.6547 11.7561 17.4037 11.7541 17.143V14.518H10.5901C9.89518 14.5224 9.22999 14.8004 8.73851 15.2917C8.24703 15.783 7.96881 16.4481 7.96409 17.143C7.96226 17.4217 7.85073 17.6885 7.65365 17.8855C7.45657 18.0826 7.1898 18.1941 6.91109 18.196Z" fill="black"/>
</g>
<defs>
<clipPath id="clip0_26_20">
<rect width="17.877" height="18.196" fill="white"/>
</clipPath>
</defs>
</svg>
