<svg width="17" height="17" viewBox="0 0 17 17" fill="none" xmlns="http://www.w3.org/2000/svg">
<g clip-path="url(#clip0_34_16)">
<path d="M11.868 9.75409C11.668 9.65409 10.668 9.16609 10.484 9.09909C10.3 9.03209 10.163 8.99909 10.028 9.19909C9.893 9.39909 9.505 9.85309 9.388 9.98709C9.271 10.1211 9.151 10.1291 8.95 10.0381C8.35193 9.80037 7.80023 9.45954 7.32 9.03109C6.87819 8.62203 6.49881 8.15033 6.194 7.63109C6.076 7.43109 6.181 7.31609 6.282 7.21409C6.383 7.11209 6.482 6.98009 6.588 6.85909C6.66723 6.75506 6.73433 6.64233 6.788 6.52309C6.81492 6.46717 6.82747 6.40542 6.8245 6.34343C6.82153 6.28144 6.80314 6.22118 6.771 6.16809C6.72 6.06809 6.315 5.06809 6.146 4.66809C5.977 4.26809 5.816 4.32209 5.69 4.32209C5.564 4.32209 5.438 4.31209 5.303 4.31209C5.20119 4.31454 5.10089 4.3373 5.00799 4.37903C4.91509 4.42076 4.83146 4.48061 4.762 4.55509C4.53393 4.77055 4.35314 5.03106 4.23109 5.32009C4.10903 5.60913 4.04839 5.92037 4.053 6.23409C4.12251 6.99461 4.41001 7.71892 4.881 8.32009C5.75208 9.61567 6.94374 10.6637 8.34 11.3621C8.824 11.5621 9.201 11.6881 9.496 11.7891C9.90904 11.9141 10.3453 11.9422 10.771 11.8711C11.0533 11.813 11.3205 11.6971 11.5557 11.5307C11.791 11.3643 11.9893 11.1509 12.138 10.9041C12.2732 10.6012 12.3156 10.2651 12.26 9.93809C12.21 9.84609 12.077 9.79609 11.873 9.70409M8.18 14.7511H8.169C6.96347 14.7492 5.78022 14.4261 4.741 13.8151L4.5 13.6701L1.957 14.3311L2.639 11.8591L2.477 11.6051C1.60584 10.2023 1.28109 8.52801 1.56462 6.90122C1.84814 5.27443 2.72012 3.80875 4.01449 2.78334C5.30885 1.75793 6.93516 1.24443 8.58367 1.34065C10.2322 1.43686 11.7877 2.13607 12.954 3.30509C13.5812 3.9247 14.0788 4.66307 14.4175 5.47707C14.7563 6.29108 14.9295 7.16441 14.927 8.04609C14.9177 9.82677 14.2037 11.5313 12.941 12.7869C11.6783 14.0425 9.96971 14.7469 8.189 14.7461M13.917 2.33909C12.3793 0.839707 10.3167 0.000381064 8.169 8.83055e-05C6.74989 -0.00655208 5.35416 0.361425 4.12278 1.06685C2.8914 1.77228 1.86798 2.79017 1.15591 4.01771C0.443828 5.24526 0.068306 6.63898 0.067269 8.05811C0.0662321 9.47723 0.439717 10.8715 1.15 12.1001L0 16.2771L4.3 15.1571C5.49009 15.7991 6.82077 16.1362 8.173 16.1381C10.3157 16.1381 12.3712 15.2891 13.8893 13.777C15.4074 12.2648 16.2645 10.2128 16.273 8.07009C16.2752 7.01037 16.0668 5.96079 15.6599 4.98229C15.2531 4.00378 14.6559 3.11586 13.903 2.37009" fill="#25D366"/>
</g>
<defs>
<clipPath id="clip0_34_16">
<rect width="16.277" height="16.277" fill="white"/>
</clipPath>
</defs>
</svg>
