<svg width="132" height="47" viewBox="0 0 132 47" fill="none" xmlns="http://www.w3.org/2000/svg">
<path d="M20.0369 23.2936L14.6402 23.6257C14.548 23.1644 14.3496 22.7493 14.0452 22.3803C13.7408 22.0021 13.3395 21.7023 12.8413 21.4808C12.3524 21.2502 11.7666 21.1349 11.0839 21.1349C10.1707 21.1349 9.40037 21.3286 8.77306 21.7161C8.14576 22.0943 7.8321 22.6017 7.8321 23.2382C7.8321 23.7456 8.03505 24.1746 8.44096 24.5251C8.84686 24.8757 9.54336 25.157 10.5304 25.3692L14.3773 26.1441C16.4437 26.5685 17.9843 27.2511 18.9991 28.1921C20.0138 29.1331 20.5212 30.3692 20.5212 31.9006C20.5212 33.2936 20.1107 34.5159 19.2897 35.5676C18.4779 36.6192 17.3616 37.4403 15.941 38.0307C14.5295 38.6118 12.9013 38.9024 11.0563 38.9024C8.24262 38.9024 6.00092 38.3166 4.33118 37.1451C2.67066 35.9642 1.69742 34.3591 1.41144 32.3296L7.20941 32.0251C7.38469 32.8831 7.80904 33.538 8.48247 33.9901C9.1559 34.4329 10.0184 34.6543 11.0701 34.6543C12.1033 34.6543 12.9336 34.4559 13.5609 34.0593C14.1974 33.6534 14.5203 33.1321 14.5295 32.4956C14.5203 31.9606 14.2943 31.5224 13.8515 31.181C13.4087 30.8305 12.726 30.563 11.8035 30.3784L8.12269 29.6451C6.04705 29.2299 4.50184 28.5104 3.48708 27.4864C2.48155 26.4624 1.97878 25.157 1.97878 23.5703C1.97878 22.205 2.34779 21.0288 3.08579 20.0417C3.83303 19.0546 4.88007 18.2936 6.22694 17.7585C7.58303 17.2235 9.16974 16.9559 10.9871 16.9559C13.6716 16.9559 15.7841 17.5233 17.3247 18.658C18.8745 19.7927 19.7786 21.3379 20.0369 23.2936Z" fill="#F9C067"/>
<path d="M30.3332 38.8886C28.9771 38.8886 27.7686 38.6534 26.7077 38.1829C25.6469 37.7032 24.8074 36.9975 24.1893 36.0657C23.5804 35.1248 23.276 33.9532 23.276 32.551C23.276 31.3701 23.4928 30.3784 23.9264 29.5759C24.36 28.7733 24.9504 28.1275 25.6976 27.6386C26.4448 27.1497 27.2935 26.7807 28.2437 26.5316C29.2031 26.2825 30.2087 26.1072 31.2603 26.0058C32.4965 25.8766 33.4928 25.7567 34.2493 25.646C35.0057 25.5261 35.5546 25.3508 35.8959 25.1201C36.2373 24.8895 36.4079 24.5482 36.4079 24.0962V24.0131C36.4079 23.1368 36.1312 22.4587 35.5777 21.979C35.0334 21.4993 34.2585 21.2594 33.2529 21.2594C32.1921 21.2594 31.348 21.4947 30.7207 21.9652C30.0934 22.4264 29.6782 23.0076 29.4753 23.7087L24.0232 23.2659C24.3 21.9744 24.8443 20.8582 25.6561 19.9172C26.4679 18.967 27.5149 18.2382 28.7972 17.7308C30.0887 17.2142 31.5832 16.9559 33.2806 16.9559C34.4614 16.9559 35.5915 17.0943 36.6708 17.3711C37.7594 17.6478 38.7234 18.0768 39.5629 18.658C40.4116 19.2392 41.0804 19.9864 41.5694 20.8997C42.0583 21.8037 42.3028 22.8877 42.3028 24.1515V38.4873H36.7124V35.5399H36.5463C36.205 36.2041 35.7483 36.7899 35.1764 37.2973C34.6044 37.7954 33.9172 38.1875 33.1146 38.4735C32.312 38.7502 31.3849 38.8886 30.3332 38.8886ZM32.0214 34.8203C32.8886 34.8203 33.6542 34.6497 34.3184 34.3083C34.9827 33.9578 35.5039 33.4873 35.8821 32.8969C36.2603 32.3065 36.4494 31.6377 36.4494 30.8904V28.6349C36.2649 28.7548 36.0112 28.8655 35.6884 28.967C35.3747 29.0593 35.0196 29.1469 34.6229 29.2299C34.2262 29.3037 33.8295 29.3729 33.4328 29.4375C33.0362 29.4928 32.6764 29.5436 32.3535 29.5897C31.6616 29.6912 31.0574 29.8526 30.5408 30.074C30.0242 30.2954 29.6229 30.5952 29.3369 30.9735C29.0509 31.3425 28.9079 31.8037 28.9079 32.3572C28.9079 33.1598 29.1985 33.7733 29.7797 34.1976C30.3701 34.6128 31.1173 34.8203 32.0214 34.8203Z" fill="#F9C067"/>
<path d="M51.5968 10.1478V38.4873H45.702V10.1478H51.5968Z" fill="#F9C067"/>
<path d="M66.7306 15.0996C59.6927 15.0996 54.0664 20.3743 54.0664 26.9723C54.0664 29.2541 54.792 31.0164 56.0518 32.8035L65.3982 46.0985C65.6819 46.5004 66.17 46.7601 66.7306 46.7601C67.2913 46.7601 67.786 46.4942 68.063 46.0985L77.4094 32.8035C78.6693 31.0164 79.3948 29.2541 79.3948 26.9723C79.3948 20.3743 73.7685 15.0996 66.7306 15.0996ZM66.7306 33.5641C62.8456 33.5641 59.6927 30.6083 59.6927 26.9599C59.6927 23.3116 62.8456 20.3558 66.7306 20.3558C70.6156 20.3558 73.7685 23.3116 73.7685 26.9599C73.7685 30.6083 70.6156 33.5641 66.7306 33.5641Z" fill="#F9C067"/>
<path d="M94.4943 15.0996C87.4564 15.0996 81.8301 20.3743 81.8301 26.9723C81.8301 29.2541 82.5556 31.0164 83.8155 32.8035L93.1619 46.0985C93.4455 46.5004 93.9336 46.7601 94.4943 46.7601C95.0549 46.7601 95.5496 46.4942 95.8267 46.0985L105.173 32.8035C106.433 31.0164 107.158 29.2541 107.158 26.9723C107.158 20.3743 101.532 15.0996 94.4943 15.0996ZM94.4943 33.5641C90.6093 33.5641 87.4564 30.6083 87.4564 26.9599C87.4564 23.3116 90.6093 20.3558 94.4943 20.3558C98.3793 20.3558 101.532 23.3116 101.532 26.9599C101.532 30.6083 98.3793 33.5641 94.4943 33.5641Z" fill="#F9C067"/>
<path d="M117.355 26.1995V38.4873H111.46V17.2327H117.078V20.9827H117.327C117.797 19.7465 118.586 18.7687 119.693 18.0491C120.8 17.3203 122.142 16.9559 123.72 16.9559C125.196 16.9559 126.483 17.2788 127.581 17.9246C128.678 18.5703 129.532 19.4928 130.141 20.6921C130.749 21.8821 131.054 23.3028 131.054 24.9541V38.4873H125.159V26.0058C125.168 24.705 124.836 23.6903 124.163 22.9615C123.489 22.2235 122.562 21.8545 121.381 21.8545C120.588 21.8545 119.887 22.0251 119.278 22.3665C118.678 22.7078 118.208 23.2059 117.867 23.8609C117.535 24.5067 117.364 25.2862 117.355 26.1995Z" fill="#F9C067"/>
</svg>
