<svg width="132" height="40" viewBox="0 0 132 40" fill="none" xmlns="http://www.w3.org/2000/svg">
<g clip-path="url(#clip0_160_304)">
<mask id="mask0_160_304" style="mask-type:luminance" maskUnits="userSpaceOnUse" x="0" y="0" width="132" height="40">
<path d="M132 0H0V40H132V0Z" fill="white"/>
</mask>
<g mask="url(#mask0_160_304)">
<path d="M13.7407 12.8501C13.5964 12.7954 13.4408 12.7772 13.2878 12.7971H1.84076C1.38376 12.7971 1.38376 12.7971 1.38376 12.3691C1.38376 11.3191 1.38975 10.2691 1.37875 9.21815C1.37875 8.97115 1.44476 8.88915 1.70776 8.89015C7.62241 8.91483 13.5367 8.93249 19.4508 8.94315C19.6798 8.94315 19.7508 9.01515 19.7508 9.23815C19.7427 10.1275 19.7427 11.0165 19.7508 11.9051C19.7559 12.0586 19.7014 12.208 19.5988 12.3221C18.9128 13.1071 18.2458 13.9091 17.5408 14.6781C17.1597 15.0901 16.7788 15.4961 16.4288 15.9321C14.9938 17.7321 13.4337 19.4321 11.9368 21.1851C10.7807 22.5465 9.60908 23.8941 8.42174 25.2281C8.01042 25.6855 7.60208 26.1475 7.19674 26.6141C7.14276 26.6761 7.02775 26.7351 7.06877 26.8201C7.10976 26.9051 7.24377 26.8731 7.33574 26.8731C8.61043 26.8811 9.88542 26.8871 11.1608 26.8911L19.7527 26.9121C20.1338 26.9121 20.1338 26.9121 20.1338 27.2821C20.1338 28.3491 20.1257 29.4211 20.1397 30.4901C20.1397 30.7471 20.0637 30.8091 19.8087 30.8081C14.3847 30.7855 8.96076 30.7679 3.53675 30.7551C2.79176 30.7551 2.04576 30.7461 1.30076 30.7551C1.07976 30.7551 0.990754 30.7061 1.00075 30.4711C1.01376 29.5641 1.00876 28.6571 1.00075 27.7501C0.999879 27.6745 1.01401 27.5993 1.04233 27.5291C1.07065 27.4589 1.1126 27.3951 1.16576 27.3411C2.53775 25.7821 3.93476 24.2471 5.25575 22.6511C7.40075 20.0601 9.65577 17.5511 11.8557 15.0041C12.4728 14.2871 13.0867 13.5711 13.7437 12.8521L13.7407 12.8501Z" fill="#F9C067"/>
<path d="M79.4084 15.252V30.059C79.4084 30.459 79.4084 30.459 78.9952 30.459C77.6234 30.459 76.2523 30.453 74.8755 30.465C74.6042 30.465 74.5273 30.389 74.5273 30.127C74.5339 20.1938 74.5339 10.2631 74.5273 0.33505C74.5273 0.0650498 74.6155 -0.00195693 74.8804 4.30747e-05C76.2737 0.0107097 77.6663 0.0107097 79.0582 4.30747e-05C79.3453 4.30747e-05 79.4153 0.082047 79.4153 0.354046C79.4113 5.31804 79.4094 10.2847 79.4094 15.254L79.4084 15.252Z" fill="#F9C067"/>
<path d="M70.8743 8.91022C70.2001 10.8002 69.3863 12.6362 68.6273 14.4942C67.1743 18.0502 65.7144 21.6016 64.2472 25.1482C63.0672 28.0048 61.8828 30.8602 60.6941 33.7142C60.6651 33.7832 60.6252 33.8502 60.5941 33.9142C60.4189 34.3396 60.2044 34.7476 59.9533 35.1332C59.4025 36.0706 58.6392 36.8652 57.7248 37.4532C56.8104 38.0412 55.7705 38.406 54.6891 38.5182C52.7936 38.8128 50.8555 38.4122 49.2322 37.3902C48.9682 37.2222 48.759 36.9902 48.5003 36.8212C48.3482 36.7212 48.4571 36.6212 48.5082 36.5272C49.056 35.5386 49.6065 34.5506 50.1592 33.5632C50.4041 33.1262 50.408 33.1242 50.8242 33.3902C51.5049 33.8586 52.2996 34.135 53.1243 34.1902C53.7651 34.2358 54.4063 34.1016 54.9749 33.8026C55.5438 33.5036 56.018 33.052 56.3441 32.4982C56.7628 31.7658 57.1364 31.0084 57.4621 30.2302C57.5281 30.0972 57.4621 29.9912 57.4113 29.8782L51.8201 16.9572C50.8872 14.8032 49.9431 12.6572 49.0263 10.4942C48.7881 9.93422 48.5983 9.35122 48.3402 8.79422C48.2403 8.57522 48.3983 8.60322 48.5211 8.60322H50.374C51.2182 8.60322 52.0613 8.6152 52.9051 8.5952C53.013 8.5798 53.1229 8.60532 53.213 8.66676C53.3031 8.72818 53.3671 8.82108 53.3922 8.9272C54.1142 10.7419 54.8449 12.5536 55.5841 14.3622C56.944 17.7156 58.3072 21.0686 59.6731 24.4212C59.7612 24.6382 59.7262 24.8972 59.9331 25.1072L60.4763 23.7142L62.354 18.6842C62.8002 17.4935 63.249 16.3029 63.7001 15.1122C64.4862 13.0372 65.2801 10.9652 66.0622 8.88822C66.0853 8.79624 66.1418 8.71614 66.2206 8.66362C66.2998 8.6111 66.3955 8.58992 66.4892 8.60422C67.8822 8.61522 69.2741 8.60422 70.6671 8.61022C70.9891 8.60222 70.9842 8.61022 70.8802 8.90122L70.8743 8.91022Z" fill="#F9C067"/>
<path d="M130.832 14.5588C130.377 13.1606 129.57 11.9028 128.489 10.9059C127.408 9.90909 126.089 9.20661 124.659 8.86583C123.691 8.61129 122.696 8.47431 121.696 8.45783C119.031 8.28129 116.383 9.00113 114.174 10.5028C112.518 11.6769 111.242 13.311 110.505 15.2028C109.973 16.5696 109.709 18.0262 109.729 19.4928C109.655 21.6778 110.226 23.836 111.37 25.6988C112.389 27.351 113.874 28.6644 115.638 29.4738C118.738 30.856 122.241 31.0396 125.469 29.9888C127.268 29.4498 128.903 28.469 130.226 27.1358C130.391 26.9718 130.412 26.8778 130.236 26.7048C129.479 25.9588 128.731 25.2034 127.993 24.4388C127.845 24.2868 127.764 24.3628 127.665 24.4658C126.905 25.178 126.016 25.7374 125.045 26.1138C123.639 26.7112 122.099 26.9242 120.583 26.7308C118.925 26.5836 117.379 25.837 116.233 24.6308C115.506 23.831 114.981 22.8684 114.703 21.8238C114.579 21.3948 114.583 21.3898 115.031 21.3898H131.006C131.114 21.3898 131.222 21.3898 131.329 21.3898C131.475 21.3898 131.529 21.3268 131.539 21.1818C131.761 18.9513 131.52 16.6991 130.832 14.5658V14.5588ZM127.009 17.8988H114.892C114.511 17.8988 114.506 17.8988 114.575 17.5418C114.709 16.7571 114.985 16.0033 115.388 15.3168C115.86 14.513 116.509 13.8274 117.286 13.3124C118.063 12.7974 118.947 12.4664 119.871 12.3448C121.105 12.1494 122.368 12.2463 123.558 12.6278C124.56 12.9589 125.44 13.5823 126.084 14.4178C126.805 15.3577 127.223 16.4941 127.284 17.6768C127.302 17.9088 127.162 17.8988 127.009 17.8988Z" fill="#F9C067"/>
<path d="M104.7 14.5589C104.245 13.1607 103.438 11.9029 102.357 10.906C101.276 9.90915 99.9575 9.20667 98.527 8.86591C97.5598 8.61145 96.5652 8.47445 95.5649 8.45789C92.8995 8.28113 90.2513 9.00097 88.0422 10.5029C86.3856 11.6768 85.1099 13.311 84.373 15.2029C83.8407 16.5696 83.577 18.0262 83.5962 19.4929C83.5226 21.6779 84.0938 23.8361 85.2382 25.6989C86.2569 27.3509 87.7419 28.6645 89.5061 29.4739C92.6065 30.8561 96.1091 31.0395 99.3372 29.9889C101.136 29.4499 102.772 28.4691 104.095 27.1359C104.26 26.9719 104.28 26.8779 104.105 26.7049C103.348 25.9589 102.6 25.2035 101.861 24.4389C101.713 24.2869 101.632 24.3629 101.534 24.4659C100.774 25.1781 99.8843 25.7377 98.9131 26.1139C97.5066 26.7113 95.9669 26.9243 94.4512 26.7309C92.7942 26.5837 91.2479 25.8369 90.1021 24.6309C89.3748 23.8311 88.8501 22.8685 88.5722 21.8239C88.4481 21.3949 88.4521 21.3899 88.9002 21.3899H104.876C104.983 21.3899 105.092 21.3899 105.199 21.3899C105.345 21.3899 105.399 21.3269 105.409 21.1819C105.631 18.9513 105.39 16.699 104.701 14.5659L104.7 14.5589ZM100.877 17.8989H88.76C88.3792 17.8989 88.3742 17.8989 88.4442 17.5419C88.5778 16.7571 88.8534 16.0031 89.257 15.3169C89.7289 14.513 90.378 13.8275 91.1548 13.3125C91.932 12.7974 92.816 12.4665 93.74 12.3449C94.9742 12.1494 96.2371 12.2464 97.4271 12.6279C98.4287 12.959 99.3081 13.5824 99.9519 14.4179C100.673 15.3578 101.091 16.4942 101.152 17.6769C101.172 17.9089 101.032 17.8999 100.879 17.8999L100.877 17.8989Z" fill="#F9C067"/>
<path d="M45.4074 14.5861C44.4699 12.776 43.0747 11.2428 41.3606 10.1392C40.5531 9.59196 39.6697 9.1661 38.7385 8.87514C38.4075 8.77514 38.0775 8.67514 37.7475 8.58014C37.1159 8.4225 36.474 8.30824 35.8266 8.23816C35.1392 8.196 34.4498 8.196 33.7627 8.23816C33.7244 8.23098 33.6855 8.22762 33.6466 8.22814C31.1494 8.43718 28.785 9.44134 26.9006 11.0931C25.6613 12.1717 24.6525 13.4894 23.9346 14.9671C23.0111 16.8618 22.6714 18.9881 22.9586 21.0761C23.1977 22.6253 23.6609 24.1313 24.3336 25.5471C25.1781 27.3657 26.155 29.1197 27.2566 30.7951C28.8426 33.2017 30.6147 35.4803 32.5566 37.6101C33.1318 38.2601 33.7162 38.9035 34.3095 39.5401C34.3623 39.6149 34.432 39.6761 34.5128 39.7187C34.5937 39.7613 34.6834 39.7843 34.7748 39.7855C34.8662 39.7867 34.9567 39.7663 35.0385 39.7259C35.1207 39.6855 35.192 39.6263 35.2467 39.5531C35.3467 39.4531 35.4385 39.3621 35.5296 39.2621C36.474 38.2847 37.3644 37.2565 38.1966 36.1821C38.4006 35.9795 38.5877 35.7607 38.7566 35.5281C38.8035 35.4801 38.8566 35.4351 38.8975 35.3831C40.4205 33.5439 41.8203 31.6063 43.0885 29.5831C44.3963 27.5727 45.4312 25.3979 46.1664 23.1151C46.6172 21.7149 46.7825 20.2387 46.6532 18.7735C46.5238 17.3083 46.1024 15.8838 45.4137 14.5841L45.4074 14.5861ZM41.3336 25.2121C40.7006 25.9365 39.945 26.5431 39.1005 27.0041C38.9556 27.0801 38.8157 27.1691 38.6725 27.2521C37.8729 27.6423 37.0195 27.9119 36.1407 28.0521C34.8144 28.2657 33.4568 28.1727 32.1721 27.7805C30.8873 27.3883 29.7094 26.7071 28.7286 25.7891C28.1979 25.3401 27.7458 24.8057 27.3906 24.2081C26.6396 22.9781 26.217 21.5757 26.1633 20.1355C26.1097 18.6953 26.4269 17.2654 27.0844 15.9829C27.7419 14.7004 28.7177 13.6082 29.9184 12.811C31.1191 12.0138 32.5044 11.5384 33.9416 11.4301C33.9894 11.4241 34.0356 11.4081 34.0845 11.3971C34.5537 11.3297 35.0306 11.3395 35.4966 11.4261C36.2575 11.4964 37.007 11.6576 37.7297 11.9062C38.0154 12.046 38.3105 12.1666 38.6127 12.2671C39.4031 12.683 40.1373 13.1985 40.7967 13.8011C42.3493 15.2617 43.2733 17.2687 43.3737 19.398C43.4736 21.5273 42.7424 23.6123 41.3336 25.2121Z" fill="#F9C067"/>
</g>
</g>
<defs>
<clipPath id="clip0_160_304">
<rect width="132" height="40" fill="white"/>
</clipPath>
</defs>
</svg>
