<svg width="132" height="47" viewBox="0 0 132 47" fill="none" xmlns="http://www.w3.org/2000/svg">
<path d="M18.0443 21.9928L15.1107 22.8231C14.9262 22.3342 14.6541 21.8591 14.2943 21.3978C13.9437 20.9273 13.464 20.5399 12.8552 20.2355C12.2463 19.931 11.4668 19.7788 10.5166 19.7788C9.21587 19.7788 8.13192 20.0786 7.26476 20.6783C6.40683 21.2687 5.97786 22.0205 5.97786 22.9338C5.97786 23.7456 6.27306 24.3868 6.86347 24.8572C7.45387 25.3277 8.37638 25.7198 9.631 26.0334L12.786 26.8083C14.6863 27.2696 16.1024 27.9753 17.0341 28.9255C17.9659 29.8665 18.4317 31.0796 18.4317 32.5648C18.4317 33.7825 18.0812 34.8711 17.3801 35.8305C16.6882 36.7899 15.7196 37.5463 14.4742 38.0999C13.2288 38.6534 11.7804 38.9301 10.1292 38.9301C7.96125 38.9301 6.16697 38.4596 4.74631 37.5187C3.32565 36.5777 2.4262 35.2032 2.04797 33.3951L5.1476 32.6201C5.4428 33.7641 6.00092 34.622 6.82196 35.1939C7.65221 35.7659 8.73616 36.0519 10.0738 36.0519C11.5959 36.0519 12.8044 35.729 13.6993 35.0832C14.6033 34.4283 15.0553 33.6441 15.0553 32.7308C15.0553 31.9928 14.797 31.3748 14.2804 30.8766C13.7638 30.3692 12.9705 29.991 11.9004 29.7419L8.35793 28.9117C6.41144 28.4504 4.98155 27.7355 4.06827 26.7668C3.16421 25.789 2.71218 24.5666 2.71218 23.0999C2.71218 21.9006 3.04889 20.8397 3.72232 19.9172C4.40498 18.9947 5.3321 18.2705 6.50369 17.7447C7.6845 17.2189 9.02214 16.9559 10.5166 16.9559C12.6199 16.9559 14.2712 17.4172 15.4705 18.3397C16.679 19.2622 17.5369 20.4799 18.0443 21.9928Z" fill="#F9C067"/>
<path d="M31.1635 38.9855C29.8166 38.9855 28.5943 38.7318 27.4965 38.2244C26.3987 37.7078 25.5269 36.9652 24.8812 35.9965C24.2354 35.0187 23.9125 33.8379 23.9125 32.4541C23.9125 31.2364 24.1524 30.2493 24.6321 29.4928C25.1118 28.7272 25.7529 28.1275 26.5555 27.6939C27.3581 27.2604 28.2437 26.9375 29.2124 26.7253C30.1902 26.5039 31.1727 26.3286 32.1598 26.1995C33.4513 26.0334 34.4983 25.9089 35.3009 25.8259C36.1127 25.7336 36.7031 25.5814 37.0721 25.3692C37.4504 25.157 37.6395 24.788 37.6395 24.2622V24.1515C37.6395 22.7862 37.2659 21.7253 36.5186 20.9689C35.7806 20.2124 34.6598 19.8342 33.1561 19.8342C31.597 19.8342 30.3747 20.1755 29.4891 20.8582C28.6035 21.5408 27.9808 22.2696 27.621 23.0445L24.5214 21.9375C25.0749 20.646 25.8129 19.6404 26.7354 18.9209C27.6672 18.1921 28.6819 17.6847 29.7797 17.3987C30.8867 17.1035 31.9753 16.9559 33.0454 16.9559C33.728 16.9559 34.5122 17.039 35.3978 17.205C36.2926 17.3618 37.1552 17.6893 37.9854 18.1875C38.8249 18.6856 39.5214 19.4375 40.0749 20.443C40.6284 21.4486 40.9052 22.7954 40.9052 24.4836V38.4873H37.6395V35.6091H37.4734C37.252 36.0703 36.883 36.5639 36.3664 37.0897C35.8498 37.6155 35.1625 38.063 34.3046 38.432C33.4467 38.801 32.3996 38.9855 31.1635 38.9855ZM31.6616 36.0519C32.9531 36.0519 34.0417 35.7982 34.9273 35.2908C35.8221 34.7834 36.4956 34.1284 36.9476 33.3259C37.4089 32.5233 37.6395 31.6792 37.6395 30.7936V27.8046C37.5011 27.9707 37.1967 28.1229 36.7262 28.2613C36.2649 28.3904 35.7299 28.5058 35.121 28.6072C34.5214 28.6995 33.9356 28.7825 33.3636 28.8563C32.8009 28.9209 32.3443 28.9762 31.9937 29.0224C31.145 29.1331 30.3517 29.313 29.6136 29.562C28.8849 29.8019 28.2945 30.1663 27.8424 30.6552C27.3996 31.1349 27.1782 31.7899 27.1782 32.6201C27.1782 33.7548 27.598 34.6128 28.4374 35.1939C29.2862 35.7659 30.3609 36.0519 31.6616 36.0519Z" fill="#F9C067"/>
<path d="M49.6042 10.1478V38.4873H46.3385V10.1478H49.6042Z" fill="#F9C067"/>
<path d="M66.7306 15.0996C59.6927 15.0996 54.0664 20.3743 54.0664 26.9723C54.0664 29.2541 54.792 31.0164 56.0518 32.8035L65.3982 46.0985C65.6819 46.5004 66.17 46.7601 66.7306 46.7601C67.2913 46.7601 67.786 46.4942 68.063 46.0985L77.4094 32.8035C78.6693 31.0164 79.3948 29.2541 79.3948 26.9723C79.3948 20.3743 73.7685 15.0996 66.7306 15.0996ZM66.7306 33.5641C62.8456 33.5641 59.6927 30.6083 59.6927 26.9599C59.6927 23.3116 62.8456 20.3557 66.7306 20.3557C70.6156 20.3557 73.7685 23.3116 73.7685 26.9599C73.7685 30.6083 70.6156 33.5641 66.7306 33.5641Z" fill="#F9C067"/>
<path d="M94.4943 15.0996C87.4564 15.0996 81.8301 20.3743 81.8301 26.9723C81.8301 29.2541 82.5556 31.0164 83.8155 32.8035L93.1619 46.0985C93.4455 46.5004 93.9336 46.7601 94.4943 46.7601C95.0549 46.7601 95.5496 46.4942 95.8267 46.0985L105.173 32.8035C106.433 31.0164 107.158 29.2541 107.158 26.9723C107.158 20.3743 101.532 15.0996 94.4943 15.0996ZM94.4943 33.5641C90.6093 33.5641 87.4564 30.6083 87.4564 26.9599C87.4564 23.3116 90.6093 20.3557 94.4943 20.3557C98.3793 20.3557 101.532 23.3116 101.532 26.9599C101.532 30.6083 98.3793 33.5641 94.4943 33.5641Z" fill="#F9C067"/>
<path d="M115.362 25.7013V38.4873H112.096V17.2327H115.251V20.5537H115.528C116.026 19.4744 116.783 18.6072 117.797 17.9523C118.812 17.288 120.122 16.9559 121.727 16.9559C123.166 16.9559 124.426 17.2511 125.505 17.8415C126.584 18.4227 127.424 19.3083 128.023 20.4984C128.623 21.6792 128.923 23.1737 128.923 24.9818V38.4873H125.657V25.2032C125.657 23.5334 125.224 22.2327 124.356 21.301C123.489 20.36 122.299 19.8895 120.786 19.8895C119.744 19.8895 118.812 20.1155 117.991 20.5676C117.179 21.0196 116.538 21.6792 116.068 22.5463C115.597 23.4135 115.362 24.4652 115.362 25.7013Z" fill="#F9C067"/>
</svg>
