<svg width="800" height="800" viewBox="0 0 800 800" fill="none" xmlns="http://www.w3.org/2000/svg">
<path d="M616 617.893H700M156 400L100 401.467M156 400C156 444.183 191.817 480 236 480C280.183 480 316 444.183 316 400C316 355.817 280.183 320 236 320C191.817 320 156 355.817 156 400ZM338.967 401.47H700M426.7 185.041H100M700 185.041H616M100 617.893H426.7M596 620C596 664.183 560.183 700 516 700C471.817 700 436 664.183 436 620C436 575.817 471.817 540 516 540C560.183 540 596 575.817 596 620ZM596 180C596 224.183 560.183 260 516 260C471.817 260 436 224.183 436 180C436 135.817 471.817 100 516 100C560.183 100 596 135.817 596 180Z" stroke="#D6111E" stroke-width="50" stroke-linecap="round"/>
</svg>
