<svg width="800" height="800" viewBox="0 0 800 800" fill="none" xmlns="http://www.w3.org/2000/svg">
<path d="M714.35 526.3H308.35C288.7 526.3 272.75 509.1 272.75 488.1C272.75 467.1 288.7 449.9 308.35 449.9H714.35C734.05 449.9 750 467.1 750 488.1C750 509.1 734 526.3 714.35 526.3ZM714.35 348.1H308.35C288.7 348.1 272.75 330.95 272.75 309.9C272.75 288.9 288.7 271.7 308.35 271.7H714.35C734.05 271.7 750 288.9 750 309.9C750 330.9 734 348.1 714.35 348.1ZM711.8 176.3H90.1C69.1 176.3 50.6 160.4 50 139.45C49.8323 134.329 50.6964 129.227 52.541 124.447C54.3855 119.667 57.1727 115.307 60.7367 111.627C64.3008 107.946 68.5688 105.02 73.2868 103.023C78.0049 101.025 83.0765 99.9973 88.2 100H709.9C730.9 100 749.4 115.95 750 136.85C750.174 141.975 749.315 147.082 747.474 151.868C745.633 156.654 742.846 161.02 739.282 164.706C735.717 168.392 731.447 171.323 726.725 173.323C722.004 175.324 716.928 176.353 711.8 176.35V176.3ZM227.6 525.7V272.4L50 399.05L227.6 525.7C227.6 526.3 227.6 526.3 227.6 525.7ZM88.2 621.75H709.9C730.9 621.75 749.4 637.75 750 658.65C750.168 663.771 749.303 668.873 747.459 673.653C745.614 678.433 742.827 682.793 739.263 686.473C735.699 690.154 731.431 693.08 726.713 695.077C721.995 697.075 716.923 698.103 711.8 698.1H90.1C69.1 698.1 50.6 682.15 50 661.2C49.8323 656.079 50.6964 650.977 52.541 646.197C54.3855 641.417 57.1727 637.057 60.7367 633.377C64.3008 629.696 68.5688 626.77 73.2868 624.773C78.0049 622.775 83.0765 621.747 88.2 621.75Z" fill="#D6111E"/>
</svg>
