<svg width="400" height="200" viewBox="0 0 400 200" fill="none" xmlns="http://www.w3.org/2000/svg">
<mask id="mask0_157_296" style="mask-type:luminance" maskUnits="userSpaceOnUse" x="0" y="0" width="400" height="200">
<path d="M400 0H0V200H400V0Z" fill="white"/>
</mask>
<g mask="url(#mask0_157_296)">
<path d="M41.6337 64.2502C41.1964 63.9767 40.7248 63.8857 40.261 63.9852H5.57314C4.18829 63.9852 4.18829 63.9852 4.18829 61.8452C4.18829 56.5952 4.20646 51.3452 4.17312 46.0902C4.17312 44.8552 4.37313 44.4452 5.1701 44.4502C23.0933 44.5736 41.0155 44.6619 58.9368 44.7152C59.6307 44.7152 59.8459 45.0752 59.8459 46.1902C59.8216 50.6369 59.8216 55.0819 59.8459 59.5252C59.8614 60.2923 59.6963 61.0395 59.3853 61.6102C57.3065 65.5352 55.2853 69.5452 53.1489 73.3902C51.9943 75.4502 50.8398 77.4802 49.7792 79.6602C45.4307 88.6602 40.7034 97.1602 36.1671 105.925C32.664 112.732 29.1135 119.47 25.5155 126.14C24.2691 128.427 23.0317 130.737 21.8034 133.07C21.6398 133.38 21.2913 133.675 21.4156 134.1C21.5398 134.525 21.9459 134.365 22.2246 134.365C26.0873 134.405 29.9509 134.435 33.8156 134.455L59.8519 134.56C61.0065 134.56 61.0065 134.56 61.0065 136.41C61.0065 141.745 60.9822 147.105 61.0246 152.45C61.0246 153.735 60.7943 154.045 60.0216 154.04C43.5852 153.927 27.1489 153.839 10.7125 153.775C8.45496 153.775 6.19435 153.73 3.93677 153.775C3.26708 153.775 2.99737 153.53 3.02767 152.355C3.06707 147.82 3.05192 143.285 3.02767 138.75C3.02502 138.372 3.06783 137.996 3.15365 137.645C3.23947 137.294 3.3666 136.975 3.52768 136.705C7.68525 128.91 11.9186 121.235 15.9216 113.255C22.4216 100.3 29.255 87.7552 35.9216 75.0202C37.7913 71.4352 39.6519 67.8552 41.6428 64.2602L41.6337 64.2502Z" fill="#F9C067"/>
<path d="M240.625 76.2602V150.295C240.625 152.295 240.625 152.295 239.373 152.295C235.216 152.295 231.061 152.265 226.889 152.325C226.067 152.325 225.834 151.945 225.834 150.635C225.854 100.969 225.854 51.3153 225.834 1.67525C225.834 0.325249 226.101 -0.00978463 226.904 0.000215373C231.126 0.0535487 235.346 0.0535487 239.564 0.000215373C240.434 0.000215373 240.646 0.410235 240.646 1.77023C240.634 26.5902 240.628 51.4235 240.628 76.2702L240.625 76.2602Z" fill="#F9C067"/>
<path d="M214.764 44.5501C212.721 54.0001 210.255 63.1801 207.955 72.4701C203.552 90.2501 199.128 108.007 194.682 125.74C191.106 140.023 187.517 154.3 183.915 168.57C183.827 168.915 183.706 169.25 183.612 169.57C183.081 171.697 182.431 173.737 181.67 175.665C180.001 180.352 177.688 184.325 174.917 187.265C172.146 190.205 168.995 192.029 165.718 192.59C159.974 194.063 154.101 192.06 149.182 186.95C148.382 186.11 147.748 184.95 146.964 184.105C146.503 183.605 146.833 183.105 146.988 182.635C148.648 177.692 150.316 172.752 151.991 167.815C152.733 165.63 152.745 165.62 154.006 166.95C156.069 169.292 158.477 170.674 160.976 170.95C162.918 171.178 164.861 170.507 166.584 169.012C168.308 167.517 169.745 165.259 170.733 162.49C172.002 158.828 173.134 155.041 174.121 151.15C174.321 150.485 174.121 149.955 173.967 149.39L157.024 84.7851C154.197 74.0151 151.336 63.2851 148.558 52.4701C147.836 49.6701 147.261 46.7551 146.479 43.9701C146.176 42.8751 146.655 43.0151 147.027 43.0151H152.642C155.2 43.0151 157.755 43.075 160.312 42.975C160.639 42.898 160.972 43.0256 161.245 43.3328C161.518 43.6399 161.712 44.1044 161.788 44.635C163.976 53.7084 166.19 62.7668 168.43 71.8101C172.551 88.5768 176.682 105.342 180.821 122.105C181.088 123.19 180.982 124.485 181.609 125.535L183.255 118.57L188.945 93.4201C190.297 87.4667 191.657 81.5134 193.024 75.5601C195.406 65.1851 197.812 54.8251 200.182 44.4401C200.252 43.9802 200.423 43.5797 200.662 43.3171C200.902 43.0545 201.192 42.9486 201.476 43.0201C205.697 43.0751 209.915 43.0201 214.136 43.0501C215.112 43.0101 215.097 43.0501 214.782 44.5051L214.764 44.5501Z" fill="#F9C067"/>
<path d="M396.452 72.7951C395.073 65.8042 392.628 59.5151 389.353 54.5307C386.077 49.5464 382.081 46.034 377.746 44.3301C374.814 43.0574 371.799 42.3725 368.767 42.2901C360.691 41.4074 352.667 45.0066 345.973 52.5151C340.954 58.3856 337.088 66.5561 334.855 76.0151C333.242 82.8489 332.444 90.1321 332.504 97.4651C332.28 108.39 334.009 119.181 337.476 128.495C340.564 136.756 345.064 143.323 350.41 147.37C359.805 154.281 370.419 155.199 380.201 149.945C385.652 147.25 390.608 142.346 394.616 135.68C395.116 134.86 395.179 134.39 394.646 133.525C392.351 129.795 390.085 126.018 387.849 122.195C387.401 121.435 387.155 121.815 386.855 122.33C384.553 125.891 381.858 128.688 378.916 130.57C374.654 133.557 369.988 134.622 365.395 133.655C360.372 132.919 355.686 129.186 352.213 123.155C350.01 119.156 348.42 114.343 347.576 109.12C347.201 106.975 347.213 106.95 348.57 106.95H396.979C397.307 106.95 397.634 106.95 397.958 106.95C398.401 106.95 398.564 106.635 398.595 105.91C399.267 94.7577 398.538 83.4963 396.452 72.8301V72.7951ZM384.867 89.4951H348.149C346.995 89.4951 346.979 89.4951 347.189 87.7101C347.596 83.7866 348.43 80.0173 349.652 76.5851C351.082 72.5659 353.049 69.1382 355.403 66.563C357.757 63.9879 360.437 62.3332 363.237 61.7251C366.977 60.7478 370.804 61.2325 374.41 63.1401C377.446 64.7953 380.112 67.9125 382.064 72.0902C384.248 76.7896 385.516 82.4714 385.701 88.3851C385.755 89.5451 385.331 89.4951 384.867 89.4951Z" fill="#F9C067"/>
<path d="M317.273 72.7949C315.894 65.804 313.449 59.5149 310.174 54.5305C306.898 49.5462 302.902 46.0338 298.567 44.33C295.636 43.0577 292.622 42.3727 289.591 42.2899C281.514 41.4061 273.489 45.0053 266.795 52.5149C261.775 58.3845 257.909 66.5553 255.676 76.0149C254.063 82.8486 253.264 90.1317 253.322 97.465C253.099 108.39 254.83 119.181 258.298 128.495C261.385 136.755 265.885 143.323 271.231 147.37C280.626 154.281 291.24 155.198 301.022 149.945C306.474 147.25 311.431 142.346 315.44 135.68C315.94 134.86 316.001 134.39 315.47 133.525C313.175 129.795 310.909 126.018 308.67 122.195C308.222 121.435 307.976 121.815 307.679 122.33C305.376 125.891 302.68 128.689 299.737 130.57C295.475 133.557 290.809 134.622 286.216 133.655C281.195 132.919 276.509 129.185 273.037 123.155C270.833 119.156 269.243 114.343 268.401 109.12C268.025 106.975 268.037 106.95 269.395 106.95H317.807C318.131 106.95 318.461 106.95 318.785 106.95C319.228 106.95 319.391 106.635 319.422 105.91C320.094 94.7571 319.364 83.4955 317.276 72.8299L317.273 72.7949ZM305.688 89.4949H268.97C267.816 89.4949 267.801 89.4949 268.013 87.7099C268.418 83.7858 269.253 80.016 270.476 76.5849C271.906 72.5657 273.873 69.138 276.227 66.5629C278.582 63.9877 281.261 62.333 284.061 61.7249C287.801 60.7476 291.628 61.2323 295.234 63.1399C298.269 64.7954 300.934 67.9127 302.885 72.09C305.069 76.7895 306.337 82.4713 306.522 88.3849C306.582 89.5449 306.158 89.4999 305.695 89.4999L305.688 89.4949Z" fill="#F9C067"/>
<path d="M137.597 72.9302C134.756 63.8793 130.528 56.2135 125.334 50.6953C122.887 47.9593 120.21 45.83 117.388 44.3752C116.385 43.8752 115.385 43.3752 114.385 42.9002C112.471 42.112 110.526 41.5407 108.564 41.1903C106.481 40.9795 104.392 40.9795 102.31 41.1903C102.194 41.1544 102.076 41.1376 101.958 41.1402C94.3909 42.1854 87.2261 47.2062 81.5156 55.4652C77.7602 60.8581 74.7032 67.4464 72.5277 74.8352C69.7292 84.3083 68.6998 94.94 69.5702 105.38C70.2947 113.126 71.6983 120.656 73.7368 127.735C76.2959 136.828 79.2564 145.598 82.5944 153.975C87.4006 166.008 92.7706 177.401 98.655 188.05C100.398 191.3 102.169 194.517 103.967 197.7C104.127 198.074 104.338 198.38 104.583 198.593C104.828 198.806 105.1 198.921 105.377 198.927C105.654 198.933 105.928 198.831 106.176 198.629C106.425 198.427 106.641 198.131 106.807 197.765C107.11 197.265 107.388 196.81 107.664 196.31C110.526 191.423 113.224 186.282 115.746 180.91C116.364 179.897 116.931 178.803 117.443 177.64C117.585 177.4 117.746 177.175 117.87 176.915C122.485 167.719 126.727 158.031 130.57 147.915C134.533 137.863 137.669 126.989 139.897 115.575C141.263 108.574 141.764 101.193 141.372 93.8668C140.98 86.5408 139.703 79.4185 137.616 72.9202L137.597 72.9302ZM125.252 126.06C123.334 129.682 121.044 132.715 118.485 135.02C118.046 135.4 117.622 135.845 117.188 136.26C114.765 138.211 112.179 139.559 109.516 140.26C105.497 141.328 101.383 140.863 97.4898 138.902C93.5965 136.941 90.0271 133.535 87.055 128.945C85.447 126.7 84.0768 124.028 83.0005 121.04C80.7246 114.89 79.444 107.878 79.2815 100.677C79.119 93.4758 80.0801 86.3264 82.0725 79.9139C84.065 73.5013 87.0221 68.0405 90.6606 64.0546C94.2991 60.0687 98.4969 57.6913 102.852 57.1502C102.997 57.1202 103.137 57.0402 103.285 56.9852C104.707 56.6481 106.152 56.6971 107.564 57.1302C109.87 57.4816 112.141 58.2874 114.331 59.5303C115.197 60.2293 116.091 60.8323 117.007 61.3352C119.402 63.4144 121.627 65.9921 123.625 69.0052C128.33 76.308 131.13 86.3429 131.434 96.9895C131.737 107.636 129.521 118.061 125.252 126.06Z" fill="#F9C067"/>
</g>
</svg>
