<svg width="20" height="20" viewBox="0 0 20 20" fill="none" xmlns="http://www.w3.org/2000/svg">
<g clip-path="url(#clip0_42_48)">
<path d="M9.99133 6.64102e-06C8.01366 0.00152559 6.08083 0.589362 4.43719 1.68921C2.79355 2.78905 1.5129 4.35152 0.757126 6.17908C0.0013552 8.00665 -0.195602 10.0173 0.191154 11.9568C0.577911 13.8963 1.53102 15.6775 2.92998 17.0754C4.32894 18.4733 6.11096 19.4251 8.05074 19.8103C9.99053 20.1956 12.001 19.9971 13.828 19.2399C15.655 18.4827 17.2165 17.2009 18.315 15.5564C19.4136 13.9119 20 11.9786 20 10.001C20.0005 8.68683 19.7419 7.38549 19.239 6.17139C18.7361 4.95729 17.9988 3.85425 17.0692 2.92538C16.1396 1.9965 15.036 1.26001 13.8215 0.758049C12.607 0.256085 11.3055 -0.00150802 9.99133 6.64102e-06ZM10.0009 18.001C8.41868 18.001 6.87196 17.5318 5.55637 16.6527C4.24078 15.7737 3.2154 14.5242 2.6099 13.0624C2.00439 11.6006 1.84597 9.99209 2.15465 8.44024C2.46333 6.8884 3.22526 5.46293 4.34408 4.34411C5.4629 3.22529 6.88836 2.46337 8.44021 2.15468C9.99206 1.846 11.6006 2.00443 13.0624 2.60993C14.5242 3.21543 15.7736 4.24081 16.6527 5.55641C17.5317 6.872 18.0009 8.41872 18.0009 10.001C18.0009 12.1227 17.1581 14.1575 15.6578 15.6578C14.1575 17.1581 12.1227 18.001 10.0009 18.001Z" fill="#EFA834"/>
<path d="M10.5002 4.99854H9.00049V10.9995L14.2506 14.1488L15.0014 12.9179L10.5022 10.2487L10.5002 4.99854Z" fill="#EFA834"/>
</g>
<defs>
<clipPath id="clip0_42_48">
<rect width="20" height="20" fill="white"/>
</clipPath>
</defs>
</svg>
