<svg width="20" height="20" viewBox="0 0 20 20" fill="none" xmlns="http://www.w3.org/2000/svg">
<path d="M17.6023 2.72756C17.6916 2.81698 17.7518 2.93139 17.7748 3.05569C17.7978 3.17999 17.7825 3.30836 17.731 3.42381L10.6598 19.3338C10.6104 19.445 10.5296 19.5395 10.4272 19.6055C10.3249 19.6714 10.2055 19.706 10.0838 19.7052C9.96205 19.7043 9.84323 19.6678 9.74193 19.6003C9.64062 19.5327 9.56124 19.437 9.51354 19.325L6.96229 13.3675L1.00354 10.8151C0.891942 10.7671 0.796754 10.6876 0.729615 10.5863C0.662477 10.4851 0.626298 10.3665 0.625502 10.245C0.624705 10.1235 0.659329 10.0045 0.725135 9.90234C0.790942 9.80023 0.885079 9.71952 0.996035 9.67006L16.906 2.59881C17.0214 2.54762 17.1494 2.53252 17.2735 2.55551C17.3975 2.57848 17.513 2.63847 17.6023 2.72756ZM2.81229 10.2301L7.68354 12.3176C7.83084 12.3811 7.9481 12.4988 8.01104 12.6463L10.0985 17.5175L15.9285 4.40006L2.81229 10.2301Z" fill="#EFA834"/>
</svg>
