<svg width="20" height="20" viewBox="0 0 20 20" fill="none" xmlns="http://www.w3.org/2000/svg">
<mask id="mask0_42_47" style="mask-type:luminance" maskUnits="userSpaceOnUse" x="0" y="0" width="20" height="20">
<path d="M20 0H0V20H20V0Z" fill="white"/>
</mask>
<g mask="url(#mask0_42_47)">
<path d="M0.508142 18.6137L1.80402 16.3298L0 14.2587L0.972949 12.5472L2.77684 14.6269L3.79527 12.8434C3.06861 11.673 2.65707 10.1736 2.63357 8.61217C2.61007 7.05074 2.97611 5.52835 3.66691 4.31471C4.05018 3.64031 4.52324 3.08055 5.05881 2.66649C5.59438 2.25243 6.18197 1.9919 6.78816 1.90136C7.39434 1.8108 8.00721 1.89333 8.59154 2.14009C9.17586 2.38686 9.7202 2.79315 10.1935 3.33959C10.7822 4.01873 11.2445 4.89449 11.539 5.88814C12.3957 5.96555 13.22 6.38236 13.9195 7.0905L17.3608 2.19763H14.3262V0H19.9969V8.07426H18.4506V3.76243L15.0166 8.64956C15.5761 9.76738 15.8758 11.1086 15.8735 12.481C15.8741 13.3484 15.7545 14.205 15.5215 15.0066C15.2887 15.8081 14.9471 16.5389 14.5163 17.1524C14.0855 17.766 13.574 18.2527 13.011 18.5848C12.4478 18.9169 11.8442 19.0882 11.2347 19.0882C10.3239 19.0879 9.43331 18.7049 8.67379 17.9894C7.91427 17.2741 7.31941 16.2571 6.96339 15.0641C6.27028 14.9976 5.59633 14.7113 4.99071 14.227L3.97948 16.0105L5.7773 18.0844L4.80436 19.8016L3.00666 17.719L1.70572 20.0059L0.508142 18.6137ZM11.2369 16.8848C12.0576 16.8826 12.8441 16.4171 13.4239 15.5904C14.0037 14.7638 14.3293 13.6432 14.3293 12.4753C14.3285 11.4736 14.0881 10.5036 13.6475 9.72247C13.2069 8.94133 12.5925 8.39567 11.9055 8.17781C11.9556 9.79007 11.5893 11.3734 10.8757 12.6277C10.2915 13.6601 9.50062 14.4151 8.60797 14.7937C8.88546 15.4311 9.27237 15.9582 9.73227 16.324C10.1922 16.6898 10.71 16.8823 11.2369 16.8848ZM4.87068 5.69253C4.35428 6.60013 4.11239 7.76144 4.19817 8.92281C4.28396 10.0842 4.69043 11.1506 5.32816 11.8856C5.69736 12.3184 6.13431 12.6181 6.60218 12.76C6.60218 12.6658 6.60218 12.5682 6.60218 12.4666C6.60303 11.0478 6.92473 9.66446 7.51967 8.52586C8.11461 7.38726 8.95124 6.55387 9.90586 6.14415C9.72495 5.72365 9.49502 5.35012 9.2259 5.03959C8.67547 4.4043 7.98783 4.05879 7.27911 4.06158C6.81644 4.05803 6.35916 4.20136 5.94142 4.48442C5.52368 4.76748 5.15621 5.18206 4.86652 5.69542L4.87068 5.69253ZM8.1443 12.4666C8.1443 12.5417 8.1443 12.6132 8.1443 12.6795C8.74632 12.4303 9.28022 11.9268 9.67403 11.2326C10.1525 10.3915 10.3951 9.3275 10.355 8.24685C9.71656 8.52153 9.15711 9.07885 8.75907 9.84041C8.36102 10.602 8.14549 11.5262 8.1443 12.4753V12.4666Z" fill="#EFA834"/>
</g>
</svg>
