<svg width="22" height="19" viewBox="0 0 22 19" fill="none" xmlns="http://www.w3.org/2000/svg">
<g clip-path="url(#clip0_40_38)">
<path d="M19.5458 2.09205C19.0415 1.58756 18.4428 1.18736 17.7839 0.914313C17.1249 0.641269 16.4186 0.500732 15.7053 0.500732C14.992 0.500732 14.2857 0.641269 13.6267 0.914313C12.9678 1.18736 12.369 1.58756 11.8648 2.09205L10.8178 3.13805L9.77179 2.09205C8.75322 1.07349 7.37175 0.501266 5.93129 0.501266C4.49082 0.501266 3.10935 1.07349 2.09079 2.09205C1.07222 3.11062 0.5 4.49209 0.5 5.93255C0.5 7.37302 1.07222 8.75449 2.09079 9.77305L3.13679 10.8191L10.8178 18.5031L18.4988 10.8221L19.5458 9.77505C20.0503 9.2708 20.4505 8.67208 20.7235 8.01312C20.9966 7.35415 21.1371 6.64785 21.1371 5.93455C21.1371 5.22126 20.9966 4.51495 20.7235 3.85599C20.4505 3.19702 20.0503 2.59831 19.5458 2.09405V2.09205Z" fill="black"/>
</g>
<defs>
<clipPath id="clip0_40_38">
<rect width="21.637" height="19" fill="white"/>
</clipPath>
</defs>
</svg>
