<svg width="12" height="12" viewBox="0 0 12 12" fill="none" xmlns="http://www.w3.org/2000/svg">
<g clip-path="url(#clip0_44_62)">
<path d="M2.389 5.141C3.3458 7.01154 4.86746 8.5332 6.738 9.49L8.19 8.038C8.27635 7.95163 8.3851 7.89107 8.504 7.86316C8.6229 7.83524 8.74723 7.84108 8.863 7.88C9.62335 8.12977 10.4187 8.2567 11.219 8.256C11.3939 8.25653 11.5614 8.32623 11.6851 8.44989C11.8088 8.57355 11.8785 8.74112 11.879 8.916V11.216C11.8785 11.3909 11.8088 11.5584 11.6851 11.6821C11.5614 11.8058 11.3939 11.8755 11.219 11.876C8.24397 11.8763 5.39068 10.6948 3.28674 8.59138C1.1828 6.48801 0.00053039 3.63503 0 0.66C0.000527547 0.485119 0.0702326 0.317552 0.193892 0.193892C0.317552 0.0702326 0.485119 0.000527547 0.66 0H2.97C3.14488 0.000527547 3.31245 0.0702326 3.43611 0.193892C3.55977 0.317552 3.62947 0.485119 3.63 0.66C3.62882 1.46036 3.75576 2.25576 4.006 3.016C4.04336 3.13247 4.04771 3.25702 4.01859 3.37581C3.98946 3.49461 3.92799 3.60302 3.841 3.689L2.389 5.141Z" fill="white"/>
</g>
<defs>
<clipPath id="clip0_44_62">
<rect width="11.879" height="11.879" fill="white"/>
</clipPath>
</defs>
</svg>
